<svg id="Layer_1" data-name="Layer 1" xmlns="http://www.w3.org/2000/svg" viewBox="0 0 492.56 57.13"><defs><style>.cls-1{fill:#ef3f23;}.cls-2{fill:#051120;}.cls-3{fill:#061221;}.cls-4{fill:#061120;}.cls-5{fill:#010d1d;}.cls-6{fill:#081423;}.cls-7{fill:#f7f6f7;}</style></defs><path class="cls-1" d="M54.24.06a4.91,4.91,0,0,1,1.53,0,18.55,18.55,0,0,0,3.16.27h76.65a13.23,13.23,0,0,1,2.77.63c-4.63,4.65-9.22,9.35-13.94,13.9a4.72,4.72,0,0,1-3,.82q-27,.08-54,.05c-2.13,0-4.25,0-6.37.06a24,24,0,0,0-17.78,7.56C37.48,29.29,31.48,34.94,25.57,40.8a5.39,5.39,0,0,1-4.22,1.8c-6.2-.09-12.39,0-18.59,0H.33L0,41.92c1.63-1.56,3.29-3.1,4.89-4.69C14.14,28,23.34,18.76,32.63,9.6a29.86,29.86,0,0,1,14-8.26C49.48.91,51.85.49,54.24.06Z" transform="translate(0)"/><path class="cls-1" d="M38.82,31.6c2.22-2.25,4.4-4.3,6.41-6.51a19.65,19.65,0,0,1,15.15-6.71l50.71-.12h10c-.94,1-1.51,1.71-2.13,2.34-3.66,3.7-7.26,7.47-11,11a6,6,0,0,1-3.7,1.59c-12.32.11-24.64.22-36.95,0-5.5-.1-10.06,1.35-13.43,5.8-2.15,2.84-4.77,3.8-8.32,3.61-5.58-.3-11.2-.08-17.57-.08Z" transform="translate(0)"/><path class="cls-1" d="M141.24,1.49a.47.47,0,0,1,.32-.23,1.73,1.73,0,0,0,.63-.6s0,.09.12,0a2.46,2.46,0,0,0,.38-.57s0,.06.23.09c7.79,0,15.35.05,22.92.09.78,0,2-.5,1.79,1.2,0,0,0-.09-.16,0a6.11,6.11,0,0,0-.88,1.08s0-.09-.16-.06a7.61,7.61,0,0,0-.87,1.08s0-.08-.16-.06a8.32,8.32,0,0,0-.87,1.09s0-.08-.16,0a28.22,28.22,0,0,0-1.94,2.08s0-.09-.14-.06a10,10,0,0,0-.9,1.07s0-.07-.16-.06a5.88,5.88,0,0,0-.86,1.17.55.55,0,0,1-.33.28,2.48,2.48,0,0,0-.68.69s0-.08-.16-.05a7.91,7.91,0,0,0-.85,1.08s0-.07-.15,0a2.29,2.29,0,0,0-.38.54s0-.06-.15,0a8.12,8.12,0,0,0-.88,1.06s0-.06-.15,0a6.51,6.51,0,0,0-.88,1s0-.06-.14,0a2,2,0,0,0-.36.54s0-.06-.15,0a7,7,0,0,0-.9,1.07s0-.08-.17,0c-.73.75-1.32,1.46-1.9,2.18a.55.55,0,0,1-.33.27,2.66,2.66,0,0,0-.69.69s0-.08-.15-.05a8,8,0,0,0-.86,1.08s0-.07-.14,0a1.78,1.78,0,0,0-.38.53s0-.06-.15,0a11.68,11.68,0,0,0-1,1.23c-7,7.07-13.93,14.14-21,21.07a3.87,3.87,0,0,1-2.52.75c-7.61.06-15.22,0-23-.19a3.18,3.18,0,0,1,.15-1.5s0,.08.13,0a2.12,2.12,0,0,0,.39-.55s0,.08.13.05a4.72,4.72,0,0,0,.49-.81s0-.1.22-.13a7.49,7.49,0,0,0,1.21-1.18s0,.08.16,0c.71-.73,1.3-1.44,1.87-2.13,0,0,0,.08.15,0a2.1,2.1,0,0,0,.37-.56s0,.07.14,0a1.83,1.83,0,0,0,.38-.54s0,.08.16,0a7.49,7.49,0,0,0,.86-1.09s0,.08.17.05a17.6,17.6,0,0,0,1.38-1.6s0,.06.14,0a1.66,1.66,0,0,0,.38-.53s0,.08.16,0c.72-.73,1.31-1.43,1.89-2.12,0,0,0,.08.15.06a7.62,7.62,0,0,0,.89-1.08s0,.08.15.05a7.49,7.49,0,0,0,.86-1.09s0,.07.14,0a1.87,1.87,0,0,0,.38-.55s0,.07.14,0a1.91,1.91,0,0,0,.39-.54s0,.08.15,0a6.94,6.94,0,0,0,.87-1.09s0,.08.17.06c.73-.72,1.32-1.42,1.91-2.11,0,0,0,.09.14.06a8.32,8.32,0,0,0,.87-1.09s0,.07.12,0a3.52,3.52,0,0,0,.49-.72.5.5,0,0,1,.36-.25,43.1,43.1,0,0,0,3.14-3.2s0,.07.17.05a7.49,7.49,0,0,0,.86-1.09s0,.08.14.05a1.79,1.79,0,0,0,.38-.56s0,.07.14,0a1.57,1.57,0,0,0,.37-.55s0,.08.16,0c1.6-1.59,3-3.13,4.49-4.69,0,0,0,.08.13,0a2,2,0,0,0,.37-.56s0,.08.15.06a7.1,7.1,0,0,0,.89-1.08.09.09,0,0,0,.11.06h0a3.61,3.61,0,0,0,.48-.74.46.46,0,0,1,.36-.23A21,21,0,0,0,135.5,7s0,.08.14.06A8.47,8.47,0,0,0,136.53,6s0,.08.13,0a1.82,1.82,0,0,0,.39-.56s0,.08.13,0a2,2,0,0,0,.37-.56s0,.08.16,0c.73-.72,1.32-1.41,1.91-2.11,0,0,0,.08.15,0Q140.54,2.24,141.24,1.49Z" transform="translate(0)"/><path class="cls-2" d="M249.59,39.92V33.38h19.27c1,0,2.18.27,3-.13a4.48,4.48,0,0,0,2.48-2.34c.17-.72-.89-2.29-1.73-2.6-3.73-1.38-7.63-2.31-11.37-3.66a43.64,43.64,0,0,1-8.5-3.85c-3.65-2.32-4.74-6.09-4.16-10.26a9.77,9.77,0,0,1,6.74-8.22,13.53,13.53,0,0,1,4.44-1c7.89-.1,15.78-.05,23.8-.05v9.07H263.71a6.9,6.9,0,0,0-2.52.13c-.75.31-1.75,1-1.84,1.68a2.7,2.7,0,0,0,1.26,2.16,32.37,32.37,0,0,0,4.8,1.65c4,1.25,8,2.25,11.87,3.78,5.6,2.22,8.08,6,7.8,11-.31,5.46-3.6,9.36-9.37,11a13.25,13.25,0,0,1-3.48.68c-7.46.06-14.91,0-22.53,0C249.66,41.64,249.62,40.9,249.59,39.92Z" transform="translate(0)"/><path class="cls-3" d="M338.85,9.37c2.63,0,5,0,7.39.06,7.55.34,11.92,4.36,12.26,11.89.31,7,.06,13.91.06,21.06H348V23.29c0-4.54-.74-5.26-5.34-5.26h-7.82V42.41H324.37V1.23H334.7V9.37Z" transform="translate(0)"/><path class="cls-2" d="M388.3,42.61c-4.77,0-9.41.47-13.87-.21-6.27-1-10.2-5.87-10.71-12.23a53.47,53.47,0,0,1-.08-7.38c.43-7.71,4.59-12.57,12.28-13.55a46.88,46.88,0,0,1,12.41.17c6.36.9,10.61,5.77,11.13,12.14a54.43,54.43,0,0,1,0,8.66c-.51,6.48-4.2,10.52-11.18,12.4m.51-20.07c-.36-4.6-1.55-5.72-6.19-5.78h-2.54c-4.09.15-5.48,1.5-5.66,5.53-.07,1.44,0,2.88,0,4.32,0,7.88,1.3,9.08,9.28,8.55,3.45-.23,4.91-1.59,5.1-5,.11-2.34,0-4.77,0-7.62Z" transform="translate(0)"/><path class="cls-2" d="M404.48,18c1.8-4.8,5.21-7.83,9.93-8.43a53.28,53.28,0,0,1,14.16,0c6.32.89,10.28,5.75,10.82,12.1a51.27,51.27,0,0,1,.08,7.64c-.45,7.55-4.36,12.33-11.85,13.38a44.93,44.93,0,0,1-13.4-.28,11.76,11.76,0,0,1-10.29-10.84c-.48-4.39.27-8.91.55-13.56m9.83,11.4c.36,4.56,1.63,5.77,6.18,5.83a32.49,32.49,0,0,0,3.56-.08c3.07-.29,4.34-1.56,4.6-4.68.13-1.68.1-3.38.1-5.08,0-7.93-1.26-9.11-9.23-8.59-3.51.23-5,1.7-5.18,5.27-.14,2.27-.07,4.56-.07,7.32Z" transform="translate(0)"/><path class="cls-2" d="M195.48,24.68V9.38h4.9c5.69,0,11.38-.11,17.06.07,7.74.24,12.1,4.66,12.27,12.36.14,6.29,0,12.57,0,18.86v1.71H219.19V24.07c0-1-.05-2-.12-3.05a2.9,2.9,0,0,0-2.79-3h-.37c-3.21-.07-6.43,0-9.87,0V42.38H195.48Z" transform="translate(0)"/><path class="cls-4" d="M486.4,23.92c4.82,2.31,6.45,4.85,6.12,9.39-.3,4.2-2.75,7.14-7.31,8.39a24.06,24.06,0,0,1-5.78.81c-5.51.1-11,0-16.67,0V34.42h16.09a9,9,0,0,0,2.54-.09,7.79,7.79,0,0,0,1.92-1.24c-.53-.64-1-1.67-1.61-1.84-3.12-.79-6.32-1.27-9.45-2a27.31,27.31,0,0,1-5.77-1.91c-3.55-1.75-5.1-4.79-4.92-8.75a8.37,8.37,0,0,1,5.77-7.93,17.82,17.82,0,0,1,5.94-1.21c5.76-.16,11.54-.06,17.47-.06v8.07H475.22a7.92,7.92,0,0,0-2.28.06,8.79,8.79,0,0,0-2,1.24c.56.64,1,1.66,1.69,1.85,2.78.75,5.63,1.21,8.45,1.84C482.8,22.82,484.48,23.38,486.4,23.92Z" transform="translate(0)"/><path class="cls-3" d="M302.66,34.06c5.35.1,10.5.1,15.75.1v8.76c-6.59-.39-13.21-.32-19.65-1.32-5.87-.92-8.92-5-9.53-11a53.82,53.82,0,0,1-.2-6.35c.14-9.22,4.5-14.06,13.69-14.67,5.15-.34,10.33-.06,15.65-.06v8h-12c-4.82,0-6.45,1.6-6.53,6.36a28.62,28.62,0,0,0,.19,6.34C300.35,31.56,301.63,32.72,302.66,34.06Z" transform="translate(0)"/><path class="cls-5" d="M447,42.56c-1.59.24-1.76-.47-1.75-1.6V1.29h10.27V42.56Z" transform="translate(0)"/><path class="cls-6" d="M178.11,26.72V9.54h10.37V42.46H178.11Z" transform="translate(0)"/><path class="cls-3" d="M185.22,6.57h-7V.21h10.32V6.57Z" transform="translate(0)"/><path class="cls-1" d="M54,.43c-2.18.46-4.57.88-7.19,1.29C49,1.27,51.42.82,54,.43Z" transform="translate(0)"/><path class="cls-1" d="M131,12c-1.27,1.49-2.7,3-4.31,4.61C127.92,15.15,129.36,13.62,131,12Z" transform="translate(0)"/><path class="cls-1" d="M124.33,18.73a30,30,0,0,1-2.87,3.1A32.42,32.42,0,0,1,124.33,18.73Z" transform="translate(0)"/><path class="cls-1" d="M107,36.23a12,12,0,0,1-1.74,2A12.45,12.45,0,0,1,107,36.23Z" transform="translate(0)"/><path class="cls-1" d="M135.56,7.74A12.51,12.51,0,0,1,133.7,9.8,12.51,12.51,0,0,1,135.56,7.74Z" transform="translate(0)"/><path class="cls-1" d="M119.25,23.88a11.41,11.41,0,0,1-1.78,2A11.41,11.41,0,0,1,119.25,23.88Z" transform="translate(0)"/><path class="cls-1" d="M139.65,3.66a10.53,10.53,0,0,1-1.77,2A12,12,0,0,1,139.65,3.66Z" transform="translate(0)"/><path class="cls-1" d="M152.38,16.92a14.15,14.15,0,0,1,1.78-2.09A13.2,13.2,0,0,1,152.38,16.92Z" transform="translate(0)"/><path class="cls-1" d="M113.11,30.06a13,13,0,0,1-1.75,2A12.51,12.51,0,0,1,113.11,30.06Z" transform="translate(0)"/><path class="cls-1" d="M162.59,6.93a12.14,12.14,0,0,1,1.79-2A11,11,0,0,1,162.59,6.93Z" transform="translate(0)"/><path class="cls-1" d="M141.29,1.94a8.37,8.37,0,0,1-1.37,1.71A8.37,8.37,0,0,1,141.29,1.94Z" transform="translate(0)"/><path class="cls-1" d="M102.48,40.88a5,5,0,0,1-.22,1.39,1.7,1.7,0,0,1-1,0A12.38,12.38,0,0,1,102.48,40.88Z" transform="translate(0)"/><path class="cls-1" d="M110.56,32.63a6,6,0,0,1-1.25,1.53A6,6,0,0,1,110.56,32.63Z" transform="translate(0)"/><path class="cls-1" d="M160.53,9a2.36,2.36,0,0,1,.74-1.07A2.36,2.36,0,0,1,160.53,9Z" transform="translate(0)"/><path class="cls-1" d="M148.69,20.61a3.7,3.7,0,0,1,.9-1.17A3.94,3.94,0,0,1,148.69,20.61Z" transform="translate(0)"/><path class="cls-1" d="M105,38.29a4.23,4.23,0,0,1-1,1.15A4.23,4.23,0,0,1,105,38.29Z" transform="translate(0)"/><path class="cls-1" d="M109,34.17a2.46,2.46,0,0,1-.74,1A2.42,2.42,0,0,1,109,34.17Z" transform="translate(0)"/><path class="cls-1" d="M157,12.24a2.51,2.51,0,0,1,.75-1A2.51,2.51,0,0,1,157,12.24Z" transform="translate(0)"/><path class="cls-1" d="M114.15,29a2.55,2.55,0,0,1-.77,1A2.4,2.4,0,0,1,114.15,29Z" transform="translate(0)"/><path class="cls-1" d="M161.56,7.94a2.52,2.52,0,0,1,.77-1A2.37,2.37,0,0,1,161.56,7.94Z" transform="translate(0)"/><path class="cls-1" d="M136.59,6.71a2.41,2.41,0,0,1-.76,1A2.35,2.35,0,0,1,136.59,6.71Z" transform="translate(0)"/><path class="cls-1" d="M164.66,4.91a2.47,2.47,0,0,1,.75-1A2.39,2.39,0,0,1,164.66,4.91Z" transform="translate(0)"/><path class="cls-1" d="M165.68,3.89a2.47,2.47,0,0,1,.75-1A2.39,2.39,0,0,1,165.68,3.89Z" transform="translate(0)"/><path class="cls-1" d="M166.7,2.88a2.35,2.35,0,0,1,.76-1A2.5,2.5,0,0,1,166.7,2.88Z" transform="translate(0)"/><path class="cls-1" d="M115.15,28a2.55,2.55,0,0,1-.74,1A2.48,2.48,0,0,1,115.15,28Z" transform="translate(0)"/><path class="cls-1" d="M158.53,11a2.47,2.47,0,0,1,.75-1A2.54,2.54,0,0,1,158.53,11Z" transform="translate(0)"/><path class="cls-1" d="M132.48,10.51a2.48,2.48,0,0,1-.77,1A2.48,2.48,0,0,1,132.48,10.51Z" transform="translate(0)"/><path class="cls-1" d="M117.2,25.92a2.55,2.55,0,0,1-.74,1A2.48,2.48,0,0,1,117.2,25.92Z" transform="translate(0)"/><path class="cls-1" d="M156,13.27a2.44,2.44,0,0,1,.75-1A2.57,2.57,0,0,1,156,13.27Z" transform="translate(0)"/><path class="cls-1" d="M120.26,22.84a2.44,2.44,0,0,1-.75,1A2.44,2.44,0,0,1,120.26,22.84Z" transform="translate(0)"/><path class="cls-1" d="M125.36,17.68a2.51,2.51,0,0,1-.75,1A2.44,2.44,0,0,1,125.36,17.68Z" transform="translate(0)"/><path class="cls-1" d="M150.37,18.94a2.57,2.57,0,0,1,.75-1A2.44,2.44,0,0,1,150.37,18.94Z" transform="translate(0)"/><path class="cls-1" d="M154.48,14.82a2.55,2.55,0,0,1,.77-1A2.4,2.4,0,0,1,154.48,14.82Z" transform="translate(0)"/><path class="cls-1" d="M103.59,39.61a1.23,1.23,0,0,1-.4.75A1.21,1.21,0,0,1,103.59,39.61Z" transform="translate(0)"/><path class="cls-1" d="M151.35,17.94a1.06,1.06,0,0,1,.45-.61A1.06,1.06,0,0,1,151.35,17.94Z" transform="translate(0)"/><path class="cls-1" d="M133.14,10.12a1,1,0,0,1-.4.67C132.73,10.59,132.87,10.38,133.14,10.12Z" transform="translate(0)"/><path class="cls-1" d="M120.9,22.16a1,1,0,0,1-.41.67C120.48,22.63,120.63,22.42,120.9,22.16Z" transform="translate(0)"/><path class="cls-1" d="M159.48,10a1.06,1.06,0,0,1,.45-.61A1.06,1.06,0,0,1,159.48,10Z" transform="translate(0)"/><path class="cls-1" d="M155.48,13.8c0-.12,0-.29.26-.49C155.77,13.43,155.68,13.59,155.48,13.8Z" transform="translate(0)"/><path class="cls-1" d="M158,11.52c-.05-.12,0-.29.28-.48C158.32,11.17,158.23,11.32,158,11.52Z" transform="translate(0)"/><path class="cls-1" d="M142.22,1.11c0,.13-.09.31-.38.53C141.8,1.5,141.93,1.33,142.22,1.11Z" transform="translate(0)"/><path class="cls-1" d="M131.48,11.52c.05.13,0,.3-.26.51C131.17,11.87,131.26,11.71,131.48,11.52Z" transform="translate(0)"/><path class="cls-1" d="M142.73.59c.05.13,0,.3-.28.5C142.39,1,142.48.82,142.73.59Z" transform="translate(0)"/><path class="cls-1" d="M126.4,16.66c0,.13,0,.3-.28.49C126.07,17,126.16,16.86,126.4,16.66Z" transform="translate(0)"/><path class="cls-1" d="M125.89,17.17c0,.13,0,.31-.28.5C125.55,17.58,125.65,17.38,125.89,17.17Z" transform="translate(0)"/><path class="cls-1" d="M137.62,5.69c.06.13,0,.31-.26.51C137.3,6.07,137.39,5.9,137.62,5.69Z" transform="translate(0)"/><path class="cls-1" d="M137.13,6.2a.53.53,0,0,1-.29.51C136.79,6.57,136.89,6.41,137.13,6.2Z" transform="translate(0)"/><path class="cls-1" d="M149.84,19.46c-.05-.12,0-.3.28-.49C150.17,19.1,150.07,19.26,149.84,19.46Z" transform="translate(0)"/><path class="cls-1" d="M103,40.36q.08.21-.27.51C102.63,40.73,102.72,40.57,103,40.36Z" transform="translate(0)"/><path class="cls-1" d="M107.48,35.75c0,.13,0,.31-.27.51A.58.58,0,0,1,107.48,35.75Z" transform="translate(0)"/><path class="cls-1" d="M108.05,35.21a.5.5,0,0,1-.29.48C107.71,35.56,107.81,35.4,108.05,35.21Z" transform="translate(0)"/><path class="cls-1" d="M116.21,27a.51.51,0,0,1-.29.49C115.87,27.32,116,27.16,116.21,27Z" transform="translate(0)"/><path class="cls-1" d="M111.11,32.11a.51.51,0,0,1-.29.49C110.77,32.47,110.87,32.31,111.11,32.11Z" transform="translate(0)"/><path class="cls-1" d="M115.68,27.46c0,.13,0,.31-.27.51C115.35,27.83,115.48,27.68,115.68,27.46Z" transform="translate(0)"/><path class="cls-7" d="M388.81,22.82c0,2.61.08,5-.05,7.35-.19,3.45-1.65,4.81-5.1,5-8,.53-9.29-.67-9.28-8.55V22.3c.18-4,1.57-5.38,5.66-5.53h2.54C387.26,16.82,388.48,17.94,388.81,22.82Z" transform="translate(0)"/><path class="cls-7" d="M414.27,29.12c0-2.52-.07-4.81,0-7.09.17-3.57,1.67-5,5.18-5.27,8-.52,9.24.66,9.23,8.59,0,1.7,0,3.4-.1,5.08-.26,3.12-1.53,4.39-4.6,4.68a32.49,32.49,0,0,1-3.56.08C415.9,35.13,414.63,33.92,414.27,29.12Z" transform="translate(0)"/><path class="cls-7" d="M303.67,56c2.19-2.18,4.48-1.8,5.13,1.18A38.92,38.92,0,0,1,303.67,56Z" transform="translate(0)"/></svg>