<svg id="Layer_1" data-name="Layer 1" xmlns="http://www.w3.org/2000/svg" viewBox="0 0 763.93 1158.7"><defs><style>.cls-1{fill:#fff;}</style></defs><path class="cls-1" d="M577.7,713.4c-.7.6-1.4,1.3-2,1.9,5,6.7,9.8,13.7,15.2,20.2,17.4,20.8,34.4,42,52.9,61.7a149.35,149.35,0,0,0,55.8,37.6c3.4,1.3,7.1,2.7,9-1.9s-1.1-6.8-5-8.3a127.9,127.9,0,0,1-45-28.2c-20.4-20-39.9-41-59.8-61.5-6.9-7.2-14-14.3-21.1-21.5ZM779.5,591.9c12.3-.6,23.1-4.7,31.7-13.6,4.3-4.4,4.3-8.8.1-13-3.9-3.9-7.4-3.5-12.2,1.1-13.3,13.1-29.5,13.2-42.9.3-3-2.9-5.3-6.3-8.2-9.3-1-1-3.1-1.9-4.2-1.5s-2.2,2.4-2.3,3.8a17.41,17.41,0,0,0,.8,6c4.5,14.9,20.7,26.2,37.2,26.2ZM436.2,840.6c-.8.2-1.5.5-2.3.7.6,2.9,1.1,5.8,1.9,8.6,9.1,28.4,16.4,57.2,19.8,86.9,1.1,9.4,2.1,18.9,3.8,28.2.4,2.2,3.3,4,5.1,6,1.6-2.4,4-4.6,4.4-7.2a44.33,44.33,0,0,0-.1-13.6c-5.7-35.8-14.2-70.9-29.7-103.9-.8-1.9-1.9-3.8-2.9-5.7ZM824,494.4c.1-11.6-7.2-21-18.5-23.2-2-.4-4.4.8-6.6,1.3,1,2,1.7,4.3,3,6,2.9,3.7,6.8,6.7,9.2,10.7a11.55,11.55,0,0,1-1.4,14.5,11.1,11.1,0,0,1-13.7,2.7,112,112,0,0,1-14.9-8.8c-4-2.6-7.6-2.5-10.2,1.4-2.5,3.7-2.5,7.7,1.8,10.1,6.1,3.4,12.2,7.2,18.8,9.1,17.5,5.2,32.4-6.1,32.5-23.8ZM465,772.1c-.6.2-1.1.5-1.7.7.5,3.5.7,7.1,1.6,10.5,7,25,14,50.1,21.2,75a190.51,190.51,0,0,0,7,20.5c.8,1.9,3.7,2.9,5.6,4.3.8-2.3,1.7-4.5,2.4-6.8.2-.5-.2-1.2-.3-1.8-6.6-33.2-19.2-64.4-31.5-95.7-.9-2.4-2.8-4.4-4.3-6.7ZM711.2,425.7c1.6,5.5,2.4,10.8,4.6,15.3,4.4,8.9,14.3,9.2,18.9.5,5.5-10.3,5.6-21.1-.3-31.4-4.7-8.2-13.6-8.2-18.1.1-2.5,4.8-3.5,10.4-5.1,15.5Zm114.7.5c1.8,5.4,2.9,11.2,5.7,16.1,4.2,7.4,12.1,7.3,17.1.4,6.1-8.5,6.3-24.4.4-33-5.4-7.9-13.6-7.8-18.1.8-2.4,4.6-3.3,10-5.1,15.7ZM676.1,390.9c.6.6,1.3,1.2,1.9,1.8,1.9-1.1,3.7-2.3,5.6-3.2,9.5-4.5,18.7-9.7,28.6-12.9,6.9-2.2,14.7-1.4,22.1-2.3,4.4-.5,8.9-2,8.8-7.6-.1-5.4-3.7-8-8.8-8.6a16.08,16.08,0,0,0-3.1-.1c-19.9,1-36.1,9.4-49.1,24.2-2.3,2.5-4,5.7-6,8.7ZM824.8,354c-5.5,0-9.2,1.4-10,6.5s1.9,8.3,6.8,9.4c2.6.6,5.4.5,7.9,1.4,11.7,3.9,23.3,8.2,35,12.1,1.7.6,3.8.1,5.8.1-.3-1.9-.3-4-1.1-5.6a21.42,21.42,0,0,0-4.1-5.4c-11.3-11.7-26.2-15.3-40.3-18.5ZM571,480.6c10.3,4.7,18.9,11,24.7,21,.9,1.5,5.4,2.4,7.2,1.6,3-1.4,3.8-4.8,1.3-7.8C595.5,485,585.2,478.5,571,480.6ZM688.8,1082c-.2,3.1-.5,5.8-.8,9.5-12-10.9-18.1-23.7-21.2-37.9-3.3-15.1-6.1-30.3-9.1-45.5,29.6-18.4,57-39.7,81.2-65,3.1-3.3,6.1-6.8,9-10.3,6.7-8.2,14.5-14.8,25.1-17.3,8.2-2,13.7-6.9,17.2-14.7,4.1-9,6.3-10.4,16-9,11.9,1.8,23,1.3,33.1-6.2,2.2-1.6,5.7-1.4,8.7-2,.1,6.4-5.3,13.3-10.4,14.3-9.7,2-12.1,4.9-12,15.2-19.6,8.5-35.8,24.2-58.5,26.9.2.8.4,1.7.6,2.5,5.1-.4,10.3-.8,15.4-1.3q42.6-4.2,85.3-8.3c6.2-.6,12.5-1.3,18.6-.8,3.4.3,8.1,2.3,9.5,5,2.4,4.5-.4,9.6-4.8,11.4-8.1,3.3-16.6,6.4-25.2,7.8-21.4,3.5-43,5.8-64.5,9-5.3.8-10.3,2.9-15.4,4.6-4.4,1.4-8,3.4-3.7,8.9-4.9,1.5-9.2,2.8-13.5,4.1.1.4.1.8.2,1.2,5.5-.6,11-1.4,16.5-1.9a165.35,165.35,0,0,1,52.5,3.3c5.2,1.1,9.7,2.8,12.5,8.8,2.6,5.6.2,8.1-3.7,9.5a64.5,64.5,0,0,1-15.2,2.6c-10.9,1-21.9,1.6-32.9,2.2-3.7.2-7,1.2-6.8,5.4.2,4.7,4,4.5,7.4,4.2,10.7-1,21.4-2,32.2-2.8,7.3-.6,11.3,5.1,7.3,11.2-2.6,4-7.2,8-11.7,9.2-7.2,2.1-15.1,1.9-22.6,2.7a24.31,24.31,0,0,0-8.9,2.5c6,6.6,13.5,3.2,20.8,4.2-.8,1.2-1.2,2.5-2.2,3.3-9.8,8.5-19.3,17.5-29.7,25.2-13.4,10-29,10.6-45.1,9.3-14.4-1.2-29-1.4-43.5-1.9-2.8-.2-5.6.7-7.7.9Zm226.5-10.4c13.1-.2,24.7,3,35.4,10.2,9.3,6.3,19.2,11.4,31.1,3.7.6,23.1,13,41.5,20.2,61.6,1.4,3.9,4.6,4.2,7.5,3.1,3.4-1.3,5.1-3.9,3.2-7.9-5.2-11-10.3-22.1-15.5-33.2-1.3-2.8-2.9-5.5-3.8-8.5-2.1-7.1-6.9-15.2-5-21.2,2.9-9.5,10.4-17.5,16-26.2.5-.8,1.6-1.2,3.2-2.2,1.3,10.5,2.1,20.3,3.7,30,2.6,16.9,5.4,33.9,8.6,50.7,4.7,24.5,8.4,49.1,6.4,74-2.2,28-11.8,52.8-34.2,71.3a63.89,63.89,0,0,1-34.9,14.7c-10.9,1.1-19.2-4.1-27.1-10.2-1.2-.9-1.3-3.8-1.2-5.7.4-18.2,1.1-36.5,1.4-54.7.7-35.3-2.6-70.3-7.8-105.2-2.2-14.7-4.8-29.3-7.2-44.3Zm-26.4-88.1c7.8,1.3,15.4,2.6,24.5,4.1-8.5,5.5-14.2,11.1-12.5,20.4,1.3,7,7.5,8.5,14.6,10.4-5.1,1.5-9,2.8-12.9,3.8a3.24,3.24,0,0,1-2.8-.8c-7.6-8.3-15.7-23.4-10.9-37.9Zm14-65.6c1.1.3,3.5.2,5,1.3,1.3.9,1.7,3.2,2.6,4.8-1.5.7-3,1.9-4.6,2a14.11,14.11,0,0,1-6.1-.8c-2-.7-3.7-2.1-5.5-3.2a65.4,65.4,0,0,1,5.2-4,26.56,26.56,0,0,1,3.4-.1Zm27.8,5.6c-2.7,1.5-4.3,3.1-5.8,3.1-1.3,0-2.5-2-3.7-3.1,1.3-1.4,2.5-3.7,3.9-3.8S928.1,921.6,930.7,923.5Z" transform="translate(-275.68 -157.1)"/><path d="M654.6,1013.7c-16.2,6.8-32.2,13.8-48.5,20.2-38.4,15.3-76.8,30.6-115.4,45.4-41.4,15.9-83.1,31.1-124.7,46.6-9.4,3.5-18.5,7.2-23.3,17.1-.5-.3-1-.7-1.5-1,1.7-3.1,2.8-6.8,5.2-9.1,4-3.8,8.5-7.5,13.4-9.7,26.6-11.8,53.4-23.3,80.2-34.6,6.4-2.7,10.8-5,12.8-13.1,3.9-16,10.1-31.4,15.3-47.1,2.4-7.3,4.6-14.6,7-21.8a72.2,72.2,0,0,1,3.6-8c.8.2,1.5.5,2.3.7-5.8,26.2-11.7,52.3-17.8,79.7,19.2-7.7,36.9-14.9,54.7-22q63-25.05,126.2-49.9c7.3-2.9,9.7-1.1,10.1,6.9a1.87,1.87,0,0,0,.4-.3ZM577.7,713.4c7,7.2,14.1,14.3,21.1,21.6,19.9,20.5,39.4,41.5,59.8,61.5a126.49,126.49,0,0,0,45,28.2c3.9,1.4,6.9,3.6,5,8.3s-5.5,3.2-9,1.9a149.35,149.35,0,0,1-55.8-37.6c-18.5-19.8-35.5-41-52.9-61.7-5.4-6.4-10.2-13.4-15.2-20.2l2-2ZM779.5,591.9c-16.5,0-32.7-11.4-37.1-26.1a15.55,15.55,0,0,1-.8-6c.1-1.4,1.2-3.4,2.3-3.8s3.2.5,4.2,1.5c2.9,2.9,5.3,6.4,8.2,9.3,13.4,13,29.6,12.8,42.9-.3,4.7-4.6,8.3-5,12.2-1.1,4.1,4.1,4.2,8.5-.1,13-8.7,8.8-19.5,12.9-31.8,13.5ZM436.2,840.6c1,1.9,2.1,3.8,3,5.8,15.6,33,24,68.1,29.7,103.9a47.67,47.67,0,0,1,.1,13.6c-.4,2.6-2.9,4.8-4.4,7.2-1.8-2-4.6-3.8-5.1-6-1.7-9.3-2.8-18.8-3.8-28.2-3.3-29.7-10.6-58.5-19.8-86.9a82.27,82.27,0,0,1-1.9-8.6,8.26,8.26,0,0,1,2.2-.8ZM824,494.4c-.2,17.6-15,28.9-32.3,23.8-6.6-1.9-12.7-5.8-18.8-9.1-4.4-2.4-4.3-6.4-1.8-10.1,2.7-4,6.2-4.1,10.2-1.4a112,112,0,0,0,14.9,8.8,11.36,11.36,0,0,0,13.7-2.7,11.8,11.8,0,0,0,1.4-14.5c-2.4-4-6.3-7-9.2-10.7-1.4-1.7-2-4-3-6,2.2-.5,4.5-1.7,6.6-1.3,11.2,2.3,18.4,11.6,18.3,23.2ZM465,772.1c1.5,2.3,3.4,4.3,4.4,6.8,12.3,31.3,24.9,62.5,31.5,95.7a6.15,6.15,0,0,1,.3,1.8c-.7,2.3-1.6,4.5-2.4,6.8-1.9-1.4-4.9-2.4-5.6-4.3a215.27,215.27,0,0,1-7-20.5c-7.2-25-14.2-50-21.2-75-.9-3.4-1.1-7-1.6-10.5a8,8,0,0,1,1.6-.8ZM711.2,425.7c1.6-5.1,2.6-10.7,5.2-15.5,4.4-8.3,13.4-8.3,18.1-.1,5.9,10.3,5.8,21.1.3,31.4-4.6,8.7-14.5,8.5-18.9-.5-2.4-4.5-3.1-9.7-4.7-15.3Zm114.7.5c1.8-5.7,2.7-11.1,5.1-15.7,4.4-8.5,12.7-8.7,18.1-.8,5.9,8.6,5.7,24.5-.4,33-5,6.9-12.9,7-17.1-.4-2.7-4.8-3.8-10.6-5.7-16.1ZM676.1,390.9c2-3,3.6-6.2,5.9-8.8,13-14.8,29.2-23.3,49.1-24.2,1,0,2.1,0,3.1.1,5.1.7,8.7,3.2,8.8,8.6.1,5.7-4.4,7.1-8.8,7.6-7.4.9-15.2.1-22.1,2.3-9.9,3.2-19.1,8.5-28.6,12.9-1.9.9-3.7,2.1-5.6,3.2a14.88,14.88,0,0,0-1.8-1.7ZM824.8,354c14.2,3.2,29,6.7,40.3,18.4a21.42,21.42,0,0,1,4.1,5.4c.8,1.7.8,3.7,1.1,5.6-1.9,0-4,.5-5.8-.1-11.7-3.9-23.3-8.2-35-12.1-2.5-.8-5.3-.8-7.9-1.4-4.9-1.1-7.6-4.2-6.8-9.4.8-5,4.5-6.3,10-6.4ZM571,480.6c14.2-2.2,24.6,4.4,33.1,14.8,2.6,3.1,1.7,6.4-1.3,7.8-1.8.9-6.3-.1-7.2-1.6C589.8,491.7,581.3,485.4,571,480.6Z" transform="translate(-275.68 -157.1)"/><path d="M1034.3,1142.9c-6.3-37.2-14.8-73.9-17.2-111.7-.5-8.1,1-14.4,6.9-20.2,7.8-7.7,7.9-13.2,2.2-22.7-3.6-6-6.9-12.3-10.3-18.4-2.7,2.9-1.9,6.9-.1,10.6,1.9,3.9,4.3,7.5,6.4,11.4,3,5.6,2.9,11-2.3,15.1-8.7,6.8-11.1,15.3-9.3,25.9,1,5.5-1.1,9.5-6.2,13-5.4,3.8-9.9,9.1-14,14.4-3.3,4.2-5.3,9.4-8.2,13.9-4.5,7-11.5,9.6-19.4,6.9-4.6-1.6-8.8-4.6-13.4-6.5-7.8-3.1-15.6-6.2-23.6-8.5-6.5-1.9-13.5-2.3-19.9-4.4-8.1-2.6-11.1-8.7-9.5-14.9,8.8,0,17.2.1,25.6,0,18.4-.4,36.8-.9,55.2-1.6,1.9-.1,3.6-2.2,5.5-3.3-2.1-.9-4.2-2.5-6.3-2.5-7.7,0-15.3.9-23,.9-16.6.1-33.1,0-49.7-.5-2.8-.1-5.4-2.9-8.1-4.4,2.1-2.5,3.8-6.3,6.5-7.3,12.6-4.6,25.2-8.9,39-9.5,14.2-.6,28.4-2.9,42.5-4.9,3.2-.5,6.2-2.8,9.3-4.2-3-4.9-7.1-1.5-10.4-1-22.6,3.4-45.3,5.3-68.1,3.2-2.5-.2-6.2-2.1-6.8-4-.8-2.4,0-6.6,1.8-8.4a44,44,0,0,1,12-8.4c21.9-10.3,45.3-15,70.7-16.9-2.2-1.5-3.3-2.3-4.8-3.4,5.7-2.1,11.1-3.9,16.4-6.2,1.6-.7,2.6-2.6,3.9-4-1.4-1.2-2.6-3.1-4.2-3.6a35,35,0,0,0-8.6-1.2c-7.2-.5-14.5-.6-21.7-1.3-6.1-.6-7.4-3.9-3.5-8.7a21.21,21.21,0,0,1,18-8.4,223.71,223.71,0,0,1,28.2,3.4c4.9.8,9.6,3.1,10.6,9,1,6.1-2.7,9.7-7.1,12.8-2.7,1.9-5.6,3.6-8.4,5.4a13.16,13.16,0,0,0,7.7-.4c10.2-3.4,15.7-9.8,15.6-17.8s-6-14.4-16.2-17.3c-4.7-1.3-9.5-2.3-14.2-3.4,0-3.1.4-5.9-.1-8.5-3.2-20-6.1-40.1-9.9-60-9.6-49.9-32.8-92.1-72.7-124.3-5.6-4.5-11.4-8.8-16.4-12.6,0-5.3-.5-9.7.1-14,2.4-16.9-2.2-25.1-17.4-33a33.09,33.09,0,0,1-12.1-10.8c-4.6-7-10.1-12.8-17.7-16-8-3.5-16.4-6-24.9-9,.5-.4,1.1-1,1.7-1.4,37.7-22,60.2-54.5,66.1-97.7,6.6-47.8,8-95.8,1.3-143.7-4.7-33.4-11.5-53-14.6-78.3,2.3-4.1,1.9-9.7,2.9-14.5,6.4-.5,12.5-.8,18.6-1.6,14.6-1.8,24.4-9.9,27.1-22.4.8-3.7.5-7.7.7-10.8,7.3-4.1,14.6-7.6,21.2-12.1,11.2-7.7,12.3-15.4,1.9-24.3A16,16,0,0,1,958,232a60.36,60.36,0,0,0,6.6-3.9c18.9-13.4,13.2-32.3-1.5-40.3a70.16,70.16,0,0,0-8.3-4c-57.3-22.8-116.7-31.1-178.1-24.5-72.6,7.8-137.4,33.8-192.2,82.9a11.17,11.17,0,0,1-8.1,2.4c-20.7-2.8-36.1,15.7-29.5,35.4a7.42,7.42,0,0,1-.2,5.1c-5.2,8.6-4.9,15.7,1.3,23.5,2.3,2.9,4.8,5.6,7.1,8.4,3.5,4.1,3.4,8.3.4,12.7-11.1,16.2-15.3,34.4-15.5,53.8-.2,23.1,5.5,45.2,10.4,67.5h.1l-.1.1c-19.6,16.7-22,39.2-15,57.2,10,26,31,33.7,57.4,31.6,4.3,26.3,18.8,46.2,38.3,63,.8.7,1.9,2.2,1.7,2.9-3.2,11-6.6,21.9-10.1,33.3-3.2-2-4.9-3.2-6.7-4.1-11.5-5.7-22.5-12.5-34.5-16.8-20.8-7.3-37.3-1-49.5,17-1.3,1.9-2.8,3.6-3.9,5.6-2.7,4.4-6.6,5.8-11.6,5.8a105.56,105.56,0,0,0-14.9.4c-19.6,2.4-37.8,8-51.2,23.6-10.2,11.8-12.1,33.9-4.1,46-.6.5-1.2,1-1.9,1.5-27.3,17.1-47.6,41-64.4,68-33.3,53.6-59.3,110.5-77,171.1-22.3,76.1-33.1,153.5-24.2,232.8,3.3,29.1,11.4,56.9,26.2,82.3,3.5,6,8.3,11.3,13.3,16.2,2.4,2.3,6.5,2.8,9.7,4.3,5.9,2.8,11.4,6.8,17.6,8.6,17.7,5.2,34.6.8,50.5-6.8,27.4-13.1,54.9-26.2,81.5-40.8,71.6-39.2,139.4-84,201.3-137.4,3.1-2.7,5.8-4.8,10.3-2.2,1.4.8,4.3-.4,6.3-1.3,1.8-.8,3.1-2.7,4.9-3.6,7.9-4,9.7-9.6,5.5-17.2-.7-1.4-1.4-2.8-2.6-4.9,12,1.2,23.2,1.7,34.2,3.6,24.2,4.2,45.6-1.3,64.4-17.1,10.4-8.7,21.5-17,26.8-30.3.4-1.1,2.1-1.7,3.4-2.3,12-6.4,14.6-14.1,8.7-26.2,20-4.9,21.9-14,18.7-25.9,7.7-1.7,15.4-3.4,23.8-5.2-3,16.8-.8,31,10.7,43-3.7,3.8-6.2,7.9-3.6,13.3.3.5-.5,1.5-.7,2.3-3,10.4-.7,19.8,9.1,23.5,10.4,3.9,11.9,10.5,12.7,19.8,2.1,23.3,5.4,46.5,7.7,69.8,3.4,34.1,2.2,68.3.3,102.5-.8,15.3.4,30.6,1.1,46,.4,7.7,3.5,10.4,11.5,11.8-.6-4-1.2-7.9-1.9-12.2,28.5,10.5,52.1,2.2,73.1-16.2,16.5-14.6,26.2-33.5,31.7-54.6,7.9-30.3,4.3-60.2-.7-89.9ZM924.9,926.6c-1.3,0-2.5-2-3.7-3.1,1.3-1.4,2.5-3.7,3.9-3.8s3,2,5.6,3.9C928,925,926.5,926.6,924.9,926.6ZM593.7,1167.5c-61.7,45.1-128.2,82-197.1,114.7-15,7.1-30.6,13.1-47.7,11.6-4.5-.4-9.3-1.1-13.1-3.3s-6.8-6-9.8-9.5c-1.8-2.2-2.6-5.2-4.2-7.6-24.6-36.9-32.8-78.3-33.4-121.7-1.5-121.2,29.6-233.9,90.1-338.5a440.33,440.33,0,0,1,33.8-49.8c22.3-28.6,53.1-45.7,86.1-59.1,19.2-7.8,38.5-15.2,57.7-22.9a12.86,12.86,0,0,0,5.1-3.7c-34.9,3.5-67.5,14.4-98.7,29.7-7-7.8-4.2-23.4,5.7-31.1,10.6-8.2,22.9-12.2,35.9-14.7a41.2,41.2,0,0,1,10.5-1.1c13,.7,21.7-5.1,27.3-16.6,6-12.4,16.2-17.8,29.7-17.2,4.3.2,8.8.2,12.9,1.4,12.3,3.5,24.3,7.6,37.4,11.7-4.5,8.7-8.2,16-11.9,23.3-6.3-3-11.9-5.6-17.6-8.3a7.46,7.46,0,0,1-.7,1.2c4.4,3.5,9.2,6.6,13.1,10.6q41,43.35,81.6,87.1c10,10.8,19.8,21.8,29.9,32.5,9.7,10.2,17.7,10.3,27.4.2a659.92,659.92,0,0,0,80.8-103.8,36.07,36.07,0,0,0,4-9.7,5.36,5.36,0,0,0-1.7-4.7,5.52,5.52,0,0,0-5,.5,41.21,41.21,0,0,0-7,8.6,653.66,653.66,0,0,1-77.7,100.8c-6.6,7-7.3,6.8-14-.2-28.9-30.3-57.8-60.5-87-90.6-7.2-7.4-15.3-13.9-23.6-21.4,6.3-6.2,13.7-11.4,18.4-18.4,7.6-11.2,13.5-23.6,19.9-35.6.7-1.3,1.3-3.7.6-4.6-5.9-7.3-11.5-15-18.2-21.5-14-13.5-24.1-29.4-32.2-46.8-.7-1.4.6-3.8,1.1-5.8.7-2.8,3-6.4,2-8.1-1.1-1.9-5.2-2.9-7.9-2.8-7.2.1-14.6,2.5-21.5,1.4-14.6-2.3-24.1-11.6-27.1-26.3-3.4-16.3,2.4-29.5,15.7-39a47.67,47.67,0,0,1,18-7.9c7.7-1.7,14.3,2.4,19.4,8.3,4.2,4.8,6.5,5,8.6-1.1,2.2-6.5,2.9-13.6,3.9-20.5.4-2.6-.3-5.4-.6-8-.6-5.5-1.1-11.7-1.6-17.4-.3-7-.6-14.1-.9-21.1-.5-11.1.2-12,10.5-15.2,3-.9,5.9-1.8,8.8-2.9,13.6-5.6,18.6-15.3,15.3-29.7-1.1-4.7-2.6-9.3-4.1-13.9-4.4-13.6-2.6-26.6,3.6-39.3,2-4.1,4.2-4.9,8.5-3.8,30.2,7.8,61,12.1,92,14.6a466.15,466.15,0,0,0,119.1-5.6,8.51,8.51,0,0,1,4.2.8c.5,3,1,6,1.6,8.9a116.7,116.7,0,0,0,3.5,14.4c7.1,26.2,17.5,51.5,20.4,85.2,2.7,30.5,1.5,60.9-2.5,91.2-2.8,21-4.6,42.6-10.9,62.7-22.6,72.5-104.7,101-170.3,60.4-1.9-1.2-3.8-2.5-5.7-3.7-5-3.1-9.9-2.2-13.1,2.2-3.3,4.6-2.5,9.3,2.4,12.9,28,20.6,59.4,28.5,93.8,24.8,1.2-.1,2.5-.3,3.7-.4a7.89,7.89,0,0,1,1.3.3c1.4,6.4,2.6,12.9,4.4,19.2,1.9,6.5,6.5,10.2,10.1,8.9,3.9-1.5,4.7-6.7,1.9-13.3-2.3-5.5-4.5-11-6.8-16.6,9.7-4.7,18.7-6.5,28.3-2.9,7.2,2.7,14.8,4.5,21.4,8.2a43.25,43.25,0,0,1,13.8,12.8c4.8,7,10.1,12.8,18,16.4,9.1,4.1,11.2,8.5,10,18.3-.4,2.8-1,5.6-1.6,8.9-6.3-3.7-12.3-7.3-18.5-10.9,1.2-1.9,2.2-3.4,3.2-4.9,2.5-3.4,3.3-7-.3-9.9s-6.7-.3-9.1,2.3c-3.3,3.4-6.1,7.4-9.5,10.7-21.4,20.1-43,40.1-64.5,60.1-16.6,15.4-32.5,31.5-42.7,52.1-.8,1.7-1.6,3.4-2.3,5.1a10.86,10.86,0,0,0,0,1.9,16.37,16.37,0,0,0,2.2-1.8c15.1-20.5,33.2-38.1,52.7-54.3,23-19.2,45.9-38.3,69.6-58.1,8,6.6,17.3,14.1,26.5,21.7,19.3,16,38.2,32.4,53.1,53,15.3,21.1,23.7,44.8,28.4,70.1,4.1,22.2,8.3,44.4,12.4,66.5.1.8,0,1.6,0,3.3-8.3-6.3-17.2-8.1-27.1-7.2-3.8.4-8.9-1-9.4-7.4-.5-6-4.7-10-10.4-10.8a48.38,48.38,0,0,0-17.8.2c-2.2.5-3.3,5.8-3.7,9.7a4.81,4.81,0,0,1-1.6.8c-18.6.5-37.3,1.1-55.9,1.5a6.28,6.28,0,0,1-4.2-1.4c-3.3-3-6.4-6.4-10.1-10.2-.4.8-.2.3.1-.1,5.5-7.2,6.1-11.2,2.3-16.2-3.3-4.4-10.4-5.5-17.1-2.6a7.56,7.56,0,0,0-2.2,1.1c-8,6.7-17.1,7-26.9,5.6-14.9-2.1-18.4-.1-24.9,13.3-2.4,5-5.8,8.7-11.2,9.9-12.3,2.8-21.7,9.8-29.5,19.4-19.4,23.8-42.6,43.4-66.6,62.3-3.4,2.7-6.7,5.5-10,8.3-5.3,4.5-10.6,8.9-11.8,16.4l.2-.2c-.9,9.9-2,19.8-2.6,29.6-1.4,21.6,5.9,40.3,19.5,56.8,1.3,1.6,2.6,3.2,4.5,5.5-28.2,20.7-55.2,41.6-82.8,61.8ZM910.5,924.1c-1.5.7-3,1.9-4.6,2a14.11,14.11,0,0,1-6.1-.8c-2-.7-3.7-2.1-5.5-3.2a65.4,65.4,0,0,1,5.2-4c.6-.4,1.6-.1,3.4-.3,1.1.3,3.5.2,5,1.3,1.3,1.1,1.7,3.3,2.6,5Zm-43.8,32.2c-21.4,3.5-43,5.8-64.5,9-5.3.8-10.3,2.9-15.4,4.6-4.4,1.4-8,3.4-3.7,8.9-4.9,1.5-9.2,2.8-13.5,4.1.1.4.1.8.2,1.2,5.5-.6,11-1.4,16.5-1.9a165.35,165.35,0,0,1,52.5,3.3c5.2,1.1,9.7,2.8,12.5,8.8,2.6,5.6.2,8.1-3.7,9.5a64.5,64.5,0,0,1-15.2,2.6c-10.9,1-21.9,1.6-32.9,2.2-3.7.2-7,1.2-6.8,5.4.2,4.7,4,4.5,7.4,4.2,10.7-1,21.4-2,32.2-2.8,7.3-.6,11.3,5.1,7.3,11.2-2.6,4-7.2,8-11.7,9.2-7.2,2.1-15.1,1.9-22.6,2.7a24.31,24.31,0,0,0-8.9,2.5c6,6.6,13.5,3.2,20.8,4.2-.8,1.2-1.2,2.5-2.2,3.3-9.8,8.5-19.3,17.5-29.7,25.2-13.4,10-29,10.6-45.1,9.3-14.4-1.2-29-1.4-43.5-1.9-2.8-.1-5.7.7-7.8,1-.2,3.1-.5,5.8-.8,9.5-12-10.9-18.1-23.7-21.2-37.9-3.3-15.1-6.1-30.3-9.1-45.5,29.6-18.4,57-39.7,81.2-65,3.1-3.3,6.1-6.8,9-10.3,6.7-8.2,14.5-14.8,25.1-17.3,8.2-2,13.7-6.9,17.2-14.7,4.1-9,6.3-10.4,16-9,11.9,1.8,23,1.3,33.1-6.2,2.2-1.6,5.7-1.4,8.7-2,.1,6.4-5.3,13.3-10.4,14.3-9.7,2-12.1,4.9-12,15.2-19.6,8.5-35.8,24.2-58.5,26.9.2.8.4,1.7.6,2.5,5.1-.4,10.3-.8,15.4-1.3q42.6-4.2,85.3-8.3c6.2-.6,12.5-1.3,18.6-.8,3.4.3,8.1,2.3,9.5,5,2.4,4.5-.4,9.6-4.8,11.4-8,3.2-16.5,6.3-25.1,7.7Zm22.2,27.2c7.8,1.3,15.4,2.6,24.5,4.1-8.5,5.5-14.2,11.1-12.5,20.4,1.3,7,7.5,8.5,14.6,10.4-5.1,1.5-9,2.8-12.9,3.8a3.24,3.24,0,0,1-2.8-.8c-7.6-8.3-15.7-23.4-10.9-37.9Zm137.4,222.4c-2.2,28-11.8,52.8-34.2,71.3a63.89,63.89,0,0,1-34.9,14.7c-10.9,1.1-19.2-4.1-27.1-10.2-1.2-.9-1.3-3.8-1.2-5.7.4-18.2,1.1-36.5,1.4-54.7.7-35.3-2.6-70.3-7.8-105.2-2.2-14.7-4.8-29.4-7.2-44.3,13.1-.2,24.7,3,35.4,10.2,9.3,6.3,19.2,11.4,31.1,3.7.6,23.1,13,41.5,20.2,61.6,1.4,3.9,4.6,4.2,7.5,3.1,3.4-1.3,5.1-3.9,3.2-7.9-5.2-11-10.3-22.1-15.5-33.2-1.3-2.8-2.9-5.5-3.8-8.5-2.1-7.1-6.9-15.2-5-21.2,2.9-9.5,10.4-17.5,16-26.2.5-.8,1.6-1.2,3.2-2.2,1.3,10.5,2.1,20.3,3.7,30,2.6,16.9,5.4,33.9,8.6,50.7,4.7,24.4,8.4,49,6.4,74Z" transform="translate(-275.68 -157.1)"/></svg>