<svg id="a" xmlns="http://www.w3.org/2000/svg" viewBox="0 0 786.09 1148.42"><defs><style>.cls-1{fill:#fff;}</style></defs><path class="cls-1" d="M1043.65,1079.78c3.17-6.28,6.94-13.12,10.11-20.24,3.64-8.17,3.75-16-4-22.32-3.37-2.75-2.91-5.73-.83-9.26,7-11.88,6.37-14.63-4.43-23.25-6.12-4.88-9-10.56-6.85-18.79,3.28-12.59-1.7-26.06-10.29-31.69,15.4-34,30.8-67.91,46-101.86,4.08-9.06,3.38-10.47-6.76-11.55-22.09-2.37-44.22-4.53-66.37-6.2-5.86-.44-9.7-2.19-12-7.55-2.49-5.86-4.86-11.82-7.85-17.44-4.22-7.93-8-16.35-13.66-23.18-10.17-12.3-10.62-11.78-23-2-1.42,1.11-4.18.53-6.32.74.52-2.13.44-4.75,1.69-6.29,2.24-2.76,5.27-4.88,9.43-8.56-24.95-12.34-48.76-23.94-72.38-35.89-9.18-4.64-20.06-5.5-25.94-17.13-3.18-6.28-8.71-11.86-11.28-19.06-5-14.11-11.29-18.26-26.32-17.88q-1.8-12.06-3.62-24.22a10.63,10.63,0,0,1,1.76-.69c31.85-6.16,57-22.84,76.13-48.78,18.12-24.6,24.55-53,24.08-82.82-.62-39.12-2.78-78.23-4.47-117.33-.46-10.65-1.61-21.27-2.45-32.07,8.06-1.64,11.19-7.31,12.51-14.5,3-16.52-.37-31.43-11.36-44.37a51.72,51.72,0,0,0,11.11-32.33c.11-8.37-2.2-14.58-10.55-16.37-.59-4.1-.16-8.3-1.92-11.13-1.6-2.56-5.58-3.64-8.6-5.42,2.91-7.41,1-12.58-5.82-13.07-30.24-2.2-57.71-14.15-85.61-24.31a113.89,113.89,0,0,0-33-6.88c-26.46-1.49-52.14,3.17-77.45,10.16-32.1,8.87-63.35,20-90.26,40.28-6.69,5.06-12.15,8.45-21.25,5.91-9.53-2.65-15.25,3.29-15.82,13.37a6.81,6.81,0,0,1-1.95,4.06c-8.67,8.68-9,11.23-2,20.63-.49.89-1,1.8-1.49,2.68-18.18,29.79-27.22,62.14-26.18,97,.54,18.23,2.94,36.2,15.45,51,.92,1.09.58,3.7.14,5.43-2.58,10.14-6.34,20.09-7.88,30.37-3,20.25,2.4,45,30.81,52.53-1.6,2.88-4,5.59-4.55,8.64s-.44,7.48,1.37,9.64,6,2,9.14,2.71c1.66.38,4.15-.2,4.95.75,5.1,6.06,10.94,5.37,17.42,2.08,6.12,13.87,16.83,23.58,27,33.8,5.64,5.66,10.53,12.07,15.78,18.13,2.69,3.11,5.17,6.45,8.2,9.19,3.64,3.3,7.83,2.09,7.95-2.64s-.4-10.82-3.12-14.45a139.86,139.86,0,0,0-20.22-21.49c-12.06-10.47-23.44-21.36-31.57-35.27-3.38-5.78-6.83-11.5-10.25-17.25-1.43-.23-1-1.12-.67-2,2.87-7.2,1.14-9.68-6.8-9.73a16.73,16.73,0,0,0-4.31.08c-13.74,3.61-22.71-7.89-24.7-18.26-3.38-17.59,1.87-33.82,8.55-49.65,2.38-5.66,8.13-8.08,13.44-5.87,7,2.92,13.54,7.3,19.75,11.78,3.94,2.84,6.69,7.27,10.38,10.51,4.45,3.89,9.29,2.17,10.75-3.55a24.16,24.16,0,0,0,.41-5.52c.3-32.78,5.08-64.79,15.67-95.9,1.87-5.48,4.72-8.36,10.48-9.76,21.74-5.32,43.35-11.18,65-16.79.44-.12,1,.25,1.8.48-1.65,2.91-3.21,5.55-4.66,8.26-3.3,6.17-.86,11.74,6.06,12.8a39.32,39.32,0,0,0,11.66-.19c22.85-3.47,45.18-8.89,66.39-18.41,6.74-3,13.61-5.19,21.42-4.27,16.82,2,33.39-.44,49.23-6.06,7.28-2.58,12.62-3.15,16.86,4.31.95,1.67,3.42,2.41,4.62,4,1.57,2.11,3.54,4.59,3.67,7,2.14,38.47,4.79,76.94,5.69,115.46.67,28.36,1.28,57.06-2.15,85.12-7.37,60.27-65.16,100.18-124.94,88.44-11.09-2.18-22-5.23-33.1-7.39-2.13-.42-5.88.83-6.74,2.45s-.23,5.87,1.29,7.16c5.41,4.6,11,9.73,17.4,12.24a102.46,102.46,0,0,0,26.93,6.18c10.28,1,20.74.23,30.87.23-.77,4.86-1.64,9.08-2.07,13.34a98.23,98.23,0,0,0-.56,12.94c.42,13.69.29,14-13.41,17.22a61.49,61.49,0,0,1-6.05,1.16c-18,2.42-35.75.15-53.48-2.72-25.36-4.12-50.11-9.69-70.79-26.58-4.16-3.39-6-5.86-4.56-11.49,1.93-7.44,2-15.22-3.18-22.51-1.69,7.85-3.38,15.7-5.23,24.26-4.95-3.42-7.15-.6-9.63,2.55A90.3,90.3,0,0,1,626,676.14c-12.52,11.24-28.24,14.73-44.16,17.4-35.47,6-71,11.49-105.43,22.36-36.9,11.65-70.39,29-96.31,58.71-1.8,2.06-3.44,4.26-5.52,6.84,4.79,1.17,8.69,1.73,12.25,3.18,1.31.53,1.78,3.12,2.63,4.77-1.47.73-3,2.14-4.42,2.06a34.22,34.22,0,0,1-9.05-1.81c-5.47-1.87-8.79.06-11.42,5-2.43,4.52-5.7,8.58-8.29,13A486.07,486.07,0,0,0,296.52,974c-1.16,6.94-2,13.93-3.17,22,4.11-2.09,6.7-3.93,9.58-4.7,1.7-.45,3.86.77,5.81,1.23-.76,1.68-1.07,3.95-2.36,4.91-3,2.18-6.81,3.26-9.5,5.67-2.32,2.08-4.81,5.27-5.06,8.17a559.13,559.13,0,0,0,9.73,164.1c6.77,32.54,15.91,64.39,32.5,93.5,13.53,23.73,30.46,44.23,57.29,53.74,9.83,3.48,17,7.83,15.43,20-.48,3.58.85,7.44,6.14,7.4,15-.1,30.06,0,46.06,0-1.56-4.63-3.1-7.84-3.58-11.2-.24-1.66,1.46-3.59,2.29-5.4,1.53,1,3.62,1.66,4.47,3.08a28.67,28.67,0,0,1,2.66,7.53c.92,3.53,2.75,4.86,6.62,4.7,20-.86,39.94-1.67,59.92-2,80.35-1.34,160.7-2.67,241.06-3.53,9.23-.1,17,.16,20-10.7.32-1.15,3.4-1.54,5.2-2.29.35,2,1.29,4.08.9,5.91-.52,2.47-2.07,4.73-3.39,7.55,2.11.24,3.49.41,4.87.55,22.73,2.29,45.5,4.17,68.17,7,24,3,48,4.7,72,.48,2.45-.44,5.57-1.57,6.82-3.43,4.42-6.63,10.93-8,18.06-9,7.71-1.11,15.72-1.88,22.9-4.62,31.08-11.86,43.43-40,58.15-67.87-7.71-1.21-14.33-2.3-21-3.29-3-.44-6.42-1-5.48-4.77.33-1.34,4.26-2.75,6.37-2.52,7.67.82,15.26,2.34,23.06,3.62,1.36-3.62,2.85-7,3.89-10.54,1.74-5.92,3.19-11.92,4.75-17.89,12.62-48.36,10.17-95.83-8.58-142.28-1.31-3.22-3.52-6.08-5.43-9.3ZM779.23,575.45l.36-1.57c15.59-.13,31-1.85,44.92-9.26,6-3.17,11.88-7.81,15.74-13.26,6.39-9,2.23-16-8.74-16.07q-37.41-.21-74.8,0c-8,0-16.07.28-24.07.88-6.65.49-8,2.93-6.18,9.51,3.08,11.29,10.77,18.84,21.23,22.46,10.14,3.52,21,5,31.54,7.31Zm9.71-104.71.44,2.11c3.55-.43,7.09-1.08,10.65-1.23,4.48-.18,9.19-.77,13.38.36,2.81.76,6.35,3.91,6.88,6.54s-1.34,7.07-3.62,8.9c-5.63,4.55-12.34,6.61-19.51,3.1-4.24-2.07-7.11-.31-9.15,3.19-3.65,6.24-.5,13.32,6.76,15.63,18.12,5.77,40.11-13.16,37-31.87-1.37-8.26-5.52-13.47-12.88-14.7C807.73,460.91,797.92,464.59,788.94,470.74Zm27-61.36c2.66-.44,4.45-.76,6.25-1,15.3-2.31,28.19,4.89,34.23,18.86a26.23,26.23,0,0,0,5.12,8.23c3.84,3.81,10.13,3.2,13.83-.68s3.42-8.07-.28-12.67a39.62,39.62,0,0,1-3.92-6.13,37.2,37.2,0,0,0-22-18.61c-13.42-4.32-25.91-.05-33.24,12Zm-119,40.36c4.58-8.71,8.21-16.29,12.45-23.52,5.37-9.12,13.36-13.68,24.25-12.35a56,56,0,0,0,9.22.62c6.51-.28,9.42-5.66,6.21-11.27s-8.38-7.91-14.51-7.64C711.52,396.57,690.75,425.35,696.91,449.74Zm19.63,20.67c2.47-3.93,4.65-7.55,7-11.07,4.88-7.31,14.17-6.9,18.53.78.91,1.6,1.47,3.52,2.7,4.8,3.07,3.2,6.86,4.08,10.29.84,3.08-2.92,5.24-6.83,2.38-10.93a50.82,50.82,0,0,0-8.36-8.87c-13.21-11.58-32.84-6.2-37.62,10.29-1.48,5.12-1.73,10.18,5.09,14.16ZM584.8,492.36c2.6,2.73,4.73,5.61,7.47,7.67,4,3,8.62,3.4,12.17-.72,3.31-3.85,3.65-8.62,0-12.34a56.68,56.68,0,0,0-27.35-15.89c-2.6-.63-5.72.88-8.59,1.41.71,2.71,1.41,5.43,2.29,8.81-2.83,3.32-3.51,7.77.44,11.87,4.62,4.8,9.31,2.48,13.57-.81Zm247-30.2c.56-2,1-4,1.64-5.83,1.27-3.74,3.25-6.68,7.84-6.45s7.38,2.5,8.33,6.82c.61,2.78.06,5.93,1.12,8.47s3.09,6,5.44,6.76c3.9,1.27,6.23-1.74,7.12-5.71,2-9-2.4-20.48-10-25.57-8.77-5.88-20.52-4-25.74,4.14-4.16,6.48-2.57,13.8,4.25,17.37Z" transform="translate(-289.63 -205.79)"/><path d="M1043.65,1079.78c1.91,3.22,4.12,6.08,5.43,9.3,18.75,46.45,21.2,93.92,8.58,142.28-1.56,6-3,12-4.75,17.89-1,3.53-2.53,6.92-3.89,10.54-7.8-1.28-15.39-2.79-23.06-3.62-2.11-.23-6,1.18-6.37,2.53-.94,3.79,2.51,4.32,5.48,4.76,6.64,1,13.26,2.08,21,3.3-14.72,27.85-27.07,56-58.15,67.86-7.18,2.74-15.19,3.51-22.9,4.62-7.13,1-13.64,2.4-18.07,9-1.24,1.86-4.37,3-6.81,3.43-24,4.22-48,2.47-72-.48-22.67-2.78-45.44-4.66-68.17-7-1.38-.14-2.76-.31-4.87-.55,1.32-2.82,2.86-5.08,3.39-7.55.39-1.83-.55-3.93-.9-5.91-1.8.75-4.88,1.14-5.2,2.29-3,10.86-10.73,10.6-20,10.7-80.36.86-160.71,2.19-241.06,3.53-20,.34-40,1.15-59.92,2-3.87.16-5.7-1.17-6.62-4.7a28.67,28.67,0,0,0-2.66-7.53c-.85-1.42-2.94-2.08-4.47-3.08-.83,1.81-2.53,3.74-2.29,5.4.48,3.36,2,6.57,3.58,11.2-16,0-31-.07-46.06,0-5.29,0-6.62-3.82-6.14-7.4,1.6-12.19-5.6-16.54-15.43-20-26.83-9.51-43.76-30-57.29-53.74-16.59-29.11-25.73-61-32.5-93.5a559.13,559.13,0,0,1-9.73-164.1c.25-2.9,2.74-6.09,5.06-8.17,2.69-2.41,6.54-3.49,9.5-5.67,1.29-1,1.6-3.23,2.36-4.91-1.95-.46-4.11-1.68-5.81-1.23-2.88.77-5.47,2.61-9.58,4.7,1.16-8.1,2-15.09,3.16-22a486.3,486.3,0,0,1,59.78-166.42c2.59-4.44,5.86-8.5,8.29-13,2.63-4.89,5.95-6.82,11.42-5a34.22,34.22,0,0,0,9.05,1.81c1.43.08,2.94-1.33,4.42-2.06-.85-1.65-1.33-4.24-2.63-4.77-3.56-1.44-7.47-2-12.25-3.18,2.08-2.58,3.72-4.78,5.52-6.84,25.92-29.71,59.41-47.06,96.31-58.71,34.4-10.87,70-16.41,105.43-22.36,15.92-2.67,31.64-6.16,44.16-17.4A90.3,90.3,0,0,0,636.3,664.7c2.48-3.15,4.68-6,9.63-2.55,1.85-8.56,3.54-16.41,5.23-24.26,5.16,7.29,5.11,15.07,3.17,22.51-1.47,5.63.41,8.1,4.57,11.49,20.68,16.89,45.43,22.46,70.79,26.58,17.73,2.87,35.49,5.14,53.48,2.72a61.49,61.49,0,0,0,6.05-1.16c13.7-3.23,13.83-3.53,13.41-17.22a98.23,98.23,0,0,1,.56-12.94c.43-4.26,1.3-8.48,2.07-13.34-10.13,0-20.59.79-30.87-.23a102.36,102.36,0,0,1-26.93-6.18c-6.44-2.51-12-7.64-17.4-12.24-1.52-1.29-2.22-5.41-1.29-7.16s4.61-2.87,6.74-2.45c11.09,2.16,22,5.21,33.1,7.39,59.78,11.74,117.57-28.17,124.94-88.44,3.43-28.06,2.82-56.76,2.15-85.12-.9-38.52-3.55-77-5.69-115.46-.13-2.42-2.1-4.9-3.67-7-1.2-1.6-3.67-2.34-4.62-4-4.24-7.46-9.58-6.89-16.86-4.31-15.84,5.62-32.41,8-49.23,6.06-7.81-.92-14.68,1.25-21.42,4.27-21.21,9.52-43.54,14.94-66.39,18.41a39.32,39.32,0,0,1-11.66.19c-6.92-1.06-9.36-6.63-6.06-12.8,1.45-2.71,3-5.35,4.66-8.26-.79-.23-1.36-.6-1.8-.48-21.66,5.61-43.27,11.47-65,16.79-5.76,1.4-8.61,4.28-10.48,9.76-10.59,31.11-15.37,63.12-15.67,95.9a24.16,24.16,0,0,1-.41,5.52c-1.46,5.72-6.3,7.44-10.75,3.55-3.7-3.24-6.44-7.67-10.38-10.51-6.21-4.48-12.73-8.86-19.75-11.78-5.31-2.21-11.06.21-13.44,5.87-6.68,15.83-11.93,32.06-8.55,49.65,2,10.37,11,21.87,24.7,18.26a16.73,16.73,0,0,1,4.31-.08c7.94,0,9.67,2.53,6.8,9.73-.36.91-.76,1.79.67,2,3.42,5.75,6.87,11.47,10.25,17.25,8.13,13.91,19.51,24.8,31.57,35.27A139.86,139.86,0,0,1,657,607.39c2.72,3.63,3.24,9.59,3.12,14.45s-4.31,5.94-7.95,2.64c-3-2.74-5.51-6.08-8.2-9.19-5.25-6.06-10.14-12.47-15.78-18.13-10.19-10.22-20.9-19.93-27-33.8-6.48,3.29-12.32,4-17.42-2.08-.8-.95-3.29-.37-4.95-.75-3.17-.72-7.43-.68-9.14-2.71s-2-6.51-1.37-9.64,2.95-5.76,4.55-8.64C544.47,532,539,507.26,542.07,487c1.54-10.28,5.3-20.23,7.88-30.37.44-1.73.78-4.34-.14-5.43-12.51-14.82-14.91-32.79-15.45-51-1-34.89,8-67.24,26.18-97,.53-.88,1-1.79,1.49-2.68-6.93-9.4-6.63-12,2-20.63a6.81,6.81,0,0,0,1.95-4.06c.57-10.08,6.29-16,15.82-13.37,9.1,2.54,14.56-.85,21.25-5.91,26.91-20.32,58.16-31.41,90.26-40.28,25.31-7,51-11.65,77.45-10.16a113.89,113.89,0,0,1,33,6.88c27.9,10.16,55.37,22.11,85.61,24.31,6.87.49,8.73,5.66,5.82,13.07,3,1.78,7,2.86,8.59,5.42,1.76,2.83,1.34,7,1.93,11.13,8.35,1.79,10.66,8,10.55,16.37a51.72,51.72,0,0,1-11.11,32.33c11,12.94,14.39,27.85,11.36,44.37-1.32,7.19-4.45,12.86-12.51,14.5.84,10.8,2,21.42,2.45,32.07,1.68,39.1,3.85,78.21,4.47,117.33.46,29.77-6,58.22-24.08,82.82-19.11,25.94-44.28,42.62-76.13,48.78a10.3,10.3,0,0,0-1.76.69q1.82,12.18,3.62,24.22c15-.38,21.3,3.77,26.32,17.88,2.57,7.2,8.1,12.78,11.28,19.06,5.88,11.63,16.76,12.49,25.94,17.13,23.62,12,47.43,23.55,72.38,35.89-4.16,3.68-7.19,5.8-9.43,8.56-1.25,1.54-1.17,4.16-1.69,6.29,2.14-.21,4.9.37,6.32-.74,12.43-9.75,12.87-10.28,23,2,5.65,6.83,9.44,15.25,13.66,23.18,3,5.62,5.36,11.58,7.85,17.44,2.28,5.36,6.12,7.11,12,7.55,22.16,1.67,44.29,3.83,66.38,6.2,10.14,1.08,10.84,2.49,6.76,11.55-15.25,34-30.64,67.82-46,101.86,8.59,5.63,13.57,19.1,10.28,31.69-2.14,8.23.74,13.91,6.86,18.79,10.8,8.62,11.4,11.37,4.42,23.25-2.07,3.53-2.54,6.51.84,9.26,7.76,6.31,7.65,14.15,4,22.32-3.17,7.12-7,14-10.11,20.24ZM718,345.25l.54,2.48a63.88,63.88,0,0,0,6.42.78c24.22.48,46.87-5.19,67.76-17.57,6-3.55,11.76-7.36,19.33-3.5,2.57,1.31,6,1.16,9.09,1.16,18.58-.05,37-1,54.23-9.21,4.43-2.1,8.09-1,11.15,3.4a31.4,31.4,0,0,0,8.8,8.43c3.79,2.37,8.89,6.33,12.68,1.5s-1.08-9-4.16-12.77c-2.75-3.35-5.64-6.6-9.54-11.15,10.05-1.17,13.93-6.8,15.1-14.53a48.66,48.66,0,0,0,.7-12.26c-.39-3.72-1.15-8.21-3.52-10.62-1.71-1.73-6.33-.6-9.63-.75,1.27-11.62-1.65-16.13-12.65-16.18-2.62,0-5.23-1.58-8.48-2.65,2.1-2.59,3.54-4.38,5.81-7.2-7.15-2.31-13.29-4.46-19.54-6.27-17.73-5.13-35.89-9.08-53.17-15.45a138.65,138.65,0,0,0-56.83-8.82c-21.9,1.29-43.25,5.67-64.18,12.06C657,235.54,628.2,248.83,605,272c-4.21,4.2-7.79,5.8-13.41,4-2.07-.66-6.6,0-6.75.72-1.22,6.09-6.82,5.31-10.52,7.39-4.7,2.63-5.05,5.11-1.15,8.27,7.15,5.78,7,5.69,2.77,14-7,13.77-14,27.52-20.34,41.56-8.94,19.69-13.61,40.36-9.11,61.91,2,9.51,5.92,18.67,9.58,27.74,1.55,3.84,5.15,5.15,9.2,2.57,12.36-7.88,28.85-8.72,40.38,5.54,2.32,2.87,5.27,5.23,7.44,7.36,1.28-16.37,1.74-32.45,4-48.28,2.32-16.24,6.23-32.28,9.76-48.33,1.7-7.77,6.5-12.51,14.86-13.42,9.61-1,19.33-1.79,28.7-4,17-4,33.75-8.88,50.6-13.46,10-2.71,19.73-3.21,30.25,2.94l-17.12,8.56L718,345.25Zm230,660.09c-6.59-15.37-3.49-30,13.15-37.24,15-6.58,30.54-11.17,46.93-12.35,4.07-.29,6.67-1.49,8.63-5.44,7.79-15.67,16.31-31,23.92-46.72,8.49-17.57,16.28-35.47,24.69-53.91-3.73-.53-6.53-1-9.33-1.31-9.82-1-19.62-2.41-29.47-3q-41.32-2.5-82.67-4.36c-2.61-.12-6.06.78-7.8,2.52a53.89,53.89,0,0,0-9.16,12.22c-11.16,20.62-21.8,41.53-33.06,62.1-4.48,8.19-10.08,15.77-15.39,24l10.37,1.48c2-4.17,3.9-8.06,5.87-11.89,1.76-3.43,1.77-8.44,8.3-9.22-.66,9.58-6.89,15.35-11,21.57,16.13,13.32,27.83,29.75,36.66,48.33,2.64,5.56,3.45,11.47.47,17.28-1.9,3.72-4.85,6.9-9,5-1-.46-.73-7.06.94-9.43,2.24-3.15,1.93-5.26.64-8.29-6.12-14.45-16-26.33-25.91-38.17-3.94-4.7-8.84-7.67-14.9-7.59-11.1.13-22.19.79-33.28,1.26-26.65,1.13-46.49,11.65-59.46,36.69A118.67,118.67,0,0,1,726,1045.32a67.25,67.25,0,0,0-12.58,6.52c-2.07,1.41-4.25,4.2-4.45,6.52-1.13,13.13-2.18,26.3-2.25,39.46-.08,13.36,2,26.54,6.66,38.23,12-5.17,23.38-10.9,35.34-15.07,13.22-4.61,26.92-2,40.38,0,12.13,1.84,21.87-1.64,28.95-12,3.24-4.75,6.74-9.35,10.4-13.78,4.87-5.9,11.43-9.19,19-8.72,10.07.64,16-3.45,18.4-13.7L835,1050.56c3.25,0,5.74-.66,7.67.1,12.21,4.8,24.11,10.15,31.47,22.61,14.59-8,7.29-21.09,8.16-32.36-12.9-4.48-25.52-8.8-38.09-13.26-3.89-1.38-8.93-3.24-7.53-8.07,1.58-5.48,6.91-3.19,10.6-2q20.5,6.74,40.81,14.1a28.91,28.91,0,0,1,18,18.31c.78,2.21,2.46,4.09,4.55,7.46a68.28,68.28,0,0,0,2.89-6.74c5-17.74-5.14-40.83-22.4-47.41-13.36-5.1-27.61-7.88-41.5-11.55-3.69-1-7.52-1.48-11.29-2.2,4.68-1.53,9.16-1.85,13.55-2.65,8.63-1.59,17.15-4.23,25.83-4.85,4.37-.31,10.19,1.65,13.25,4.7,8.52,8.5,16.06,18,23.71,27.34,2,2.48,3.06,5.8,4.55,8.73.67,1.32,1.35,2.64,1.31,2.56L948,1005.34Zm6-5.93c12.34-2.77,24.7-5.61,37.09-8.3a74.14,74.14,0,0,1,11.55-1.7,4.46,4.46,0,0,1,3.4,2.66c.21.93-1.34,3-2.51,3.39a64.92,64.92,0,0,1-13,3.71c-21.26,2.94-40.24,11.38-57.56,23.7-6.54,4.65-8.7,11.13-5.86,15.88,3.65,6.1,9.37,3.87,14.41,2.75,22.26-5,44.45-10.22,66.73-15.08,2-.44,4.46,1.17,6.7,1.83-1.71,1.38-3.24,3.56-5.18,4-21.38,5.11-42.74,10.38-64.28,14.7-10.9,2.18-18.5,8.48-25.4,16.22-1.39,1.57-1.4,4.36-2.06,6.59,2.44.6,5,2,7.28,1.66,18.85-3.11,37.61-6.79,56.47-9.83,9.53-1.53,19.21-2.24,28.85-2.95,1.75-.13,3.64,1.58,5.46,2.45-1.67,1.37-3.14,3.26-5,4-2.24.84-4.88.56-7.32.91-22,3.14-44,6.17-65.92,9.58-6.14,1-10.22,9-9.21,16.5.86,6.43,4.64,9.31,12.51,8.53,28.91-2.85,57.18-7.6,84-20.32,11.81-5.61,17.16-14.42,21.72-25,2.14-5,1.25-9.4-3.14-13.3-6.37-5.64-6.58-9.69-1.77-16.64,6.21-9,6.3-9.32-2.26-16.5-5.73-4.81-9-10.82-7-17.93,2.44-8.74-.73-16.15-3.42-23.83-1.29-3.68-3.89-5.21-8.07-5.15a137.82,137.82,0,0,0-57.33,13.19c-10.93,5.18-13.34,11.36-9.81,24.29Zm-548,156.25c6.12-2.27,11.51-4.9,17.21-6.28,32.08-7.76,64.25-15.16,96.37-22.79,20.58-4.9,41.22-9.59,61.62-15.18,8-2.2,15.49-6.48,23.08-10.08,1.08-.51,1.45-2.56,2.15-3.89-1.41-.45-2.85-1.34-4.22-1.24a47.29,47.29,0,0,0-7.86,1.47c-22.9,5.72-45.75,11.62-68.7,17.16-15.48,3.74-31.08,7-47.11,10.58,3.89-46.33,9.53-92.17-4.55-137.27,5.2,46.57,1,92.9-3.79,139.19-10.82,3.5-22,6.86-33.07,10.77-11.18,4-22.78,7.36-31.13,17.56Zm49.29,134.2,1.17,1.82L479.73,1281q72.84-33.4,145.68-66.85a29.13,29.13,0,0,0,7.25-4.57c1.29-1.16,1.67-3.34,2.46-5.06-1.64-.41-3.38-1.36-4.91-1.11A29.64,29.64,0,0,0,622,1206q-74.91,37.11-149.72,74.41c-5.83,2.9-11.41,6.3-17.11,9.47Zm550.67-136.37-1.64.8c1.54,5,3.6,10,4.52,15.1,2.39,13.3,4.14,26.71,6.48,40,.39,2.21,2.47,4.12,3.76,6.17,1.61-2.06,4.19-3.92,4.64-6.21a45.49,45.49,0,0,0,.71-14,78.25,78.25,0,0,0-13.51-35.91c-1.47-2.11-3.3-4-5-6ZM523.68,848.35c9.72-2.16,18.54-4,27.25-6.25,1.29-.33,2-2.85,3-4.36-1.43-.91-3-2.8-4.26-2.57-8.84,1.64-17.64,3.57-26.34,5.82-1.28.33-2.72,2.86-2.71,4.36,0,1.12,2.22,2.23,3.08,3ZM905,1167.47l-.07-2.07c-2.12-.55-4.56-2.05-6.31-1.48a218.86,218.86,0,0,0-21.15,8.25c-1.51.68-2.18,3.24-3.23,4.94,2.07.62,4.47,2.25,6.13,1.69,7-2.35,13.8-5.28,20.59-8.19C902.49,1170,903.67,1168.54,905,1167.47ZM659.14,929.82l4.23,4.89c1.24-1.59,3.16-3,3.61-4.8A193.34,193.34,0,0,0,671,910c.24-1.67-1.55-3.63-2.4-5.46-1.55,1.17-4,2.08-4.47,3.56C662.21,914.78,660.93,921.66,659.14,929.82ZM390.75,1220.21c-3-1.2-5.33-3.1-6.73-2.55A209.33,209.33,0,0,0,364,1227c-1.07.55-1.14,3-1.67,4.63,1.73.54,3.83,2,5.12,1.45,6.44-2.65,12.7-5.76,18.95-8.85,1.17-.58,2-1.79,4.39-4Zm-33.43-159.33c-1,.75-2.87,1.43-3,2.38-.24,1.52.12,4.07,1.13,4.69a155.66,155.66,0,0,0,16.66,8.9c1.5.68,3.83-.46,5.77-.76-1-1.95-1.42-4.7-3-5.71-4.76-3.08-10-5.48-15-8.14Zm219.08,230.4c-.85,2.26-2.55,4.55-2,5.57a192.85,192.85,0,0,0,11.11,17.55c.61.87,3.77,1.07,4.65.31s1.31-3.56.64-4.73c-3.15-5.5-6.68-10.79-10.22-16C580,1293.05,578.67,1292.67,576.4,1291.28ZM381.7,931.71c7-3.37,13.53-6.32,19.81-9.66.87-.46,1.37-3.18.83-4.26s-2.93-2-3.94-1.58q-9.31,3.81-18.29,8.4c-1,.51-1.76,2.85-1.47,4.07s2,2.09,3.06,3ZM494.76,736c-6.52,1.74-12.17,2.91-17.52,4.9-1.67.62-2.51,3.46-3.73,5.29,1.93.57,4,1.88,5.76,1.58A111.79,111.79,0,0,0,494.78,744c1.69-.55,2.89-2.61,4.32-4l-4.34-4Zm223.86,515c-1-1.08-1.76-2.71-2.81-2.9a5.37,5.37,0,0,0-4.26,1.18,144.86,144.86,0,0,0-11,13.16c-.85,1.19,0,3.59,0,5.43,2-.39,4.58-.11,5.73-1.28,3.85-3.92,7.2-8.35,10.68-12.62A19.62,19.62,0,0,0,718.62,1251.05ZM545.81,964.29c-1.52-1.69-2.22-3.13-3.31-3.56-5.3-2.1-10.66-4.12-16.13-5.7a5,5,0,0,0-4.44,1.84c-.54,1,.38,4,1.38,4.44a139.75,139.75,0,0,0,17.23,6.08C541.75,967.72,543.62,965.64,545.81,964.29ZM411.49,834.34l1.65-3c-1.82-.86-3.59-1.86-5.47-2.56-4.81-1.78-9.6-3.67-14.55-5-1.43-.38-3.34,1.06-5,1.67.79,1.7,1.16,4.38,2.44,4.93A123.7,123.7,0,0,0,406.76,836c1.32.36,3.14-1.06,4.73-1.67Zm240.73-40.52c-3.56,0-5.57-.48-7.18.13s-2.79,2.31-4.16,3.53c1.32,1.23,2.51,3.32,4,3.54a92.37,92.37,0,0,0,15.83,1.13c1.59,0,3.13-2.32,4.69-3.58-1.31-1.19-2.45-3-4-3.42a69.31,69.31,0,0,0-9.18-1.33Zm153.27,391.73c-2.86-6.39-5.39-12.4-8.34-18.2-.46-.92-3-1.5-4.22-1.07-1,.38-2.3,2.75-1.95,3.67,2.25,5.89,4.77,11.7,7.58,17.34.46.92,2.89,1.37,4.27,1.14,1-.16,1.73-1.8,2.66-2.88Zm8.73-338.41c-2.12.94-3.32,1.09-3.48,1.59-2,6.28-4,12.59-5.63,19-.14.56,2.14,2.57,2.86,2.37,1.51-.43,3.44-1.62,3.95-3a88.81,88.81,0,0,0,4.1-14c.34-1.71-1.07-3.76-1.8-6Zm76,425c-.62,3-2.11,5.91-1.27,7a62.09,62.09,0,0,0,10.28,10.47c1.16.94,3.85,0,5.84-.09-.38-1.81-.23-4.06-1.26-5.35a91.94,91.94,0,0,0-8.54-8.79C894.26,1274.5,892.93,1273.93,890.18,1272.18ZM537.89,1159l-2.51.32c-.63,2-2.41,4.9-1.69,5.79a84.89,84.89,0,0,0,11.59,11.78c2.3,1.9,6.62-1.24,5.14-3.36C546.77,1168.29,542.14,1163.77,537.89,1159Zm101.56-141.73-4.28,3.82c1.61,1.4,3,3.38,4.89,4.07a34.31,34.31,0,0,0,10.19,2.08c1.51.07,3.11-1.8,4.67-2.79-.93-1.4-1.56-3.6-2.83-4.05-3.63-1.32-7.52-1.93-12.64-3.13ZM853.22,763.47c4.57-3.52,9.09-6.85,13.36-10.49.46-.39-.16-2.91-1-3.71a4,4,0,0,0-3.74-.63,91.94,91.94,0,0,0-11.14,7.6c-.87.71-.92,3-.64,4.37C850.25,761.51,851.7,762.16,853.22,763.47ZM705.81,735.7c.2-1,.4-2,.61-3-4.83-3.39-9.33-7.57-14.64-9.79-2.33-1-4.28,3-1.75,5.67a52.68,52.68,0,0,0,9.84,8.32c1.25.78,3.92-.71,5.94-1.17Z" transform="translate(-289.63 -205.79)"/><path d="M779.23,575.45c-10.54-2.35-21.4-3.79-31.54-7.31-10.46-3.62-18.15-11.17-21.23-22.46-1.79-6.58-.47-9,6.18-9.51,8-.6,16-.84,24.07-.88q37.39-.16,74.8,0c11,.07,15.13,7.05,8.74,16.07-3.86,5.45-9.77,10.09-15.74,13.26-13.91,7.41-29.33,9.13-44.92,9.26l-.36,1.57Zm50-32c-.13-.76-.26-1.52-.4-2.27H746.76l-.81,2.48c2.59,1.32,5.15,3.73,7.76,3.77,16.83.32,33.69.56,50.5-.08,8.38-.32,16.68-2.54,25-3.9Z" transform="translate(-289.63 -205.79)"/><path d="M788.94,470.74c9-6.15,18.79-9.83,30-8,7.35,1.23,11.51,6.44,12.88,14.7,3.1,18.71-18.89,37.64-37,31.87C787.51,507,784.36,500,788,493.71c2-3.5,4.91-5.26,9.15-3.19,7.17,3.51,13.88,1.45,19.51-3.1,2.28-1.83,4.17-6.21,3.62-8.9s-4.07-5.78-6.88-6.54c-4.19-1.13-8.9-.54-13.38-.36-3.56.15-7.1.8-10.65,1.23Z" transform="translate(-289.63 -205.79)"/><path d="M815.91,409.38c7.33-12.08,19.82-16.35,33.24-12a37.2,37.2,0,0,1,22,18.61,39.62,39.62,0,0,0,3.92,6.13c3.7,4.6,3.88,8.88.28,12.67s-10,4.49-13.83.68a26.23,26.23,0,0,1-5.12-8.23c-6-14-18.93-21.17-34.23-18.86-1.8.27-3.59.59-6.25,1Z" transform="translate(-289.63 -205.79)"/><path d="M696.91,449.74c-6.16-24.39,14.61-53.17,37.62-54.16,6.13-.27,11.31,2.05,14.51,7.64s.3,11-6.21,11.27a56,56,0,0,1-9.22-.62c-10.89-1.33-18.88,3.23-24.25,12.35C705.12,433.45,701.49,441,696.91,449.74Z" transform="translate(-289.63 -205.79)"/><path d="M716.54,470.41c-6.82-4-6.57-9-5.09-14.16,4.78-16.49,24.41-21.87,37.62-10.3a51.24,51.24,0,0,1,8.36,8.88c2.86,4.1.7,8-2.38,10.93-3.43,3.24-7.22,2.36-10.29-.84-1.23-1.28-1.79-3.2-2.7-4.8-4.36-7.68-13.65-8.09-18.53-.78-2.34,3.52-4.52,7.14-7,11.07Z" transform="translate(-289.63 -205.79)"/><path d="M584.8,492.36c-4.26,3.29-8.95,5.61-13.57.81-4-4.1-3.27-8.55-.44-11.87-.88-3.38-1.58-6.1-2.29-8.81,2.87-.53,6-2,8.59-1.41A56.68,56.68,0,0,1,604.44,487c3.65,3.72,3.31,8.49,0,12.34-3.55,4.12-8.14,3.74-12.17.72-2.74-2.06-4.87-4.94-7.47-7.67Z" transform="translate(-289.63 -205.79)"/><path d="M831.75,462.16c-6.82-3.57-8.41-10.89-4.25-17.37,5.22-8.13,17-10,25.74-4.14,7.6,5.09,12,16.57,10,25.57-.89,4-3.22,7-7.12,5.71-2.35-.77-4.34-4.13-5.44-6.76s-.51-5.69-1.12-8.47c-.95-4.32-3.85-6.6-8.33-6.82s-6.57,2.71-7.84,6.45c-.64,1.87-1.08,3.81-1.64,5.83Z" transform="translate(-289.63 -205.79)"/><path class="cls-1" d="M718,345.25l16.18-8.12,17.12-8.56c-10.52-6.15-20.27-5.65-30.25-2.94-16.85,4.58-33.61,9.49-50.6,13.46-9.37,2.19-19.09,2.94-28.7,4-8.36.91-13.16,5.65-14.86,13.42-3.53,16.05-7.44,32.08-9.76,48.33-2.26,15.83-2.72,31.91-4,48.28-2.17-2.13-5.12-4.49-7.44-7.36-11.53-14.26-28-13.42-40.38-5.54-4,2.58-7.65,1.27-9.2-2.57-3.66-9.07-7.6-18.23-9.58-27.74-4.5-21.55.17-42.22,9.11-61.91,6.38-14,13.39-27.79,20.34-41.56,4.2-8.32,4.38-8.23-2.77-14-3.9-3.16-3.55-5.64,1.15-8.27,3.7-2.08,9.3-1.3,10.52-7.39.15-.72,4.68-1.38,6.75-.72,5.62,1.77,9.2.17,13.41-4,23.18-23.17,52-36.46,82.87-45.87,20.93-6.39,42.28-10.77,64.18-12.06a138.65,138.65,0,0,1,56.83,8.82c17.28,6.37,35.44,10.32,53.17,15.45,6.25,1.81,12.39,4,19.54,6.27-2.27,2.82-3.71,4.61-5.81,7.2,3.25,1.07,5.86,2.64,8.48,2.65,11,0,13.92,4.56,12.65,16.18,3.3.15,7.92-1,9.63.75,2.37,2.41,3.13,6.9,3.52,10.62a48.66,48.66,0,0,1-.7,12.26c-1.17,7.73-5,13.36-15.1,14.53,3.9,4.55,6.79,7.8,9.54,11.15,3.08,3.74,8.07,7.82,4.16,12.77s-8.89.87-12.68-1.5a31.4,31.4,0,0,1-8.8-8.43c-3.06-4.38-6.72-5.5-11.15-3.4-17.24,8.19-35.65,9.16-54.23,9.21-3,0-6.52.15-9.09-1.16-7.57-3.86-13.33-.05-19.33,3.5-20.89,12.38-43.54,18.05-67.76,17.57a63.88,63.88,0,0,1-6.42-.78Z" transform="translate(-289.63 -205.79)"/><path class="cls-1" d="M948,1005.34l-27.49,20.06c0,.08-.64-1.24-1.31-2.56-1.49-2.93-2.52-6.25-4.55-8.74-7.65-9.33-15.19-18.83-23.71-27.33-3.06-3-8.88-5-13.25-4.7-8.68.62-17.2,3.26-25.83,4.85-4.39.8-8.87,1.12-13.55,2.65,3.77.72,7.6,1.22,11.29,2.2,13.89,3.67,28.14,6.45,41.5,11.55,17.26,6.58,27.4,29.67,22.4,47.41a68.28,68.28,0,0,1-2.89,6.74c-2.09-3.37-3.77-5.25-4.55-7.46a28.91,28.91,0,0,0-18-18.31q-20.28-7.41-40.81-14.1c-3.69-1.21-9-3.5-10.6,2-1.4,4.83,3.64,6.69,7.53,8.07,12.57,4.46,25.19,8.78,38.09,13.26-.87,11.27,6.43,24.4-8.16,32.35-7.36-12.45-19.26-17.8-31.47-22.6-1.93-.76-4.42-.1-7.67-.1l30.83,22.19c-2.41,10.25-8.33,14.34-18.4,13.7-7.54-.47-14.1,2.82-19,8.72-3.66,4.43-7.16,9-10.4,13.78-7.08,10.39-16.82,13.87-28.95,12-13.46-2-27.16-4.61-40.38,0-12,4.17-23.39,9.9-35.34,15.07-4.67-11.69-6.74-24.87-6.66-38.23.07-13.16,1.12-26.33,2.25-39.46.2-2.32,2.38-5.11,4.45-6.52a67.25,67.25,0,0,1,12.58-6.52,118.67,118.67,0,0,0,62.16-56.49c13-25,32.81-35.56,59.46-36.69,11.09-.47,22.18-1.13,33.28-1.26,6.06-.08,11,2.89,14.9,7.59,9.94,11.84,19.79,23.72,25.91,38.17,1.29,3,1.6,5.14-.64,8.29-1.67,2.37-2,9-.94,9.43,4.19,1.89,7.14-1.29,9-5,3-5.82,2.17-11.72-.47-17.28-8.83-18.58-20.53-35-36.66-48.33,4.07-6.22,10.3-12,11-21.57-6.53.78-6.54,5.79-8.3,9.22-2,3.83-3.82,7.72-5.87,11.89l-10.37-1.48c5.31-8.19,10.91-15.77,15.39-24,11.26-20.57,21.9-41.48,33.06-62.1a53.89,53.89,0,0,1,9.16-12.22c1.74-1.74,5.19-2.64,7.8-2.52q41.34,1.9,82.67,4.36c9.85.6,19.65,1.95,29.47,3,2.8.31,5.6.78,9.33,1.31-8.41,18.44-16.2,36.34-24.69,53.91-7.61,15.75-16.13,31-23.91,46.72-2,4-4.57,5.15-8.64,5.44-16.39,1.18-31.89,5.77-46.93,12.35-16.64,7.27-19.74,21.87-13.15,37.24Z" transform="translate(-289.63 -205.79)"/><path class="cls-1" d="M954,999.41c-3.53-12.93-1.12-19.12,9.81-24.29a137.67,137.67,0,0,1,57.33-13.19c4.18-.06,6.78,1.46,8.07,5.15,2.69,7.68,5.86,15.09,3.42,23.83-2,7.11,1.27,13.12,7,17.93,8.56,7.18,8.47,7.53,2.26,16.5-4.81,7-4.6,11,1.77,16.64,4.39,3.89,5.28,8.31,3.14,13.3-4.56,10.58-9.91,19.39-21.72,25-26.79,12.72-55.06,17.47-84,20.32-7.87.78-11.65-2.1-12.51-8.53-1-7.49,3.07-15.54,9.21-16.5,21.94-3.41,43.94-6.44,65.92-9.58,2.44-.35,5.08-.07,7.32-.91,1.91-.71,3.38-2.6,5-4-1.82-.87-3.71-2.58-5.46-2.45-9.64.71-19.32,1.42-28.85,2.95-18.86,3-37.62,6.72-56.47,9.83-2.27.38-4.84-1.06-7.28-1.66.66-2.23.67-5,2.06-6.59,6.9-7.74,14.5-14,25.4-16.22,21.54-4.32,42.9-9.59,64.28-14.7,1.94-.46,3.47-2.64,5.18-4-2.24-.66-4.7-2.27-6.7-1.83-22.28,4.86-44.47,10.13-66.73,15.08-5,1.12-10.76,3.35-14.41-2.75-2.84-4.75-.68-11.23,5.86-15.88,17.32-12.32,36.3-20.76,57.56-23.7a64.92,64.92,0,0,0,13-3.71c1.17-.42,2.72-2.46,2.51-3.39a4.46,4.46,0,0,0-3.4-2.66,74.14,74.14,0,0,0-11.55,1.7c-12.39,2.69-24.75,5.53-37.09,8.3Z" transform="translate(-289.63 -205.79)"/><path class="cls-1" d="M405.91,1155.66c8.35-10.2,19.95-13.6,31.13-17.56,11-3.91,22.25-7.27,33.07-10.77,4.8-46.29,9-92.62,3.79-139.19,14.08,45.1,8.44,90.94,4.55,137.27,16-3.58,31.63-6.84,47.11-10.58,23-5.54,45.8-11.44,68.7-17.16a47.29,47.29,0,0,1,7.86-1.47c1.37-.1,2.81.79,4.22,1.24-.7,1.34-1.07,3.38-2.15,3.89-7.59,3.6-15.06,7.88-23.08,10.08-20.4,5.59-41,10.28-61.62,15.18-32.12,7.63-64.29,15-96.37,22.79-5.7,1.38-11.09,4-17.21,6.28Z" transform="translate(-289.63 -205.79)"/><path class="cls-1" d="M455.2,1289.86c5.7-3.17,11.28-6.57,17.11-9.47Q547.11,1243.09,622,1206a29.64,29.64,0,0,1,8.18-2.58c1.53-.25,3.27.7,4.91,1.11-.79,1.72-1.17,3.9-2.46,5.06a29.13,29.13,0,0,1-7.25,4.57Q552.6,1247.64,479.73,1281l-23.36,10.69-1.17-1.82Z" transform="translate(-289.63 -205.79)"/><path class="cls-1" d="M1005.87,1153.49c1.66,2,3.49,3.84,5,6a78.25,78.25,0,0,1,13.51,35.91,45.49,45.49,0,0,1-.71,14c-.45,2.29-3,4.15-4.64,6.21-1.29-2-3.37-4-3.76-6.17-2.34-13.3-4.09-26.71-6.48-40-.92-5.14-3-10.07-4.52-15.1l1.64-.8Z" transform="translate(-289.63 -205.79)"/><path class="cls-1" d="M523.68,848.35c-.86-.77-3.08-1.88-3.08-3,0-1.5,1.43-4,2.71-4.36,8.7-2.25,17.5-4.18,26.34-5.82,1.22-.23,2.83,1.66,4.26,2.57-1,1.51-1.69,4-3,4.36-8.71,2.27-17.53,4.09-27.25,6.25Z" transform="translate(-289.63 -205.79)"/><path class="cls-1" d="M905,1167.47c-1.34,1.07-2.52,2.49-4,3.14-6.79,2.91-13.6,5.84-20.59,8.19-1.66.56-4.06-1.07-6.13-1.69,1-1.7,1.72-4.26,3.23-4.94a218.86,218.86,0,0,1,21.15-8.25c1.75-.57,4.19.93,6.31,1.48,0,.69,0,1.38.07,2.07Z" transform="translate(-289.63 -205.79)"/><path class="cls-1" d="M659.14,929.82c1.79-8.16,3.07-15,5-21.76.41-1.48,2.91-2.39,4.46-3.56.85,1.83,2.64,3.79,2.4,5.46a193.34,193.34,0,0,1-4,19.95c-.45,1.79-2.37,3.21-3.61,4.8Z" transform="translate(-289.63 -205.79)"/><path class="cls-1" d="M390.75,1220.21c-2.37,2.18-3.22,3.39-4.39,4-6.25,3.09-12.51,6.2-18.95,8.85-1.29.53-3.39-.91-5.12-1.45.53-1.59.6-4.08,1.67-4.63a209.33,209.33,0,0,1,20.06-9.29c1.4-.55,3.76,1.35,6.73,2.55Z" transform="translate(-289.63 -205.79)"/><path class="cls-1" d="M357.32,1060.88l2.54,1.36c5,2.66,10.24,5.06,15,8.14,1.57,1,2,3.76,3,5.71-1.94.3-4.27,1.44-5.77.76a155.66,155.66,0,0,1-16.66-8.9c-1-.62-1.37-3.17-1.13-4.69C354.45,1062.31,356.29,1061.63,357.32,1060.88Z" transform="translate(-289.63 -205.79)"/><path class="cls-1" d="M576.4,1291.28c2.27,1.39,3.61,1.77,4.2,2.65,3.54,5.26,7.07,10.55,10.22,16,.67,1.17.29,3.91-.64,4.73s-4,.56-4.65-.31a192.85,192.85,0,0,1-11.11-17.55C573.85,1295.83,575.55,1293.54,576.4,1291.28Z" transform="translate(-289.63 -205.79)"/><path class="cls-1" d="M381.7,931.71c-1-.94-2.76-1.81-3.06-3s.48-3.56,1.47-4.07q9-4.59,18.29-8.4c1-.41,3.45.59,3.94,1.58s0,3.8-.83,4.26c-6.28,3.34-12.77,6.29-19.81,9.66Z" transform="translate(-289.63 -205.79)"/><path class="cls-1" d="M494.76,736l4.34,4c-1.43,1.37-2.63,3.43-4.32,4a111.79,111.79,0,0,1-15.51,3.81c-1.78.3-3.83-1-5.76-1.58,1.22-1.83,2.07-4.67,3.73-5.29,5.35-2,11-3.16,17.52-4.9Z" transform="translate(-289.63 -205.79)"/><path class="cls-1" d="M718.62,1251.05a19.62,19.62,0,0,1-1.59,3c-3.48,4.27-6.83,8.7-10.68,12.62-1.15,1.17-3.78.89-5.73,1.28-.06-1.84-.89-4.24,0-5.43a144.86,144.86,0,0,1,11-13.16,5.37,5.37,0,0,1,4.26-1.18C716.86,1248.34,717.64,1250,718.62,1251.05Z" transform="translate(-289.63 -205.79)"/><path class="cls-1" d="M545.81,964.29c-2.19,1.35-4.06,3.43-5.27,3.1a139.75,139.75,0,0,1-17.23-6.08c-1-.42-1.92-3.43-1.38-4.44a5,5,0,0,1,4.44-1.84c5.47,1.58,10.83,3.6,16.13,5.7C543.59,961.16,544.29,962.6,545.81,964.29Z" transform="translate(-289.63 -205.79)"/><path class="cls-1" d="M411.49,834.34c-1.59.61-3.41,2-4.73,1.67a123.7,123.7,0,0,1-16.24-5.63c-1.28-.55-1.65-3.23-2.44-4.93,1.7-.61,3.61-2.05,5-1.67,4.95,1.3,9.74,3.19,14.55,5,1.88.7,3.65,1.7,5.47,2.56l-1.65,3Z" transform="translate(-289.63 -205.79)"/><path class="cls-1" d="M652.22,793.82a69.08,69.08,0,0,1,9.18,1.33c1.52.38,2.66,2.23,4,3.42-1.56,1.26-3.1,3.55-4.69,3.58A92.37,92.37,0,0,1,644.85,801c-1.46-.22-2.65-2.31-4-3.54,1.37-1.22,2.56-2.92,4.16-3.53s3.62-.13,7.18-.13Z" transform="translate(-289.63 -205.79)"/><path class="cls-1" d="M805.49,1185.55c-.93,1.08-1.68,2.72-2.66,2.88-1.38.23-3.81-.22-4.26-1.14-2.82-5.64-5.34-11.45-7.59-17.34-.35-.92.93-3.29,1.95-3.67,1.17-.43,3.76.15,4.22,1.07,3,5.8,5.48,11.81,8.34,18.2Z" transform="translate(-289.63 -205.79)"/><path class="cls-1" d="M814.22,847.14c.73,2.24,2.14,4.29,1.8,6a88.81,88.81,0,0,1-4.1,14c-.51,1.34-2.44,2.53-3.95,3-.72.2-3-1.81-2.86-2.37,1.66-6.39,3.62-12.7,5.63-19,.16-.5,1.36-.66,3.48-1.59Z" transform="translate(-289.63 -205.79)"/><path class="cls-1" d="M890.18,1272.18c2.75,1.75,4.08,2.32,5.05,3.25a91.94,91.94,0,0,1,8.54,8.79c1,1.29.88,3.54,1.26,5.35-2,.09-4.68,1-5.84.09a62.09,62.09,0,0,1-10.28-10.47C888.07,1278.09,889.56,1275.23,890.18,1272.18Z" transform="translate(-289.63 -205.79)"/><path class="cls-1" d="M537.9,1159c4.24,4.8,8.87,9.32,12.52,14.53,1.48,2.12-2.84,5.26-5.14,3.36a84.89,84.89,0,0,1-11.59-11.78c-.72-.89,1.06-3.8,1.69-5.79Z" transform="translate(-289.63 -205.79)"/><path class="cls-1" d="M639.45,1017.24c5.12,1.2,9,1.81,12.64,3.13,1.27.45,1.9,2.65,2.83,4.05-1.56,1-3.16,2.86-4.67,2.79a34.31,34.31,0,0,1-10.19-2.08c-1.87-.69-3.28-2.67-4.89-4.07l4.28-3.82Z" transform="translate(-289.63 -205.79)"/><path class="cls-1" d="M853.22,763.47c-1.52-1.31-3-2-3.15-2.86-.28-1.41-.23-3.66.64-4.37a91.94,91.94,0,0,1,11.14-7.6,4,4,0,0,1,3.74.63c.83.8,1.45,3.32,1,3.71C862.31,756.62,857.79,760,853.22,763.47Z" transform="translate(-289.63 -205.79)"/><path class="cls-1" d="M705.81,735.7c-2,.46-4.69,1.95-5.93,1.17a52.42,52.42,0,0,1-9.85-8.32c-2.53-2.64-.58-6.65,1.75-5.67,5.31,2.22,9.81,6.4,14.64,9.79-.21,1-.41,2-.61,3Z" transform="translate(-289.63 -205.79)"/><path class="cls-1" d="M829.22,543.44c-8.33,1.36-16.63,3.58-25,3.9-16.81.64-33.67.4-50.5.08-2.61,0-5.17-2.45-7.76-3.77l.81-2.48h82.06c.14.75.27,1.51.4,2.27Z" transform="translate(-289.63 -205.79)"/></svg>