<?xml version="1.0" encoding="utf-8"?>
<!-- Generator: Adobe Illustrator 24.2.1, SVG Export Plug-In . SVG Version: 6.00 Build 0)  -->
<svg version="1.1" id="a" xmlns="http://www.w3.org/2000/svg" xmlns:xlink="http://www.w3.org/1999/xlink" x="0px" y="0px"
	 viewBox="0 0 801.3 1217.6" style="enable-background:new 0 0 801.3 1217.6;" xml:space="preserve">
<style type="text/css">
	.st0{fill:#FFFFFF;}
	.st1{stroke:#000000;stroke-miterlimit:10;}
</style>
<path d="M339.3,553.6l18,9.5c6.7-11.4,9.4-23.7,9.3-36.7c0-1.5-0.1-2.9-0.2-4.3c-0.1-3.8,1.2-6.6,5.3-7s7.2,1.8,7.3,5.9
	c0.1,7.6,0.2,15.4-1.3,22.8c-1.8,8.8-5.2,17.3-8.5,27.5c13.1,4.9,26.7,10.7,40.8,15.1c18.2,5.5,23.8,13.3,21.2,32.4
	c-1,7.4-2.3,14.7-3.2,22.1c-0.9,7.6,1.4,14.4,7.1,19.7c7.4,6.9,15.1,13.5,22.5,20.1c2.6-3.6,6.6-8.6,9.8-14.1c1-1.8,0.8-5.2-0.2-7.2
	c-5.8-12.2-4.6-20.9,6.2-28.9c9.3-6.8,19.8-11.9,29.5-18.3c13.6-9,26.8-18.5,41.1-28.4c-13.6-5.1-18.3-15.6-21.6-25
	c-17.2-2.3-33.7-4-49.8-7c-8.6-1.6-16.8-5.4-25-8.7c-4.6-1.9-7.5-5.6-5.5-10.9s6.7-5.9,11.4-4.8c8.6,2.1,17.1,4.8,25.7,7
	c48.6,12.1,91.5-6.4,117.9-50.5c15.4-25.7,22.4-54.1,25.9-83.5c4.5-36.2,5.3-72.7,2.5-109.1c-3.4-43.4-16.5-83.7-41.9-122.9
	c-1,2.6-2.4,5-4.2,7.1c-26.3,29.6-138.2-6.2-163.1,0c-3.2,0.8-6.3,2.1-9.1,3.9c-8.1,4.3-11.1,12.4-12.7,16
	c-19,43.3-39.8,135.7-36.5,147.4c0.4,2.5,0.6,4.9,0.5,7.4c-0.1,6.4-4.2,8.3-10,5.3c-6.8-3.5-14-6.5-21-9.7l-1.1,1.7
	c0.7,2,1.5,3.9,1.8,4.8c-9.2-1.8-18.6-4.8-28.2-5c-15.4-0.4-27.6,10-29.9,23.6c-3.4,19.6,8.9,35.4,28.8,36.9
	c5.4,0.4,10.8,0.5,16.1,1c6.9,0.6,9.4,4.1,8.4,10.9c-0.2,1.4-0.2,3.4,0.6,4.4c15.2,18.5,30.3,37.1,46,55.2c3.7,4.3,9.3,7.4,14.6,9.8
	c6.9,3.2,10.4,6.8,9.5,12c-1.1,5.9-6.8,9.8-12.7,8.8c-0.3-0.1-0.6-0.1-1-0.2c-6.3-1.6-12.2-4.4-17.4-8.3
	c-12-9.3-18.9-22.9-26.1-35.9c-6.6-11.9-12.3-24.3-18.8-36.3c-0.9-1.7-3.9-3-6-3.3c-8.5-1.2-17.5-0.9-25.7-3.2
	c-31.1-8.6-43.7-49.3-23.2-73.9c2.7-3.3,6.3-5.9,8.6-8.1c-3-12.6-7.2-24.6-8.7-36.9c-6-50.1,7-95.7,36-136.6
	c24.8-34.9,57.5-59.8,99.4-70.1c74.1-18.2,139.5-1.5,194.8,52.1c3.9,3.8,6.7,7.8,4.6,13.7c-0.3,1,0.9,2.8,1.8,3.9
	c2.9,3.5,2.7,5.9-2.5,6.9c4.2,4.3,8.6,8.3,12.5,12.7c16.9,19.2,25.2,42.5,30.8,66.9c6.1,27,8,54.4,7.9,82
	c-0.1,36.7-1.1,73.3-10.4,109.1c-9.3,35.6-26.2,66.5-56,89.3c-12,9.2-25.8,15.9-40.4,19.7c-2.1,0.6-4.3,1.2-8.1,2.3
	c4,5.5,7.1,10.5,11,14.8c4.4,5,5.2,9.1,1.5,14.5c-14.1,20.6-32.4,37.9-53.7,50.8c-2.3,1.4-4.6,2.8-6.8,4.4c-7.3,5-7.6,6.6-3.5,14.5
	c4.7,9.1,1.6,16.8-4.4,23.9c-10.3,12.2-13.9,26.2-11.2,41.7c1.5,8.5,3.6,17,6.1,25.2c5.1,16.8,10.8,33.3,15.7,50.2
	c1.1,3.9,0.2,8.6-0.5,12.8c-0.3,1.6-2.3,3.9-3.7,4.1s-3.8-1.5-4.6-3c-2-3.6-3.6-7.4-4.9-11.4c-5.8-17.4-11.6-34.9-17.3-52.3
	c-4.3-13.3-5.9-26.8-6.9-40.8c-0.6-8-7.4-15.5-11.8-23.1c-1.3-2.2-3.8-3.8-5.9-5.5c-16.2-12.8-20.9-29.4-16.6-49.2
	c1.2-5.6,1.4-11.5,2-17.2c0.6-6-2.5-9.2-8-10.7c-24.7-7.1-46.4-19.5-65.6-36.4c-1.5-1.4-2.9-2.9-4.3-4.5c-0.7-0.9-1.4-1.9-2.1-2.9
	L339.3,553.6L339.3,553.6z"/>
<path d="M146.3,1185.9c-18.5,5.6-36.3,11.7-54.5,16.1c-17.6,4.3-36.2,3.2-53.2-3c-25.8-9.2-36.1-29.2-37.9-55
	c-2.4-34.3,0.8-68.2,7.8-101.8c0.5-2.2-0.5-4.6-0.6-7c-0.4-7.6-1.7-15.3-0.8-22.7C20,911.3,43.5,813,87.9,720.6
	c11.7-24.3,25.9-47.2,43.7-67.6c21.1-24.2,48.7-37.6,79-45.2c20.6-5.1,41.8-7.7,62.7-11.5c4.9-0.9,9.7-2.1,14.5-3.4s9.7-1.9,9.4-8.9
	c-0.1-1.9,2.4-4.3,4.2-5.8c9.8-8.2,19.8-16.3,29.8-24.3c1.4-1.1,3.5-1.2,5.3-1.8c0,2,0.9,4.6,0,6c-5.7,9-11.9,17.9-17.8,26.7
	l36.4,44.3c8.6,10.5,18.4,19.6,30.9,25.4c5.8,2.7,11.9,4.6,17.8,7c9.1,3.8,17.7,8.3,23.5,16.6c1,1.5,1,3.7,1.5,5.6
	c-2-0.1-4.2,0.3-6.1-0.3c-6.4-2.2-12.6-5.5-19.2-6.9c-28.1-6.1-49.2-22.3-66.9-44.2c-11.3-14-23.7-27-35.8-40.7
	c-26.2,16.7-55.7,19.1-82.9,28.5c-23.4,8.1-45.8,18.1-64.3,35.2c-15.4,14.2-26.2,31.9-36.6,49.8c-21.7,37.2-36,77.5-49.1,118.3
	C52.4,872.1,40,921.6,32.4,972.2c-2.6,17.4-4.2,34.9-6.8,52.3c-0.9,6.1-0.8,13.2-8.6,15.8c-0.7,0.2-1.1,1.9-1.3,3
	c-3.3,34.7-4.2,69.5,0,104.1c3.1,25.8,17.7,38.4,43.7,40.6c24,2,46.3-4.2,68-13.4c67.6-28.7,130.8-65.3,192.5-107.8
	c-2.4-4.4-4.5-8.8-7.2-12.9c-8.1-12.2-11.9-26.7-10.7-41.3c1-15.9,3.3-31.7,5.1-47.5c0.1-1.2,0.3-2.4,0.5-4.4
	c-63.4,33.6-128,62.3-197.6,78.1c-0.3-0.8-0.7-1.6-1-2.4l51.2-20.6L105,998.3c0.2-0.7,0.4-1.5,0.5-2.2c16.5-0.5,32.2,5,47.1,6.9
	c12.8-9.1,18.1-21.5,19.3-35.9c0.9-10.5,1.5-21,2.7-31.5c2.8-25.3,5.8-50.5,8.8-75.8c0.1-0.7,0.6-1.4,2.3-2.1c0.4,2,0.6,4,0.6,6
	c-1.4,35.6-2.3,71.2-4.5,106.7c-0.7,10.4-5,20.6-7.9,31.4l5.5,6.3c12.3-5.4,25.4-10.5,37.9-16.7c28.4-14,56.5-28.5,84.6-42.9
	c3.5-1.8,6.3-2.5,10.4-0.7c5,2.2,10.7,3,16.2,3.9c1.5,0.2,3.7-1.1,4.9-2.3c8.6-8.8,17.9-17.2,25.4-26.9c8.5-11.1,15.4-23.5,23-35.3
	c11.5-17.7,26.5-31.6,46.7-38.1c11.8-3.8,20-10.7,26.9-20.1c8.7-11.8,19.9-15.4,33.8-10.9c9,3,18.1,6,27.1,8.9
	c5.1,1.7,8.8,4.5,8.7,10.7c10.6-1.4,20.9-3.2,31.3-4.1c31.8-2.8,62.7,2.1,93.1,11.2c2.3,0.7,5.3,3.3,5.7,5.4
	c9.1,48.1,8.1,95.2-15.2,139.7c-4.5,8.1-9.8,15.8-15.8,22.9c-8.5,10.3-19.8,15.8-33.2,15.4c-19.8-0.7-39.7-1.6-59.4-3.5
	c-18.9-1.8-29.5-14.2-35.2-31.5c-0.8-2.3-1.5-4.7-2.5-8.2c-3.6,2-7.1,3.6-10.2,5.7c-2.4,1.6-4.6,3.5-6.3,5.9
	c-20.2,28.6-49.6,40.2-82.5,46.5c-16.9,3.3-33.4,9-50,14.1c-5.3,1.6-8.7,5.1-6.5,11.7c0.6,1.8-0.7,5.1-2.2,6.7
	c-3.6,4-7.6,7.6-11.9,10.7c-52.1,35.1-107.1,65.7-164.4,91.7c-4.4,2-6.3,3.9-5.4,9.1c1.2,6.9,1.7,14,1.5,21
	c-0.2,3.5-1.8,6.8-4.4,9.2c-1.5,1.3-6,0.3-8.3-1.1c-3.5-2.1-3.8-5.8-2.5-9.9C143,1199.2,144.6,1192.2,146.3,1185.9L146.3,1185.9z
	 M314.3,963.1c0.9,20.6,1.3,41.8,3.2,62.9c0.5,5.9,5,11.6,8.4,16.9c3.2,4.9,7.4,7.1,13.3,2.7c3.7-2.8,8.5-4.4,13-5.7
	c15.9-4.3,31.9-8.5,48-12.3c20.3-4.8,40.6-9.8,54.8-26.6c12.8-15.1,26.3-28.4,46.9-32.3c5.2-1,9-5,8.2-11.3l-24.6-3.6
	c0-0.8,0-1.7,0-2.5c7.3-0.8,14.6-1.5,21.8-2.4c1.7-0.2,4.2-0.5,4.8-1.7c3.2-5.1,5.9-10.4,8.2-15.9c0.7-1.8-0.5-6.2-1.6-6.5
	c-5.4-1.6-11-2.5-16.6-2.7c-7.2-0.3-14.5,0.6-21.7,0.7c-3.7,0-7.4-0.8-11.1-1.2c0-0.6,0-1.3-0.1-1.9c2.8-0.9,5.6-2.3,8.5-2.8
	c10.6-1.8,21.2-3.7,31.8-4.9c4.3-0.5,6.2-2.4,7.3-6.2c2.2-7.3-0.4-15.4-6.4-19.2c-1.3-0.8-2.9-1.3-4.5-1.3c-14,0.1-28,0.4-42,0.5
	c-2,0-3.9-1.2-5.9-1.9c1.5-1.5,2.8-3.8,4.7-4.3c8.3-2.3,16.8-3.8,25.1-6.3c4.5-1.3,9.9-2.8,12.7-6.1c4.2-4.9-0.7-13.9-8.3-14.5
	c-9.6-0.7-19.3-0.4-28.9,0.9c-31.2,4.4-56,19.1-72.5,46.6c-4.6,7.6-9.7,14.9-14.3,22.5C362.6,945.7,341.4,957.3,314.3,963.1
	L314.3,963.1z M508.7,980.5c2.3,19.5,11.1,28.7,30,30.4c16.7,1.5,33.5,2,50.2,2.7c12.7,0.6,22-5.7,29.8-15.2
	c9.4-11.6,15.8-24.6,20.8-38.6c11.7-33.3,12-67.3,6.9-101.7c-0.3-2.1-3.1-4.8-5.3-5.5c-36.7-12.1-74.6-13.9-112.8-12.6
	c-1.4,0.1-2.7,0.6-3.8,1.5c-3.7,3.3-7.2,6.8-10.2,9.7c0.4,7,0.7,14,1.2,21.7c16.3,10.7,19.3,18.6,14.4,39.7
	c-0.3,1.1-0.2,2.3,0.3,3.4c7.5,9.7,4.7,18.8-1,28.1c-2.2,3.6-4.3,7.9-4.7,12C523.4,967.2,519,975.8,508.7,980.5L508.7,980.5z
	 M510.5,840.5c-2.1-1.8-2.4-2.1-2.7-2.3c-6.8-2.4-13.5-4.8-20.3-7.2c-12.2-4.3-19.2-2.1-27.8,8.5c0.3,0.2,0.7,0.3,1.1,0.3
	c1-0.1,2-0.4,3-0.5c13.5-2,27-4.1,39.9,2.7C504.9,842.6,507.2,841.2,510.5,840.5L510.5,840.5z"/>
<path d="M578.2,619.7c-7.5,22.3-20.4,39.9-35.2,56.2c-14.4,15.9-33,17.3-49.5,4.1c-3-2.4-6.8-3.8-10.8-6.8c3.1-0.1,6.3-0.8,9.3-0.2
	s5.6,2.6,8.3,4.1c11.7,6.3,24.2,4.5,32.3-6c13.6-17.7,27-35.6,32.5-58c0.7-2.9,4.3-6.3,7.2-7.1c5.4-1.5,7.9,2.9,6.7,11.1
	c7,1.8,14.1,3.6,21.2,5.5c26.1,6.9,51.4,15.7,72.7,33.4c26.5,22,43.8,50.5,53.1,83c9.9,34.7,17.5,70.1,25,105.4
	c11.2,52.7,21.8,105.6,31.8,158.6c9.4,49.6,18.2,99.3,18.4,150c0.1,18-1.8,35.9-2.9,53.9c-0.3,5.1-2.4,8.8-8.4,8.5
	c-5.5-0.3-8-3.3-7.9-9.7c0.4-23.6,1.6-47.2,1.2-70.7c-0.5-40.2-6.3-80-13.9-119.4c-11.1-57.8-21.9-115.7-33.4-173.4
	c-7.1-35.6-13.8-71.4-26.4-105.7c-16.3-44.6-45.4-77.3-88.5-97.3C607.2,632.6,593,626.4,578.2,619.7z"/>
<path d="M699.3,880.4c-1.3,5.8-2.6,11.6-4,17.3c-12.7,50.1-16.1,101.2-14.9,152.6c0.9,39.3,2,78.6,2.3,117.9
	c0.1,15-1.4,30.1-2.4,45.1c-0.1,1.3-1.5,2.4-2.3,3.7c-1.2-1.1-3.4-2.1-3.6-3.4c-3.1-18.1-7.9-36.1-8.6-54.3
	c-1.6-44-2.2-88.1-1.3-132.1c0.8-37.8,3.7-75.6,15.9-111.9c4.2-12.5,9.5-24.5,17.1-35.3L699.3,880.4L699.3,880.4z"/>
<path d="M496.1,1099.3c-1.5,21-2.8,41.4-4.7,61.8c-0.4,4.4-2.3,8.8-4.2,12.9c-0.8,1.7-3.5,4-4.9,3.7c-1.8-0.4-4.3-2.8-4.7-4.7
	c-1.2-6.9-2.4-13.9-2-20.8c2.1-39.4,4.7-78.8,7.1-118.3c-0.1-1.2,0.1-2.5,0.5-3.7c1.2-2.6,2.7-5,4-7.4c1.4,2.6,3.7,5.1,3.9,7.7
	C493.1,1053.5,494.6,1076.6,496.1,1099.3z"/>
<path d="M519.1,424.5c10.6,2.4,19.1-1.3,27.4-6.5c6.5-4,14.5-1,14.4,5.9c0,3.6-2.7,8.5-5.7,10.5c-9.1,6.4-19.5,5.7-29.7,2.6
	c-1.9-0.7-3.8-1.5-5.6-2.4c-1.8,5.5-3.2,11-5.5,16.1c-1.9,4.1-5.3,7.1-10.5,5.7c-4.3-0.9-7.1-5-6.5-9.3c0.2-2.3,1.7-4.6,3.1-6.5
	c8-10.3,7.5-32.3-1.2-41.9c-0.8-0.7-1.8-1.2-2.8-1.7c2.6-4.6,6.2-3.5,8.3-0.5c4.7,6.9,8.6,14.4,12.6,21.7
	C518.5,420,518.5,422.3,519.1,424.5z"/>
<path d="M478.7,273.2c-1.5,1.4-3.7,5-6.8,6.1c-5.7,2.1-12,2.9-18.1,3.8c-8.9,1.2-17,5.9-22.4,13c-1.7,2.2-5.2,2.9-7.9,4.3
	c-0.7-3-2.6-6.3-2.1-9.1c3.4-17.9,29.1-34.8,47.1-31.4C474.4,261,478.5,265.5,478.7,273.2L478.7,273.2z"/>
<path d="M541.2,339.3c3.1-0.2,6.5-1.2,9.2-0.4c13.1,4,19.6,16.1,16.1,29.2c-3.6,13.3-15.3,21.2-28.8,17.9
	c-7.4-1.9-14.4-5.9-21.2-9.6c-4.3-2.3-5-6.4-1.9-10.5c3.1-4.1,6.5-3.6,10.2-0.8c3.3,2.5,6.8,4.8,10.3,6.8c7.7,4.1,14.8,3.4,18.6-1.6
	s3.2-12.4-2.4-18.6c-3.1-3.5-6.8-6.4-10.2-9.6L541.2,339.3z"/>
<path d="M223.1,856.7c4.4-1,8.8-2.2,13.3-2.9c32.8-5.3,65.6-10.5,98.4-15.7c1.4-0.2,3.1-0.8,4.3-0.3c2.1,0.9,3.8,2.5,5.7,3.8
	c-1.4,1.6-2.5,4.2-4.2,4.7c-6.5,1.9-13.2,3.3-19.9,4.2c-28.1,3.3-56.2,6.5-84.3,9.5c-4.3,0.5-8.6-0.4-13-0.7L223.1,856.7
	L223.1,856.7z"/>
<path d="M559.7,318.3c-0.2-12.7,10.9-23.4,22.7-23.7c12.4-0.3,25.9,11.5,27.1,23.7c0.6,6.3-1.8,10.3-6.4,11.1
	c-5.6,0.9-8.4-1.3-10-8.1c-1.2-5.4-3.4-10-9.4-11.1s-10.4,1.5-13.9,6.1c-0.7,1-1.4,2-2.3,2.9c-1.6,1.4-3.3,2.5-5,3.8
	C561.3,321,560.2,319,559.7,318.3L559.7,318.3z"/>
<path d="M550.3,270.4c2.3-2.3,4.2-5.2,6.8-6.8c16-9.5,41.2-3.8,51.3,11.9c1.9,2.9,2.5,7.5,2,11c-0.7,5.1-7.5,7-11.9,3.8
	c-2.1-1.5-3.7-3.8-5.4-5.9c-8.3-10.1-18.8-14.2-31.7-12.5c-3.3,0.4-6.6,0.4-9.9,0.6L550.3,270.4z"/>
<path d="M443.2,332.7c-5.3-4.6-4.6-9.8-3.5-14.3c2.4-10.3,13.6-18.7,24.3-18.9c12.1-0.2,25,7.9,28.1,17.7c1.3,4,1.3,8.2-2.9,10.3
	s-7.4-0.2-9.9-3.9c-10.5-15.2-23.2-14.5-32.3,1.7C445.7,327.5,444.7,329.7,443.2,332.7z"/>
<path d="M41.5,1087.2c-5.5-3-4.2-7.4-1.8-10.7c7.8-10.9,15.9-21.6,24.3-32c4-4.9,9.1-9,13.8-13.4c1.5-1.4,3.3-3,5.2-3.2
	c3-0.4,6.1,0.3,9.1,0.5c-0.5,3.2,0.1,7.5-1.8,9.4c-6,6.2-13.1,11.3-19.4,17.3c-8.6,8.3-17,16.9-25.3,25.5
	C44.1,1082.3,43.1,1084.6,41.5,1087.2L41.5,1087.2z"/>
<path d="M283.3,378.2c-1.6-6.9,1.2-10.5,6.8-10.8c5.7-0.3,11.5,0.1,17.1,1.1c6.5,1,12.8,2.9,19.3,4.5c5.3,1.3,7.3,4.9,5.5,9.6
	s-5.6,6.5-10.4,4.3c-8.4-3.9-16.8-7.9-25.1-11.9C291.5,372.7,286.6,370.9,283.3,378.2L283.3,378.2z"/>
<path d="M549.9,566.8c1.6,1.1,3.3,2,4.7,3.2c7.7,6.2,15.4,12.4,23.1,18.7c3.7,3,6.4,6.5,2.5,10.9c-3.9,4.4-8,2.4-11-1.3
	c-6.5-8.2-12.7-16.7-18.8-25.1c-1-1.5-1.3-3.5-1.9-5.3L549.9,566.8z"/>
<path class="st0" d="M314.3,963.1c27.1-5.8,48.2-17.4,62.2-40.3c4.6-7.6,9.7-14.9,14.3-22.5c16.6-27.5,41.3-42.2,72.5-46.6
	c9.6-1.4,19.3-1.7,28.9-0.9c7.6,0.6,12.5,9.5,8.3,14.5c-2.8,3.3-8.2,4.8-12.7,6.1c-8.3,2.4-16.8,4-25.1,6.3
	c-1.8,0.5-3.1,2.8-4.7,4.3c2,0.7,3.9,1.9,5.9,1.9c14,0,28-0.3,42-0.5c1.6,0,3.1,0.5,4.5,1.3c6,3.8,8.6,11.9,6.4,19.2
	c-1.1,3.8-3,5.7-7.3,6.2c-10.7,1.2-21.2,3.1-31.8,4.9c-2.9,0.5-5.7,1.8-8.5,2.8c0,0.6,0,1.3,0.1,1.9c3.7,0.4,7.4,1.2,11.1,1.2
	c7.2,0,14.5-0.9,21.7-0.7c5.6,0.2,11.2,1.2,16.6,2.7c1.1,0.3,2.3,4.7,1.6,6.5c-2.3,5.5-5.1,10.8-8.2,15.9c-0.7,1.1-3.1,1.4-4.8,1.7
	c-7.3,0.9-14.5,1.6-21.8,2.4c0,0.8,0,1.7,0,2.5l24.6,3.6c0.8,6.2-3,10.3-8.2,11.3c-20.5,3.9-34.1,17.2-46.9,32.3
	c-14.2,16.8-34.5,21.8-54.8,26.6c-16,3.8-32,8-48,12.3c-4.5,1.2-9.3,2.9-13,5.7c-6,4.4-10.2,2.2-13.3-2.7
	c-3.4-5.3-7.9-11.1-8.4-16.9C315.5,1004.9,315.1,983.7,314.3,963.1L314.3,963.1z M414.5,898c-0.9,5.7-2.2,10.7-2.2,15.6
	s1.2,10,2.2,15c1.2,5.7,2.7,11.4,4.5,16.9c1.5,4.6,2.9,9.4,5.7,13.1c1.3,1.7,5.7,1.8,8.5,1.3c1.5-0.2,3.7-3.5,3.4-5.1
	c-1.3-9.1-3.1-18.2-5.3-27.1c-1.8-6.9-4.8-13.4-7-20.2C422.6,902.5,420.7,898,414.5,898L414.5,898z"/>
<path class="st0" d="M508.6,980.5c10.4-4.7,14.8-13.3,15.8-24.5c0.4-4.1,2.4-8.4,4.7-12c5.7-9.3,8.5-18.4,1-28.1
	c-0.6-1-0.7-2.2-0.4-3.3c5-21,2-29-14.4-39.7c-0.4-7.7-0.8-14.7-1.2-21.7c3-2.9,6.5-6.4,10.2-9.7c1.1-0.9,2.4-1.4,3.8-1.5
	c38.2-1.3,76.1,0.5,112.8,12.6c2.2,0.7,5,3.4,5.3,5.5c5.1,34.4,4.8,68.5-6.9,101.7c-4.9,13.9-11.4,27-20.8,38.6
	c-7.7,9.5-17.1,15.7-29.8,15.2c-16.7-0.7-33.5-1.2-50.2-2.7C519.7,1009.2,511,1000,508.6,980.5z"/>
<path class="st0" d="M510.4,840.5c-3.2,0.8-5.5,2.2-6.8,1.5c-13-6.7-26.4-4.7-39.9-2.7c-1,0.2-2,0.4-3,0.5c-0.4,0-0.7-0.1-1.1-0.3
	c8.6-10.7,15.6-12.8,27.8-8.5c6.8,2.4,13.5,4.8,20.3,7.2C508.1,838.3,508.4,838.7,510.4,840.5L510.4,840.5z"/>
<path d="M414.5,898c6.2,0,8.1,4.4,9.8,9.6c2.1,6.8,5.2,13.3,7,20.2c2.2,8.9,4,18,5.3,27.1c0.2,1.6-2,4.8-3.4,5.1
	c-2.8,0.5-7.3,0.4-8.5-1.3c-2.8-3.8-4.2-8.6-5.7-13.1c-1.8-5.6-3.3-11.2-4.5-16.9c-1.1-4.9-2.2-10-2.2-15S413.6,903.7,414.5,898
	L414.5,898z"/>
<circle class="st1" cx="455.3" cy="74" r="73.5"/>
</svg>
