<?xml version="1.0" encoding="utf-8"?>
<!-- Generator: Adobe Illustrator 24.2.1, SVG Export Plug-In . SVG Version: 6.00 Build 0)  -->
<svg version="1.1" id="a" xmlns="http://www.w3.org/2000/svg" xmlns:xlink="http://www.w3.org/1999/xlink" x="0px" y="0px"
	 viewBox="0 0 786.1 1148.4" style="enable-background:new 0 0 786.1 1148.4;" xml:space="preserve">
<style type="text/css">
	.st0{fill:#FFFFFF;}
</style>
<path d="M754,874c1.9,3.2,4.1,6.1,5.4,9.3c18.8,46.4,21.2,93.9,8.6,142.3c-1.6,6-3,12-4.8,17.9c-1,3.5-34,73.5-65.1,85.4
	c-7.2,2.7-15.2,3.5-22.9,4.6c-7.1,1-13.6,2.4-18.1,9c-1.2,1.9-4.4,3-6.8,3.4c-24,4.2-48,2.5-72-0.5c-22.7-2.8-86.5-8.2-95.8-8.1
	c-80.4,0.9-160.7,2.2-241.1,3.5c-20,0.3-40,1.2-59.9,2c-3.9,0.2-5.7-1.2-6.6-4.7c-0.5-2.6-36.9,5.9-52,6c-5.3,0-6.6-3.8-6.1-7.4
	c1.6-12.2-5.6-16.5-15.4-20c-26.8-9.5-43.8-30-57.3-53.7c-16.6-29.1-25.7-61-32.5-93.5c-11-53.9-14.3-109.2-9.4-164
	c0.3-2.9,3.6-30.4,4.8-37.3c9.6-58.7,29.9-115.1,59.8-166.4c2.6-4.4,5.9-8.5,8.3-13c2.6-4.9,13.6-18.1,15.4-20.1
	c25.9-29.7,59.4-47.1,96.3-58.7c34.4-10.9,70-16.4,105.4-22.4c15.9-2.7,31.6-6.2,44.2-17.4c3.8-3.5,7.2-7.3,10.3-11.3
	c2.5-3.2,4.7-6,9.6-2.5c1.8-8.6,3.5-16.4,5.2-24.3c5.2,7.3,5.1,15.1,3.2,22.5c-1.5,5.6,0.4,8.1,4.6,11.5
	c20.7,16.9,45.4,22.5,70.8,26.6c17.7,2.9,35.5,5.1,53.5,2.7c2-0.3,4.1-0.7,6-1.2c13.7-3.2,13.8-3.5,13.4-17.2
	c-0.1-4.3,0.1-8.6,0.6-12.9c0.4-4.3,1.3-8.5,2.1-13.3c-10.1,0-20.6,0.8-30.9-0.2c-9.2-0.8-18.3-2.9-26.9-6.2
	c-6.4-2.5-12-7.6-17.4-12.2c-1.5-1.3-2.2-5.4-1.3-7.2s4.6-2.9,6.7-2.5c11.1,2.2,22,5.2,33.1,7.4c59.8,11.7,117.6-28.2,124.9-88.4
	c3.4-28.1,2.8-56.8,2.2-85.1c-0.9-38.5-3.5-77-5.7-115.5c-0.1-2.4-2.1-4.9-3.7-7c-1.2-1.6-3.7-2.3-4.6-4c-4.2-7.5-9.6-6.9-16.9-4.3
	c-15.8,5.6-32.4,8-49.2,6.1c-7.8-0.9-14.7,1.3-21.4,4.3c-21.2,9.5-43.5,14.9-66.4,18.4c-3.9,0.6-7.8,0.7-11.7,0.2
	c-6.9-1.1-9.4-6.6-6.1-12.8c1.5-2.7,3-5.4,4.7-8.3c-0.8-0.2-1.4-0.6-1.8-0.5c-21.7,5.6-43.3,11.5-65,16.8c-5.8,1.4-8.6,4.3-10.5,9.8
	c-10.6,31.1-15.4,63.1-15.7,95.9c0.1,1.8-0.1,3.7-0.4,5.5c-1.5,5.7-6.3,7.4-10.8,3.5c-3.7-3.2-6.4-7.7-10.4-10.5
	c-6.2-4.5-12.7-8.9-19.8-11.8c-5.3-2.2-11.1,0.2-13.4,5.9c-6.7,15.8-11.9,32.1-8.5,49.6c2,10.4,11,21.9,24.7,18.3
	c1.4-0.2,2.9-0.2,4.3-0.1c7.9,0,9.7,2.5,6.8,9.7c-0.4,0.9,7.6,13.5,11,19.3c8.1,13.9,19.5,24.8,31.6,35.3
	c7.5,6.4,14.2,13.6,20.2,21.5c2.7,3.6,3.2,9.6,3.1,14.5s-4.3,5.9-8,2.6c-3-2.7-5.5-6.1-8.2-9.2c-5.3-6.1-10.1-12.5-15.8-18.1
	c-10.2-10.2-20.9-19.9-27-33.8c-6.5,3.3-29.9-21-28.4-23.8c-28.4-7.5-33.9-32.3-30.8-52.5c1.5-10.3,5.3-20.2,7.9-30.4
	c0.4-1.7,0.8-4.3-0.1-5.4c-12.5-14.8-14.9-32.8-15.5-51c-1-34.9,8-67.2,26.2-97c0.5-0.9,1-1.8,1.5-2.7c-6.9-9.4-6.6-12,2-20.6
	c1.1-1.1,1.8-2.5,2-4.1c0.6-10.1,6.3-16,15.8-13.4c9.1,2.5,14.6-0.9,21.3-5.9c26.9-20.3,58.2-31.4,90.3-40.3
	c25.3-7,51-11.6,77.5-10.2c11.3,0.6,22.4,3,33,6.9c27.9,10.2,55.4,22.1,85.6,24.3c6.9,0.5,8.7,5.7,5.8,13.1c3,1.8,7,2.9,8.6,5.4
	c1.8,2.8,1.3,7,1.9,11.1c8.3,1.8,10.7,8,10.5,16.4c0.1,11.7-3.8,23.1-11.1,32.3c11,12.9,14.4,27.9,11.4,44.4
	c-1.3,7.2-4.5,12.9-12.5,14.5c0.8,10.8,2,21.4,2.5,32.1c1.7,39.1,3.8,78.2,4.5,117.3c0.5,29.8-6,58.2-24.1,82.8
	c-19.1,25.9-44.3,42.6-76.1,48.8c-0.6,0.2-1.2,0.4-1.8,0.7c1.2,8.1,2.4,16.2,3.6,24.2c15-0.4,21.3,3.8,26.3,17.9
	c2.6,7.2,8.1,12.8,11.3,19.1c5.9,11.6,16.8,12.5,25.9,17.1c23.6,12,80.5,39.8,90.6,52.1c5.7,6.8,9.4,15.3,13.7,23.2
	c3,5.6,5.4,11.6,7.8,17.4c2.3,5.4,6.1,7.1,12,7.5c22.2,1.7,44.3,3.8,66.4,6.2c10.1,1.1,10.8,2.5,6.8,11.5
	c-15.3,34-30.6,67.8-46,101.9c8.6,5.6,13.6,19.1,10.3,31.7c-2.1,8.2,0.7,13.9,6.9,18.8c10.8,8.6,11.4,11.4,4.4,23.3
	c-2.1,3.5-2.5,6.5,0.8,9.3c7.8,6.3,7.7,14.2,4,22.3C760.9,860.9,757.1,867.8,754,874z"/>
<path class="st0" d="M658.4,799.6c-6.6-15.4-3.5-30,13.2-37.2c15-6.6,30.5-11.2,46.9-12.3c4.1-0.3,6.7-1.5,8.6-5.4
	c7.8-15.7,16.3-31,23.9-46.7c8.5-17.6,16.3-35.5,24.7-53.9c-3.7-0.5-6.5-1-9.3-1.3c-9.8-1-19.6-2.4-29.5-3
	c-27.5-1.7-55.1-3.1-82.7-4.4c-2.6-0.1-6.1,0.8-7.8,2.5c-3.6,3.6-6.7,7.7-9.2,12.2c-11.2,20.6-21.8,41.5-33.1,62.1
	c-4.5,8.2-10.1,15.8-15.4,24l10.4,1.5c2-4.2,3.9-8.1,5.9-11.9c1.8-3.4,1.8-8.4,8.3-9.2c-0.7,9.6-6.9,15.3-11,21.6
	c16.1,13.3,27.8,29.8,36.7,48.3c2.6,5.6,3.5,11.5,0.5,17.3c-1.9,3.7-4.8,6.9-9,5c-1-0.5-0.7-7.1,0.9-9.4c2.2-3.2,1.9-5.3,0.6-8.3
	c-6.1-14.5-16-26.3-25.9-38.2c-3.9-4.7-8.8-7.7-14.9-7.6c-11.1,0.1-22.2,0.8-33.3,1.3c-26.7,1.1-46.5,11.7-59.5,36.7
	c-13.1,25.8-35.2,45.8-62.1,56.4c-4.4,1.7-8.6,3.9-12.6,6.5c-2.1,1.4-4.3,4.2-4.5,6.5c-1.1,13.1-2.2,26.3-2.3,39.5
	c-0.1,13.4,2,26.5,6.7,38.2c12-5.2,23.4-10.9,35.3-15.1c13.2-4.6,26.9-2,40.4,0c12.1,1.8,21.9-1.6,29-12c3.2-4.8,6.7-9.3,10.4-13.8
	c4.9-5.9,11.4-9.2,19-8.7c10.1,0.6,16-3.4,18.4-13.7l-30.9-22.2c3.3,0,5.7-0.7,7.7,0.1c12.2,4.8,24.1,10.2,31.5,22.6
	c14.6-8,7.3-21.1,8.2-32.4c-12.9-4.5-25.5-8.8-38.1-13.3c-3.9-1.4-8.9-3.2-7.5-8.1c1.6-5.5,6.9-3.2,10.6-2
	c13.7,4.5,27.3,9.2,40.8,14.1c8.5,3,15.2,9.7,18,18.3c0.8,2.2,2.5,4.1,4.5,7.5c1.1-2.2,2-4.4,2.9-6.7c5-17.7-5.1-40.8-22.4-47.4
	c-13.4-5.1-27.6-7.9-41.5-11.5c-3.7-1-7.5-1.5-11.3-2.2c4.7-1.5,9.2-1.8,13.5-2.7c8.6-1.6,17.2-4.2,25.8-4.8
	c4.4-0.3,10.2,1.7,13.3,4.7c8.5,8.5,16.1,18,23.7,27.3c2,2.5,3.1,5.8,4.5,8.7c0.7,1.3,1.3,2.6,1.3,2.6L658.4,799.6z"/>
<path class="st0" d="M664.4,793.6c12.3-2.8,24.7-5.6,37.1-8.3c3.8-0.9,7.7-1.4,11.5-1.7c1.5,0.2,2.8,1.2,3.4,2.7
	c0.2,0.9-1.3,3-2.5,3.4c-4.2,1.7-8.5,2.9-13,3.7c-21.3,2.9-40.2,11.4-57.6,23.7c-6.5,4.6-8.7,11.1-5.9,15.9
	c3.7,6.1,9.4,3.9,14.4,2.8c22.3-5,44.5-10.2,66.7-15.1c2-0.4,4.5,1.2,6.7,1.8c-1.7,1.4-3.2,3.6-5.2,4c-21.4,5.1-42.7,10.4-64.3,14.7
	c-10.9,2.2-18.5,8.5-25.4,16.2c-1.4,1.6-1.4,4.4-2.1,6.6c2.4,0.6,5,2,7.3,1.7c18.8-3.1,37.6-6.8,56.5-9.8c9.5-1.5,19.2-2.2,28.8-2.9
	c1.8-0.1,3.6,1.6,5.5,2.4c-1.7,1.4-3.1,3.3-5,4c-2.2,0.8-4.9,0.6-7.3,0.9c-22,3.1-44,6.2-65.9,9.6c-6.1,1-10.2,9-9.2,16.5
	c0.9,6.4,4.6,9.3,12.5,8.5c28.9-2.8,57.2-7.6,84-20.3c11.8-5.6,17.2-14.4,21.7-25c2.1-5,1.3-9.4-3.1-13.3c-6.4-5.6-6.6-9.7-1.8-16.6
	c6.2-9,6.3-9.3-2.3-16.5c-5.7-4.8-9-10.8-7-17.9c2.4-8.7-0.7-16.2-3.4-23.8c-1.3-3.7-3.9-5.2-8.1-5.2c-19.8,0.2-39.4,4.7-57.3,13.2
	C663.3,774.5,660.9,780.7,664.4,793.6L664.4,793.6z"/>
<path class="st0" d="M116.4,949.9c6.1-2.3,11.5-4.9,17.2-6.3c32.1-7.8,64.3-15.2,96.4-22.8c20.6-4.9,41.2-9.6,61.6-15.2
	c8-2.2,15.5-6.5,23.1-10.1c1.1-0.5,1.5-2.6,2.2-3.9c-1.4-0.4-2.8-1.3-4.2-1.2c-2.7,0.3-5.3,0.8-7.9,1.5
	c-22.9,5.7-45.8,11.6-68.7,17.2c-15.5,3.7-31.1,7-47.1,10.6c3.9-46.3,9.5-92.2-4.5-137.3c5.2,46.6,1,92.9-3.8,139.2
	c-10.8,3.5-22,6.9-33.1,10.8C136.3,936.3,124.7,939.7,116.4,949.9L116.4,949.9z"/>
<path class="st0" d="M165.7,1084.1l1.2,1.8l23.3-10.7c48.6-22.3,97.1-44.5,145.7-66.8c2.6-1.2,5.1-2.7,7.3-4.6
	c1.3-1.2,1.7-3.3,2.5-5.1c-1.6-0.4-3.4-1.4-4.9-1.1c-2.8,0.5-5.6,1.3-8.2,2.6c-49.9,24.7-99.8,49.5-149.7,74.4
	C177.1,1077.5,171.5,1080.9,165.7,1084.1L165.7,1084.1z"/>
<path d="M489.6,369.7c-10.5-2.3-21.4-3.8-31.5-7.3c-10.5-3.6-18.2-11.2-21.2-22.5c-1.8-6.6-0.5-9,6.2-9.5c8-0.6,16-0.8,24.1-0.9
	c24.9-0.1,49.9-0.1,74.8,0c11,0.1,15.1,7,8.7,16.1c-3.9,5.5-9.8,10.1-15.7,13.3c-13.9,7.4-29.3,9.1-44.9,9.3L489.6,369.7
	L489.6,369.7z M539.6,337.7c-0.1-0.8-0.3-1.5-0.4-2.3h-82.1l-0.8,2.5c2.6,1.3,5.2,3.7,7.8,3.8c16.8,0.3,33.7,0.6,50.5-0.1
	C523,341.2,531.3,339,539.6,337.7L539.6,337.7z"/>
<path d="M499.3,265c9-6.2,18.8-9.8,30-8c7.3,1.2,11.5,6.4,12.9,14.7c3.1,18.7-18.9,37.6-37,31.9c-7.3-2.3-10.5-9.3-6.8-15.6
	c2-3.5,4.9-5.3,9.2-3.2c7.2,3.5,13.9,1.5,19.5-3.1c2.3-1.8,4.2-6.2,3.6-8.9s-4.1-5.8-6.9-6.5c-4.2-1.1-8.9-0.5-13.4-0.4
	c-3.6,0.1-7.1,0.8-10.7,1.2L499.3,265z"/>
<path d="M526.3,203.6c7.3-12.1,19.8-16.4,33.2-12c9.5,3,17.5,9.7,22,18.6c1.1,2.2,2.4,4.2,3.9,6.1c3.7,4.6,3.9,8.9,0.3,12.7
	s-10,4.5-13.8,0.7c-2.2-2.4-3.9-5.2-5.1-8.2c-6-14-18.9-21.2-34.2-18.9C530.7,202.9,528.9,203.2,526.3,203.6L526.3,203.6z"/>
<path d="M407.3,243.9c-6.2-24.4,14.6-53.2,37.6-54.2c6.1-0.3,11.3,2,14.5,7.6s0.3,11-6.2,11.3c-3.1,0-6.2-0.2-9.2-0.6
	c-10.9-1.3-18.9,3.2-24.3,12.4C415.5,227.7,411.9,235.2,407.3,243.9z"/>
<path d="M426.9,264.6c-6.8-4-6.6-9-5.1-14.2c4.8-16.5,24.4-21.9,37.6-10.3c3.1,2.6,5.9,5.6,8.4,8.9c2.9,4.1,0.7,8-2.4,10.9
	c-3.4,3.2-7.2,2.4-10.3-0.8c-1.2-1.3-1.8-3.2-2.7-4.8c-4.4-7.7-13.7-8.1-18.5-0.8C431.6,257.1,429.4,260.7,426.9,264.6L426.9,264.6z
	"/>
<path d="M295.2,286.6c-4.3,3.3-9,5.6-13.6,0.8c-4-4.1-3.3-8.5-0.4-11.9c-0.9-3.4-1.6-6.1-2.3-8.8c2.9-0.5,6-2,8.6-1.4
	c10.4,2.6,19.9,8.1,27.3,15.9c3.7,3.7,3.3,8.5,0,12.3c-3.5,4.1-8.1,3.7-12.2,0.7C299.9,292.2,297.8,289.3,295.2,286.6L295.2,286.6z"
	/>
<path d="M542.1,256.4c-6.8-3.6-8.4-10.9-4.3-17.4c5.2-8.1,17-10,25.7-4.1c7.6,5.1,12,16.6,10,25.6c-0.9,4-3.2,7-7.1,5.7
	c-2.3-0.8-4.3-4.1-5.4-6.8s-0.5-5.7-1.1-8.5c-1-4.3-3.8-6.6-8.3-6.8s-6.6,2.7-7.8,6.5C543.1,252.4,542.7,254.3,542.1,256.4
	L542.1,256.4z"/>
<path class="st0" d="M539.6,337.7c-8.3,1.4-16.6,3.6-25,3.9c-16.8,0.6-33.7,0.4-50.5,0.1c-2.6,0-5.2-2.5-7.8-3.8l0.8-2.5h82.1
	C539.3,336.1,539.5,336.9,539.6,337.7L539.6,337.7z"/>
<path d="M283.1,333.9"/>
</svg>
