<svg id="a" xmlns="http://www.w3.org/2000/svg" viewBox="0 0 816.54 1215.8"><defs><style>.cls-1{fill:#fff;}</style></defs><path class="cls-1" d="M965.59,1245.59c2.55.12,4.58.37,6.61.29,14.61-.53,29.47.39,43.77-2,34-5.71,57.62-24.81,65.31-59.36,9.7-43.59,8.59-87-7-129.37-1.28-3.5-1.21-5.63,1.3-8.69,9.84-12,9.72-23.83.26-36.19-.37-.49-.79-1-1.12-1.46Q1014.41,916.94,954,825.11c-13.93-21.07-29.39-41-49-57.29-22.95-19.15-50.22-28.73-78.55-36.26-6.81-1.81-14.21-3.88-19.53-8.11a37.06,37.06,0,0,1-14.25-25.26c-.72-6.22-2.85-12.28-4.39-18.6,1.66-.52,4.82-1.42,7.93-2.47,25-8.53,49.94-17.54,72-32.56,23-15.66,35.68-37.22,33.82-65.56-1.25-19.14-3.52-38.25-6.13-57.26C891.09,486.38,886,451,880.32,415.8c-3.16-19.49-7.86-38.72-11.93-58.37,11-3,9.07-13,10.67-21.05,6.79-.56,13.35-.86,19.85-1.68,15.56-2,26.09-10.61,28.92-23.94.84-4,.56-8.19.75-11.56,7.79-4.4,15.61-8.1,22.64-12.94,11.95-8.24,13.12-16.43,2.06-25.94a17.38,17.38,0,0,1-1.73-2c2.47-1.43,4.91-2.59,7.07-4.13,20.22-14.35,14.07-34.5-1.6-43a84.64,84.64,0,0,0-8.91-4.27c-61.24-24.37-124.65-33.24-190.18-26.17-77.51,8.36-146.71,36.1-205.28,88.55a12,12,0,0,1-8.62,2.6c-22-3-38.59,16.73-31.47,37.76a7.38,7.38,0,0,1-.27,5.46c-5.52,9.17-5.28,16.71,1.34,25.07,2.44,3.08,5.08,6,7.59,9,3.69,4.42,3.65,8.89.42,13.62-11.83,17.31-16.35,36.72-16.55,57.43-.24,24.65,5.83,48.26,11.15,72,.64,2.82-.26,6.19-1.15,9.08-2.05,6.67-5.41,13-6.7,19.83-5,26.24,8.86,50,32.8,57.26a44.24,44.24,0,0,0,31.58-1.91c.35,1,.63,1.78.83,2.54,7.73,29.63,22.15,55.42,43.89,77.07,1.09,1.09,2,3.39,1.61,4.77-3.09,11.75-6.3,23.47-9.86,35.08-2.57,8.36-8.94,11.77-17.41,12.28-9.89.6-19.74,1.94-29.63,2.29-7.1.26-14.35-1.56-21.33-.74a393.27,393.27,0,0,0-88.4,20.85c-61.49,22.26-107.85,61.16-133,122.52-8.57,20.93-15.39,42.69-21.52,64.49-13.48,48-21.56,97-26.76,146.52-1.39,13.28,3.42,22.52,15.46,28,10.47,4.79,21.45,8.48,32.07,13,2.58,1.09,5.58,3,6.72,5.37,5.4,11.13,10.33,22.49,15.13,33.9a17.35,17.35,0,0,1,.82,7.75c-.61,8.22-2.31,16.43-2.18,24.62.44,27.27,1.44,54.52,2.34,81.77q1.33,40.28,2.93,80.55c.34,8.23.5,16.59,2,24.64,2.38,12.46,14.49,17,25.37,10.39a13,13,0,0,1,7.87-1.71c27.58,3.91,55.05,8.79,82.7,12,60.41,7.11,121.15,9.09,181.91,9.54,37.4.27,74.83,0,112.21-1.14q55.13-1.68,110.16-5.76c34.15-2.57,68.18-6.71,102.25-10.21a8.27,8.27,0,0,0,4-1.26c7.72-5.77,9.85-17.51,6-26.37-3.08-7.07-6.25-14.58-7-22.14-2.65-26.9-4.29-53.9-6.36-81.58Z" transform="translate(-270.97 -178.35)"/><path d="M965.59,1245.59c2.07,27.68,3.71,54.68,6.36,81.58.74,7.56,3.91,15.07,7,22.14,3.86,8.86,1.73,20.6-6,26.37a8.27,8.27,0,0,1-4,1.26c-34.07,3.5-68.1,7.64-102.25,10.21q-55,4.13-110.16,5.76c-37.38,1.15-74.81,1.41-112.21,1.14-60.76-.45-121.5-2.43-181.91-9.54-27.65-3.26-55.12-8.14-82.7-12a13,13,0,0,0-7.87,1.71c-10.88,6.57-23,2.07-25.37-10.39-1.54-8-1.71-16.41-2-24.64q-1.64-40.28-2.93-80.55c-.9-27.25-1.9-54.5-2.34-81.76-.13-8.2,1.57-16.41,2.18-24.63a17.35,17.35,0,0,0-.82-7.75c-4.8-11.41-9.73-22.77-15.13-33.9-1.14-2.35-4.14-4.28-6.73-5.37-10.61-4.51-21.59-8.2-32.06-13-12-5.52-16.85-14.76-15.46-28,5.2-49.52,13.28-98.56,26.76-146.52,6.13-21.8,13-43.56,21.52-64.49,25.14-61.36,71.5-100.26,133-122.52a393.27,393.27,0,0,1,88.4-20.85c7-.82,14.23,1,21.33.74,9.89-.35,19.74-1.69,29.63-2.29,8.47-.51,14.84-3.92,17.41-12.28,3.56-11.61,6.77-23.33,9.86-35.08.37-1.38-.52-3.68-1.61-4.77-21.74-21.65-36.16-47.44-43.89-77.06-.2-.76-.48-1.5-.83-2.55a44.24,44.24,0,0,1-31.58,1.91c-23.94-7.28-37.77-31-32.8-57.26,1.29-6.79,4.65-13.16,6.7-19.83.89-2.89,1.79-6.26,1.15-9.08-5.32-23.77-11.39-47.38-11.15-72,.2-20.71,4.72-40.12,16.55-57.43,3.23-4.73,3.27-9.2-.42-13.62-2.51-3-5.15-5.91-7.59-9-6.62-8.36-6.86-15.9-1.34-25.07a7.38,7.38,0,0,0,.27-5.46c-7.12-21,9.42-40.76,31.47-37.76a12,12,0,0,0,8.62-2.6c58.57-52.45,127.77-80.19,205.28-88.55,65.53-7.07,128.94,1.8,190.18,26.17a84.64,84.64,0,0,1,8.91,4.27c15.67,8.51,21.82,28.66,1.6,43-2.16,1.54-4.6,2.7-7.07,4.13a17.38,17.38,0,0,0,1.73,2c11.06,9.51,9.89,17.7-2.06,25.94-7,4.84-14.85,8.54-22.64,12.94-.19,3.37.09,7.58-.75,11.56-2.83,13.33-13.36,22-28.92,23.94-6.5.82-13.06,1.12-19.85,1.68-1.6,8,.31,18-10.67,21.05,4.07,19.65,8.77,38.88,11.93,58.37C886,451,891.09,486.38,895.94,521.74c2.61,19,4.88,38.12,6.13,57.26,1.86,28.34-10.82,49.9-33.82,65.56-22.06,15-47,24-72,32.56-3.11,1-6.27,2-7.93,2.47,1.54,6.32,3.67,12.38,4.39,18.6A37.06,37.06,0,0,0,807,723.45c5.32,4.23,12.72,6.3,19.53,8.11,28.33,7.53,55.59,17.11,78.55,36.26,19.59,16.33,35.05,36.22,49,57.29q60.62,91.67,120.7,183.69c.33.51.75,1,1.12,1.46,9.46,12.36,9.58,24.17-.26,36.19-2.51,3.06-2.58,5.19-1.3,8.69,15.59,42.38,16.7,85.78,7,129.37-7.69,34.55-31.3,53.65-65.31,59.36-14.3,2.4-29.16,1.48-43.77,2-2,.07-4.06-.18-6.61-.3ZM854.51,325.39c-1.6.26-2.82.44-4,.66a493.7,493.7,0,0,1-127.17,6c-33.09-2.68-66-7.23-98.24-15.6-4.59-1.19-7-.35-9.11,4.06-6.58,13.6-8.53,27.45-3.85,42,1.58,4.91,3.23,9.82,4.4,14.84,3.58,15.35-1.83,25.77-16.33,31.71-3,1.25-6.23,2.17-9.39,3.14-11.06,3.43-11.72,4.35-11.23,16.23.7,17.35,1.48,34.69,2.11,52,.21,5.57,0,11.15,0,16.19-1.78.2-3.71,0-5.26.65-5.77,2.45-10.3,1.74-13-3.88-2.17-4.45-5.13-4.24-8.58-3.49-10.94,2.37-19,8.74-24.34,18.48-.88,1.62-.12,4.13-.12,5.15-1.4,1.32-3.14,2.16-3.32,3.26-.83,5.07-1.89,10.23-1.66,15.31.75,16.17,9.87,26.86,24.67,28.68,4.72.57,9.74-.59,14.54-1.41,6.39-1.09,12.37,2.36,12.78,7.23a27.17,27.17,0,0,0,2.76,10,107.55,107.55,0,0,0,8.45,13c15.86,21.91,30.94,44.53,55.92,57.71,2.41,1.27,5.09,6.1,4.4,8.24-1,3.13-4.61,7-7.68,7.55-5.7,1.11-6.45,4.14-7,8.85-1.38,12.62-4.56,24.79-11.44,35.66-6.66,10.51-15.86,17.13-28.65,18.19-8,.67-16.06,1.39-24,2.58-12.37,1.86-12.91,3.26-6.4,13.58.66,1.05,1.3,2.11,2,3.13,35.3,51.58,83.38,80.22,146.63,80.57,27.79.16,50.77-10,62.85-36.79,5.72-12.72,9.4-26.34,14.36-39.42,1.72-4.54,1.07-7.79-1.58-11.88-11-17-16.16-35.1-8-55.48-1.68.29-3,.57-4.41.77-18.13,2.63-36.21,5.88-54.43,7.64-10.14,1-20.09-2-28.7-8.07-5.33-3.74-9.16-8.72-9.3-15.3-.06-2.8,1.49-6.78,3.64-8.19,3.16-2.06,6.09.48,8,3.67,3.77,6.38,9.23,10.73,16.63,11.71,5.91.77,12,1.52,17.87.74a384.9,384.9,0,0,0,38.94-6.87c32.59-7.84,63.18-20.27,90.07-40.9,16.55-12.71,25.08-29.24,23.09-50-3.94-40.89-8.55-81.72-13.2-122.54-4.85-42.59-12-84.93-13.16-127.9a7.66,7.66,0,0,0-.48-1.57ZM984.94,1047.2c3,.31,6,.57,8.92.94,6.33.79,12.71,1.35,19,2.57a9.82,9.82,0,0,1,8.37,9.5c.34,4.91-1.67,9.27-6.24,11.18a24.89,24.89,0,0,1-11.35,2c-32.89-2.9-65.91-5-98.59-9.5-56.14-7.81-112.11-16.92-168-26.06-45.52-7.44-91-13.91-137.35-10.82-25.09,1.67-49.12,7.89-73.47,15.62,4.78,11.17,9.44,21.89,14,32.67,4.87,11.62,5.75,11.31,17.92,11.26,18.93-.07,38,0,56.77,2.23,38.45,4.6,72.83,20.51,105,41.49,28.2,18.39,56.87,35.89,87.9,49.28,43,18.55,88,29.26,134.07,36,21.72,3.19,43.46,5.4,65.4,2.55,28.25-3.66,44-18.21,48.72-46.28a253.09,253.09,0,0,0,3.16-35.11c.6-22.61-1-45.08-9.48-66.37-4.09-10.31-9.14-20.25-13.94-30.27-.46-.95-2.27-1.71-3.48-1.76-16.27-.61-31.91,2.55-47.22,8.84Zm-642.73,20.54c6,16.93,10.81,32.75,17.17,47.92,17.95,42.88,41.88,82,75.83,114.27,9.59,9.13,19.94,17.23,32.79,21.72,17.64,6.17,35.08,3.49,52.45-.66a1258.73,1258.73,0,0,0,192-62.91c9.55-4,19-8.22,29.51-12.78-15.64-9.79-30.14-18.84-44.6-28-30.89-19.43-64.14-32.19-100.74-35-15.64-1.2-31.35-1.29-47-2.15-12.91-.71-22.34-6.64-26.46-19.4-4-12.34-8-24.7-11.45-37.2-1.09-3.89-2.87-5.13-6.65-5.72-36.49-5.77-72.5-2.46-108.18,5.81-17.82,4.14-35.45,9.09-54.62,14Zm522.62-34.44.57,2.14,59.76,7.11,1.24-1.82c-5.32-5.51-10.41-11.28-16-16.47a17.59,17.59,0,0,0-19.62-3.39c-8.81,3.72-17.28,8.25-25.91,12.43Z" transform="translate(-270.97 -178.35)"/><path class="cls-1" d="M854.51,325.39A7.66,7.66,0,0,1,855,327c1.14,43,8.31,85.32,13.16,127.9,4.65,40.82,9.26,81.65,13.2,122.54,2,20.72-6.54,37.25-23.09,50-26.89,20.63-57.48,33.06-90.07,40.9a384.9,384.9,0,0,1-38.94,6.87c-5.83.78-12,0-17.87-.74-7.4-1-12.86-5.33-16.63-11.71-1.88-3.19-4.81-5.73-8-3.67-2.15,1.41-3.7,5.39-3.64,8.19.14,6.58,4,11.56,9.3,15.3,8.61,6.06,18.57,9,28.7,8.07,18.22-1.76,36.3-5,54.43-7.64,1.37-.2,2.73-.48,4.42-.77-8.14,20.38-3,38.49,8,55.48,2.65,4.09,3.3,7.34,1.58,11.88-5,13.08-8.64,26.7-14.36,39.42-12.08,26.84-35.06,36.95-62.85,36.79-63.25-.35-111.33-29-146.63-80.57-.7-1-1.34-2.08-2-3.13-6.51-10.32-6-11.72,6.4-13.58,8-1.19,16-1.91,24-2.58,12.79-1.06,22-7.68,28.65-18.19,6.88-10.87,10.06-23,11.44-35.66.52-4.71,1.27-7.74,7-8.85,3.07-.59,6.69-4.42,7.68-7.55.69-2.14-2-7-4.4-8.24-25-13.18-40.06-35.8-55.92-57.71a107.55,107.55,0,0,1-8.45-13,27.17,27.17,0,0,1-2.76-10c-.41-4.87-6.39-8.32-12.78-7.23-4.8.82-9.82,2-14.54,1.41-14.8-1.82-23.92-12.51-24.67-28.68-.23-5.08.83-10.24,1.66-15.31.18-1.1,1.92-1.94,3.32-3.26,0-1-.76-3.53.12-5.15,5.3-9.74,13.4-16.11,24.34-18.48,3.45-.75,6.41-1,8.58,3.49,2.74,5.62,7.27,6.33,13,3.88,1.55-.66,3.48-.45,5.26-.65,0-5,.17-10.62,0-16.19-.63-17.34-1.4-34.68-2.11-52-.49-11.88.17-12.8,11.23-16.23,3.16-1,6.34-1.89,9.39-3.14,14.5-5.94,19.91-16.36,16.33-31.71-1.17-5-2.82-9.93-4.4-14.84-4.68-14.57-2.73-28.42,3.85-42,2.14-4.41,4.52-5.25,9.11-4.06,32.23,8.37,65.15,12.92,98.24,15.6a493.7,493.7,0,0,0,127.17-6c1.22-.22,2.44-.4,4-.66Zm-196,110.07c1.19-1.54,2.25-2.72,3.1-4,6.35-9.8,14.7-17.41,25.65-21.45,6.31-2.33,13.14-3.26,19.75-4.76,6.3-1.44,10.51-5.76,10.27-10.67s-4.87-9.18-11-10a23.29,23.29,0,0,0-4.94-.1c-18.81,1.52-40.31,18.42-45.65,36.3-1.39,4.67-3.53,10.05,2.82,14.76Zm174.06-1.76c4.64-4.75,5.24-9.7,4.53-14.84-2.6-19.11-26.86-38.55-46.38-37.29-5.14.33-9.4,2.11-10.41,7.78s1.6,9.9,6.66,11.9c4.15,1.63,8.76,2.11,13.18,3,14.85,3.11,26.75,9.63,30.3,25.95.2.91,1,1.68,2.12,3.46Zm-30.7,135c.24-4.93-1.44-8.6-6.49-9.91-4.27-1.12-7.76.14-9.95,4.1a25.85,25.85,0,0,0-1.77,4.58c-3.76,11.81-14.37,14.61-23.39,6.09-1.63-1.54-2.74-3.71-4.52-5s-4.1-1.9-6.19-2.8c-.74,2.19-2.28,4.45-2.08,6.55.73,7.74,5.2,13.25,11.75,17.13,9.1,5.39,18.49,5.56,27.55.39C794.91,585.19,801.25,578.85,801.88,568.71Zm-22.44-29c15.7-.35,25.73-9.18,24.83-22.68-.89-13.35-14.09-23.28-28.74-22.11-1.25.1-3.16,1.66-3.33,2.77s1.37,2.72,2.56,3.45c4.55,2.77,9.53,4.91,13.84,8s5.91,7.82,3.88,12.67c-2.09,5-6.94,6.54-12,5.52a179.69,179.69,0,0,1-17.79-4.91c-4.06-1.26-7.92-2.07-9.93,2.82s1.25,7.59,5.2,8.83c7,2.21,14.29,3.8,21.45,5.65ZM671.51,467.51c.12.73,0,2.59.73,3.91,1.08,1.86,2.84,3.33,4.31,5a36,36,0,0,0,3.6-5.19c1.71-3.67,2.44-7.93,4.68-11.19,8.58-12.46,16.65-11.85,24,1.41.39.72.78,1.44,1.19,2.15,2.48,4.36,7.54,5.92,11.47,3.31,4.19-2.78,4.68-6.66,2.06-10.69a85.22,85.22,0,0,0-8.46-11.38c-5.67-6.16-12.78-8.81-21.23-7.23C683.09,439.59,672.41,453.45,671.51,467.51ZM535.65,523.92c4,0,7-.07,10,0,12,.32,21.62,5.64,30.19,13.62,3.75,3.49,8,3.22,11.53-.47s3.51-7.61.34-11.65C576.07,510.67,549.28,509.37,535.65,523.92Zm258.58-63.53c1.64-1.81,3-3.92,4.87-5.27,3.31-2.36,7-6,10.42-5.82,2.88.13,6.25,4.44,8.13,7.65,2.17,3.69,4.45,6.13,8.67,4.76s5.13-4.87,4.26-9a21.91,21.91,0,0,0-17.87-16.59c-8.24-1.23-17.82,3.73-21.57,11.33-2.35,4.75-2.07,9.08,3.09,12.94Z" transform="translate(-270.97 -178.35)"/><path class="cls-1" d="M984.94,1047.2c15.31-6.29,30.95-9.45,47.22-8.84,1.21.05,3,.81,3.48,1.76,4.8,10,9.85,20,13.94,30.27,8.46,21.29,10.08,43.76,9.48,66.37a253.09,253.09,0,0,1-3.16,35.11c-4.73,28.07-20.47,42.62-48.72,46.28-21.94,2.85-43.68.64-65.4-2.55-46.1-6.76-91.11-17.47-134.07-36-31-13.39-59.7-30.89-87.9-49.28-32.18-21-66.56-36.89-105-41.49-18.76-2.24-37.84-2.3-56.77-2.23-12.17.05-13,.36-17.92-11.26-4.52-10.78-9.18-21.5-14-32.67,24.35-7.73,48.37-14,73.47-15.62,46.33-3.09,91.83,3.38,137.35,10.82,55.94,9.14,111.91,18.25,168,26.06,32.68,4.54,65.7,6.61,98.59,9.5a24.89,24.89,0,0,0,11.35-2c4.57-1.91,6.58-6.27,6.24-11.18a9.82,9.82,0,0,0-8.37-9.5c-6.26-1.22-12.64-1.78-19-2.57-3-.37-5.94-.63-8.92-.94Z" transform="translate(-270.97 -178.35)"/><path class="cls-1" d="M342.21,1067.74c19.17-5,36.8-9.9,54.62-14,35.68-8.27,71.69-11.58,108.18-5.81,3.78.59,5.56,1.83,6.65,5.72,3.49,12.5,7.46,24.86,11.45,37.2,4.12,12.76,13.55,18.69,26.46,19.4,15.67.86,31.38,1,47,2.15,36.6,2.8,69.85,15.56,100.74,35,14.46,9.1,29,18.15,44.6,27.94-10.51,4.56-20,8.8-29.51,12.78a1258.73,1258.73,0,0,1-192,62.91c-17.37,4.15-34.81,6.83-52.45.66-12.84-4.49-23.2-12.59-32.79-21.72-33.95-32.3-57.88-71.39-75.83-114.27-6.35-15.17-11.16-31-17.17-47.92Z" transform="translate(-270.97 -178.35)"/><path class="cls-1" d="M864.83,1033.3c8.63-4.18,17.1-8.71,25.91-12.43a17.59,17.59,0,0,1,19.62,3.39c5.63,5.19,10.72,11,16,16.47l-1.24,1.82-59.76-7.11-.57-2.14Z" transform="translate(-270.97 -178.35)"/><path d="M658.52,435.46c-6.35-4.71-4.21-10.09-2.82-14.76,5.34-17.88,26.84-34.78,45.65-36.3a23.29,23.29,0,0,1,4.94.1c6.13.86,10.76,5.15,11,10s-4,9.23-10.27,10.67c-6.61,1.5-13.44,2.43-19.75,4.76-10.95,4-19.3,11.65-25.65,21.45-.85,1.32-1.91,2.5-3.1,4Z" transform="translate(-270.97 -178.35)"/><path d="M832.58,433.7c-1.11-1.78-1.92-2.55-2.12-3.46-3.55-16.32-15.45-22.84-30.3-25.95-4.42-.93-9-1.41-13.18-3-5.06-2-7.66-6.26-6.66-11.9s5.27-7.45,10.41-7.78c19.52-1.26,43.78,18.18,46.38,37.29.71,5.14.11,10.09-4.53,14.84Z" transform="translate(-270.97 -178.35)"/><path d="M801.88,568.71c-.63,10.14-7,16.48-15.09,21.11-9.06,5.17-18.45,5-27.55-.39-6.55-3.88-11-9.39-11.75-17.13-.2-2.1,1.34-4.36,2.08-6.55,2.09.9,4.4,1.49,6.19,2.8s2.89,3.48,4.52,5c9,8.52,19.63,5.72,23.39-6.09a25.85,25.85,0,0,1,1.77-4.58c2.19-4,5.68-5.22,9.95-4.1C800.44,560.11,802.12,563.78,801.88,568.71Z" transform="translate(-270.97 -178.35)"/><path d="M779.44,539.73c-7.16-1.85-14.4-3.44-21.45-5.65-4-1.24-7.22-3.9-5.2-8.83s5.87-4.08,9.93-2.82a179.69,179.69,0,0,0,17.79,4.91c5,1,9.88-.49,12-5.52,2-4.85.34-9.66-3.88-12.67s-9.29-5.22-13.84-8c-1.19-.73-2.72-2.44-2.56-3.45s2.08-2.67,3.33-2.77c14.65-1.17,27.85,8.76,28.74,22.11.9,13.5-9.13,22.33-24.83,22.68Z" transform="translate(-270.97 -178.35)"/><path d="M671.51,467.51c.9-14.06,11.58-27.92,22.35-29.93,8.45-1.58,15.56,1.07,21.23,7.23a85.22,85.22,0,0,1,8.46,11.38c2.62,4,2.13,7.91-2.06,10.69-3.93,2.61-9,1.05-11.47-3.31-.41-.71-.8-1.43-1.19-2.15-7.35-13.26-15.42-13.87-24-1.41-2.24,3.26-3,7.52-4.68,11.19a36,36,0,0,1-3.6,5.19c-1.47-1.64-3.23-3.11-4.31-5C671.48,470.1,671.63,468.24,671.51,467.51Z" transform="translate(-270.97 -178.35)"/><path d="M535.65,523.92c13.63-14.55,40.42-13.25,52,1.51,3.17,4,3.15,8-.34,11.65s-7.78,4-11.53.47c-8.57-8-18.23-13.3-30.19-13.62C542.64,523.85,539.69,523.92,535.65,523.92Z" transform="translate(-270.97 -178.35)"/><path d="M794.23,460.39c-5.16-3.86-5.44-8.19-3.09-12.94,3.75-7.6,13.33-12.56,21.57-11.33a21.91,21.91,0,0,1,17.87,16.59c.87,4.13,0,7.64-4.26,9s-6.5-1.07-8.67-4.76c-1.88-3.21-5.25-7.52-8.13-7.65-3.39-.16-7.11,3.46-10.42,5.82-1.89,1.35-3.23,3.46-4.87,5.27Z" transform="translate(-270.97 -178.35)"/></svg>