<svg id="a" xmlns="http://www.w3.org/2000/svg" viewBox="0 0 760.19 1136.77"><defs><style>.cls-1{fill:#fff;}</style></defs><path class="cls-1" d="M1010.51,921l1.23.22c0,14.82-.36,29.65.06,44.47,1.58,56.15,8,111.86,15.74,167.45,3.91,28.07,7.86,56.18,10.5,84.39,3.67,39.29,6,78.69,9.23,118a22.3,22.3,0,0,0,3.82,9.92c2.78,4.18,7.06,4.13,10.05.11,1.45-1.94,2.76-4.63,2.71-6.95-.3-14.44-.23-29-1.72-43.29-3.65-35.16-7.84-70.27-12.27-105.34-5.9-46.74-12.49-93.39-18.32-140.13-6-48.05-12.34-96.11-11.18-144.72a24.87,24.87,0,0,1,2-9.08c11.58-26.92,23.34-53.77,35-80.66,3-6.8,1.55-9.2-6.06-10-17.59-1.83-35.21-3.39-52.78-5.4a14.83,14.83,0,0,1-8.26-3.69c-6.18-6.11-12-12.65-17.61-19.27a22.77,22.77,0,0,1-4.46-8c-5.88-20-10.7-40.34-17.54-60-4.12-11.84-6.78-23.6-4.92-35.68,4-26.07,8.42-52.11,13.84-77.92,11.19-53.26,18.68-106.72,13.38-161.3-4.06-41.74-15.11-81.33-37.08-117.33C908,271.19,870,237.82,817.2,224.79c-22.44-5.54-45.76-7.8-68.8-10.54-40.71-4.83-81-2.95-120,11C572.58,245.18,531.83,281,514,338.85c-6,19.42-8.59,39.92-12.42,60-4.2,22-8.24,44-18.52,64.24-10.48,20.66-24,39.09-38.77,56.87-13.47,16.23-22.44,34.76-22.06,56.64.32,19,7.63,35.71,17.57,51.39,9.59,15.12,19.93,29.77,29.26,45,8.32,13.6,14.21,28.12,12.34,44.75-.54,4.81-2.44,7.51-7,9.46-41.61,17.85-73.34,46.76-96,85.92-63.78,110.13-88.27,227.77-67.5,353.93,6,36.71,16,72.4,33.42,105.54,8.6,16.4,19.53,31.05,39.32,34.68,10.21,1.87,20.7,2.18,31.07,3.12,2.21.2,4.46,0,6.57,0-.58,7.4-1.11,14.2-1.64,21-.39,5.06,1.43,8.51,7,8.44,5.35-.06,6.77-3.79,6.57-8.31-.35-7.85-.9-15.69-1.27-21.89l125.38-65.55c3.81,3.39,7.66,7.44,12.12,10.62,4,2.85,8.88,3,12-1.4s1.17-8.72-2.64-11.84c-2.55-2.09-5.65-3.5-8.62-5.28a6.4,6.4,0,0,1,1.22-1.39,1707.58,1707.58,0,0,0,158-109.75c1.4-1.09,4.2-1,6.19-.63,6.47,1.26,12,.43,17.1-4.36,3.06-2.9,6.74-5.81,10.66-7,11.38-3.5,23-6.12,34.55-9.11,14.77-3.83,27.14-10.71,34.67-25,1.76-3.32,6.19-5.6,9.85-7.43,3.36-1.68,7.32-2.15,11-3.07,15.85-3.91,31.55-8,42.18-22,.66-.88,2.56-1.24,3.84-1.15,9.76.67,19.57,1.05,29.23,2.43,11.68,1.66,19.16-3.33,24.36-13.19,12.72-24.08,25.72-48,38.14-72.26C998.07,948.82,1004.08,934.81,1010.51,921Zm-36.1,383.19c-1.53-19.52-3-38.54-4.56-58.28,5.46,1,9.79,1.88,14.16,2.55,5.46.84,10-2.29,10.36-7s-3.38-8.75-9-8.31c-5.36.41-10.64,1.95-16.27,3-1.28-23.57-2.47-47.42-3.88-71.26q-2.34-39.59-5.05-79.15c-.15-2.17-1.21-4.27-1.85-6.41a20.34,20.34,0,0,0-3.25,10.17c-.49,25.81-1.76,51.64-.94,77.42,1.21,38.36,3.55,76.7,6.18,115,1.15,16.74,4.06,33.38,6.57,50,.32,2.1,3.06,3.83,4.68,5.74,1.26-2.17,3.39-4.26,3.6-6.53.53-5.59.18-11.26.18-17.07,3.67.28,6.22.66,8.76.62,4.44-.07,9.2.5,13.19-.94,2.67-1,6.09-5.13,5.83-7.51s-4.26-5.29-7.21-6.41c-2.47-.93-5.85.11-8.72.75-4.11.91-8.14,2.25-12.75,3.57Zm-281.7-37.34c5.11-3.69,9.85-6.16,13.34-9.82,7.74-8.16,15-16.83,22.12-25.5,1.15-1.4.94-3.91,1.35-5.91-2-.22-4.43-1.25-6.06-.54-10.12,4.38-20.17,8.94-30,13.91a39,39,0,0,0-10,7.65c-3.28,3.38-3.72,8-.93,11.72,2.37,3.12,6.11,5.2,10.18,8.49Zm235.94-63.95a71.77,71.77,0,0,0-30.74,13.94,9.82,9.82,0,0,0-2.54,4.38c-2.1,6,4.18,13.62,10.15,11.64a55.07,55.07,0,0,0,28.82-22.15C937.29,1206.31,935,1203,928.65,1202.91Zm85.54-55.64c6.87.64,11.65-5.29,8.68-11.2-5.82-11.57-16.23-18.32-27.66-23.34-4-1.77-7.42,2.07-6,6.48,1.21,3.82,2.58,7.78,4.81,11,5.17,7.58,10.75,15,20.2,17ZM791.71,1275.82c-2.7,1.34-6,2-6.31,3.35-.45,2,.55,5.46,2.13,6.51,8.93,6,18.07,11.66,27.44,16.9,4.63,2.59,9.71,2.27,12.87-2.83,2.61-4.21.38-10.42-5.72-13C812.24,1282.52,801.89,1279.41,791.71,1275.82Zm147,42.67c-.79-4.24-1.08-7.66-2.1-10.86-1.62-5.13-5.57-6.08-9.59-2.46-7,6.25-10.2,14.29-10.78,23.49-.31,4.78,1.57,8.34,6.39,9.69s9.12-.49,11.16-4.91C936.11,1328.51,937.3,1323.08,938.76,1318.49Zm-145.9-194.31c-.17,11.42,14.16,28.91,24.64,29.84,2.93.26,8.08-1.88,8.73-4,.88-2.88-.49-8.3-2.8-10-7.71-5.54-16.21-10-24.54-14.62C797.21,1124.51,795,1124.59,792.86,1124.18Zm-254,191.23c-1-1.33-2.51-5.19-5.24-6.52-5.82-2.83-12.21-4.6-18.5-6.33-4.83-1.32-6.41,1.52-6.24,6,.29,7.7,12.05,19.13,19.7,19,5.68-.07,10.18-4.45,10.28-12.17Zm385.44-240.67c-1.37-3-2-6.93-3.86-7.7s-6.06.74-7.63,2.61a90.81,90.81,0,0,0-11.38,16.58c-2.46,4.8-.13,9.31,4.73,11.59,5.07,2.37,9.54.53,11.7-4.34,2.63-5.94,4.28-12.31,6.44-18.74Z" transform="translate(-303.67 -211.85)"/><path d="M1010.51,921c-6.43,13.8-12.44,27.81-19.38,41.34-12.42,24.24-25.42,48.18-38.14,72.26-5.2,9.86-12.68,14.85-24.36,13.19-9.66-1.38-19.47-1.76-29.23-2.43-1.28-.09-3.18.27-3.84,1.15-10.63,14-26.33,18.1-42.18,22-3.72.92-7.68,1.39-11,3.07-3.66,1.83-8.09,4.11-9.85,7.43-7.53,14.25-19.9,21.13-34.67,25-11.53,3-23.17,5.61-34.55,9.11-3.92,1.2-7.6,4.11-10.66,7-5.06,4.79-10.63,5.62-17.1,4.36-2-.39-4.79-.46-6.19.63a1707.58,1707.58,0,0,1-158,109.75,6.4,6.4,0,0,0-1.22,1.39c3,1.78,6.07,3.19,8.62,5.28,3.81,3.12,5.69,7.47,2.64,11.84s-8,4.24-12,1.4c-4.46-3.18-8.31-7.23-12.12-10.62l-125.38,65.55c.37,6.2.92,14,1.27,21.89.2,4.52-1.22,8.25-6.57,8.31-5.56.07-7.37-3.38-7-8.44.53-6.8,1.06-13.6,1.64-21-2.11,0-4.36.17-6.57,0-10.37-.94-20.86-1.25-31.07-3.12-19.79-3.63-30.72-18.28-39.32-34.68-17.4-33.14-27.38-68.83-33.42-105.54-20.77-126.16,3.72-243.8,67.5-353.93,22.69-39.16,54.42-68.07,96-85.92,4.52-2,6.42-4.65,7-9.46,1.87-16.63-4-31.15-12.34-44.75-9.33-15.27-19.67-29.92-29.26-45-9.94-15.68-17.25-32.39-17.57-51.39-.38-21.88,8.59-40.41,22.06-56.64C459,502.17,472.56,483.74,483,463.08c10.28-20.27,14.32-42.24,18.52-64.24,3.83-20.07,6.42-40.57,12.42-60,17.85-57.85,58.6-93.67,114.41-113.61,39-13.94,79.3-15.82,120-11,23,2.74,46.36,5,68.8,10.54,52.78,13,90.81,46.4,118.66,92,22,36,33,75.6,37.08,117.34,5.3,54.58-2.19,108-13.38,161.3-5.42,25.81-9.84,51.85-13.84,77.92-1.86,12.08.8,23.84,4.92,35.68,6.84,19.65,11.66,40,17.54,60a22.77,22.77,0,0,0,4.46,8c5.65,6.62,11.43,13.16,17.61,19.27a14.83,14.83,0,0,0,8.26,3.69c17.57,2,35.19,3.57,52.78,5.4,7.61.78,9,3.19,6.06,10-11.68,26.89-23.44,53.74-35,80.66a24.87,24.87,0,0,0-2,9.08c-1.16,48.61,5.18,96.67,11.18,144.72,5.83,46.74,12.42,93.39,18.32,140.13,4.43,35.07,8.62,70.18,12.27,105.34,1.49,14.34,1.42,28.85,1.72,43.29.05,2.32-1.26,5-2.71,6.95-3,4-7.27,4.07-10.05-.12a22.22,22.22,0,0,1-3.82-9.91c-3.18-39.34-5.56-78.74-9.23-118-2.64-28.21-6.59-56.32-10.5-84.39-7.74-55.59-14.16-111.3-15.74-167.45-.42-14.82-.06-29.65-.06-44.47l-1.23-.22ZM426.17,863.65C412.83,815.58,433.37,779,467.12,746a17.72,17.72,0,0,0-2.89.47c-1.32.69-2.63,1.4-3.91,2.17a181.88,181.88,0,0,0-51.89,47C376,839,354.48,887.74,339.09,939.39c-1.39,4.65-2.53,9.37-3.87,14.37,5.54-2.73,10.27-5.16,15.07-7.4s8.45-.81,10.5,3.85c1.92,4.39-.77,8.52-6,10-5.72,1.66-11.33,3.87-17.16,4.89-5,.87-6.38,3.73-7.29,8a505.86,505.86,0,0,0-11.46,122.68c.38,12,1.57,24,2.41,36.32,5.52-1.54,10.07-2.62,14.49-4.09,5.41-1.8,8.91.28,10.3,5.34s-1.55,8.1-6.44,9c-5.19,1-10.45,1.58-16.14,2.42a49.28,49.28,0,0,0,.53,6.1c4.15,20,7.79,40.17,12.74,60,5.06,20.25,11.2,40.27,22.46,58.19,17.2,27.35,41.75,35.66,71.54,23.24,14.51-6.06,28.27-13.9,42.46-20.73,4.78-2.3,8.72-4.61,8.63-10.91a13.75,13.75,0,0,1,2.8-7.67c1.31-1.79,4-3.74,5.91-3.59s4.06,2.53,5.69,4.29c.85.92.84,2.63,1.43,4.71,78.19-43.71,153.09-91.25,224.64-144.93-20.32-25.85-22.13-55.84-20.84-87.32-70.93,39.69-141.44,77.28-220.4,96.49,1.07,1.52,1.91,2.69,2.73,3.89,2.48,3.62,5,7.85,1.12,11.4-4.28,4-9,1.66-12.44-2-2.89-3-5.14-6.64-7.45-9.69-21.29,2.1-41.12,8.46-60.68,17.23.94-3.17,2.29-5.93,4.45-6.92,12.17-5.57,24.4-11,36.86-15.88,7.24-2.83,15-4.46,21.37-6.31,1.42-22.53,2.29-44,4.41-65.43.76-7.64-.45-12.15-8-14.36-1.18-.34-2.89-2.76-2.59-3.45a6.2,6.2,0,0,1,3.79-3.31c2.61-.53,5.41-.14,8.31-.14,2.79-15.57,5.6-31.29,8.42-47l3.16-.06c1.46,4.92,4,9.79,4.18,14.76,1,26.41,1.4,52.84,1.88,79.27.19,10.72,0,21.44,0,32.44,8.2-2.85,16.86-5.77,25.46-8.88,56.36-20.36,108.32-49.85,161.23-77.41,11.39-5.94,21.32-17.12,36.45-13.36.48.12,1.12-.65,1.72-.73,7.19-1,10.94-6.1,15.06-11.41,16-20.63,29.81-43.48,54.22-55.65-9.68-12.2-9-26.19-7.56-40.28a4.18,4.18,0,0,1,2.94-2.69,4.23,4.23,0,0,1,3.37,2.11c4.79,11.91,12.39,22.77,13.57,36.08a6.64,6.64,0,0,0,1.78,0c19.29-5.29,38.59-10.53,57.82-16a7,7,0,0,0,4-4c2.51-7.67,4.59-15.47,6.72-22.86-4.3-4.68-8.66-9.05-12.5-13.83-1.2-1.49-2-4.79-1.19-6,1-1.4,4.1-2.22,6-1.86,4.9.93,9.64,2.66,15.09,4.25,3.18-6.91,6.6-14.18,9.85-21.53a5.54,5.54,0,0,0,.11-3.64c-5.9-18-14.52-34.74-23.56-50.18-64.63,72.31-143.1,79.87-230.4,52.55a17,17,0,0,0-.94,1.87c-12.37,29.19-8.22,56.67,8.89,82.64,2.8,4.26,3.76,8,.32,12.19s-7.22,3.11-11.51,1.27c-17.64-7.56-35.12-15.35-49-28.46l-31,20.69c6.43,8.51,12.66,16.82,19,25.06,3.06,4,3.44,7.83-.53,11.29s-8.51,4.21-12.5,0a103.54,103.54,0,0,1-10.79-12.64c-13-19.16-30.63-32.3-51.91-41-18.44-7.57-36.25-16.22-49-32.45-.8-1-2.41-1.52-3.74-2-7.12-2.58-14.55-4.49-21.33-7.76-6.32-3-10.94-8.38-14.6-16.81l24-1.91ZM648.8,638.94l-.67.56c.56,1.07,1.11,2.15,1.68,3.21,8.4,15.56,17.19,30.93,25.14,46.71,18.43,36.61,17.71,72.11-7.05,106C658,809,648.42,822.86,638.37,837c2.4,1.09,4.25,2.08,6.2,2.79,46.29,17,92.4,15.39,138.18-1.82,23.81-9,44.19-22.74,59.66-43.44,6.43-8.6,10.07-16.56,1.75-25.82a18.38,18.38,0,0,1-1.81-3.37c-15.78-27.66-24.16-58-32-89a130.26,130.26,0,0,1-49.43-.21,127,127,0,0,1-43.86-17,10.08,10.08,0,0,1-4.22-7c-.09-2.15,2.18-5.74,4.11-6.3,2.66-.78,6.33,0,9,1.3,18.3,9.15,37.25,15.66,57.91,16.66,36.35,1.77,86.27-17.56,98.16-72.67a318.24,318.24,0,0,0,6.42-48.73c2.51-43.23,4.08-86.52,6-129.79.21-4.79,0-9.6,0-13.71-4.25,3.5-8.12,6.79-12.1,9.94s-7.95,6.07-11.94,9.1l-1-1.36Q877,394,884.52,371.35c-11.76,16.63-24.23,32-41.37,42.87l-1.4-.93,20-36.17c-11.82,10-22.7,19.12-33.41,28.4-9.1,7.88-19.66,12.19-28.36,10.8,15.27-7.13,20.84-20.54,25.93-36.29-6.5,3.9-12.29,6.21-16.57,10.15-12.54,11.59-24.94,23.2-41.37,30.49,1.17,1,2,1.36,2.33,2,1.43,2.88,4.05,6,3.63,8.69-.34,2.21-4,4.69-6.75,5.52-3.54,1.09-7.68.16-11.34,1-9.84,2.35-20.3,3.77-29.12,8.28-8.49,4.34-18,7.15-25.3,14-16.38,15.25-33.17,30.06-49.7,45.15q-9.69,8.84-19,18.11c-12.64,12.64-12.65,28.1-9.6,44.22,4.61,24.39,8.62,49,31.05,64.92,3.81,2.7,7.22,6,10.8,9,2.43,2.07,5.11,4,7.11,6.4,1.07,1.3.95,3.58,1.36,5.41-2.07.25-4.47,1.27-6.15.57-2.67-1.11-4.95-3.26-7.23-5.17-3.83-3.21-7.53-6.57-11.28-9.86Zm166,333.24-.94-1.79c2.52-1.91,4.79-4.41,7.61-5.64,24.94-10.83,50.64-18.71,78.12-19.7a45.59,45.59,0,0,0,14.93-2.92c2.88-1.14,6.61-4.63,6.68-7.15s-3.75-5.38-6.18-7.77c-.94-.93-2.72-1.12-4.17-1.39a87.53,87.53,0,0,0-42.72,2.5c-22.33,7-45,13-67.48,19.3-13.55,3.81-24.44,11.57-34,21.72-12.16,12.87-24.37,25.73-37.26,37.85-6.29,5.91-8.68,12.19-7.79,20.42.77,7.2.95,14.47,1.72,21.68,1.68,15.69,3.18,31.5,11.42,45.5,3.08,5.23,5.66,9.2,14.24,8.4,19.78-1.85,38.47-7.22,56.85-13.8,5.49-2,11-7.05,14-12.19,6.09-10.54,14.51-16.38,26.19-18.25,4.63-.74,9.25-1.53,13.84-2.46,15.16-3.08,29.48-7.6,37.89-23-2.29.26-4.16.55-6,.68-15.72,1.13-31.45,2.28-47.18,3.3-3.26.21-7.21.08-6-4.74.37-1.46,3.78-3,5.86-3.07,32.22-1.39,64.21-4.61,95.71-11.72,3-.68,5.86-2.13,8.78-3.23l-.42-2.19a46.1,46.1,0,0,0-5.93-.79c-32.64-.12-65.29-.08-97.93-.43-2.53,0-6.27-2-7.3-4.11-1.89-3.83,1.72-5.79,4.92-6.55,13.84-3.3,27.67-6.74,41.64-9.4,19.84-3.78,39.84-6.76,59.7-10.46,4.53-.85,8.77-3.24,14.62-5.48-2.81-1.12-3.75-1.75-4.75-1.86-46.14-5.05-92.38-2.82-138.61-1.31Zm234.57-160.41a16.08,16.08,0,0,0-3.12-.92c-36.81-2.28-73.64-4.25-110.41-6.91-11.81-.85-18.14,4.69-22.84,14.43-10.07,20.9-20.51,41.63-30.7,62.48-5.76,11.77-11.33,23.64-17.25,36,2.08,0,3.72.11,5.34,0,6.12-.53,10.8-1.88,12.14-9.62,1.14-6.56,4.56-12.81,7.6-18.89,1.3-2.61,4.18-4.44,6.34-6.62l2.06,1.55c.29,12.3-12.22,19.19-14.17,31.21,3.83-.2,7.6-.75,11.33-.53,8,.5,16.16.72,24,2.31,7.56,1.53,11.68,7,12.33,15,.64,7.83-2.1,14.14-8.76,17.82a44.84,44.84,0,0,1-15,4.77c-17.25,2.51-34.62,4.28-51.88,6.75-6.66,1-13.16,3-19.73,4.55l.36,1.7a20.16,20.16,0,0,0,3.11,0c32.41-5.07,65-5.5,97.66-3.77,11.8.63,24,0,33.9,8.42.54.46,1.58.31,3.11.57,24.75-53.18,49.53-106.45,74.6-160.3ZM547.13,860.68c-9.32,19.24-11.61,39.15-6.28,60.31l28.06-10.7C563.27,893,559.22,875.33,547.13,860.68ZM965.25,983.55c-8.91,3.17-17.16,6.61-25.7,9-8.38,2.34-17,3.77-25.61,5.29s-17,2.63-25.53,3.92l.12.42,65.67,2.12,11-20.75ZM776.32,394.23c-20.36,4.51-32.59,18.65-44.52,35.28C751.2,422.17,762.5,406.86,776.32,394.23Zm125.3,638.91c0,.21,0,.42,0,.63,9.53,0,19.07,0,28.6,0,6.87,0,7.28-.4,10-7.74-6.53,1.27-12.95,2.57-19.4,3.76s-12.76,2.24-19.15,3.36Z" transform="translate(-303.67 -211.85)"/><path d="M974.41,1304.2c4.61-1.32,8.64-2.66,12.75-3.57,2.87-.64,6.25-1.68,8.72-.75,3,1.12,6.94,4,7.21,6.41s-3.16,6.55-5.83,7.51c-4,1.44-8.75.87-13.19.94-2.54,0-5.09-.34-8.76-.62,0,5.81.35,11.48-.18,17.07-.21,2.27-2.34,4.36-3.6,6.53-1.62-1.91-4.36-3.64-4.68-5.74-2.51-16.62-5.42-33.26-6.57-50-2.63-38.3-5-76.64-6.18-115-.82-25.78.45-51.61.94-77.42a20.34,20.34,0,0,1,3.25-10.17c.64,2.14,1.7,4.24,1.85,6.41q2.65,39.57,5.05,79.15c1.41,23.84,2.6,47.69,3.88,71.26,5.63-1.1,10.91-2.64,16.27-3,5.65-.44,9.42,3.52,9,8.31s-4.89,7.84-10.35,7c-4.37-.67-8.7-1.56-14.16-2.55,1.55,19.74,3,38.76,4.56,58.28Z" transform="translate(-303.67 -211.85)"/><path d="M692.71,1266.86c-4.07-3.29-7.81-5.37-10.18-8.49-2.79-3.67-2.35-8.34.93-11.72a39,39,0,0,1,10-7.65c9.83-5,19.88-9.53,30-13.91,1.63-.71,4,.32,6.06.54-.41,2-.2,4.51-1.35,5.91-7.16,8.67-14.38,17.34-22.12,25.5-3.49,3.66-8.23,6.13-13.34,9.82Z" transform="translate(-303.67 -211.85)"/><path d="M928.65,1202.91c6.33.07,8.64,3.4,5.69,7.81a55.07,55.07,0,0,1-28.82,22.15c-6,2-12.25-5.65-10.15-11.64a9.82,9.82,0,0,1,2.54-4.38A71.77,71.77,0,0,1,928.65,1202.91Z" transform="translate(-303.67 -211.85)"/><path d="M1014.19,1147.27c-9.45-2.06-15-9.43-20.2-17-2.23-3.27-3.6-7.23-4.81-11-1.39-4.41,2-8.25,6-6.48,11.43,5,21.84,11.77,27.66,23.34,3,5.91-1.81,11.84-8.68,11.19Z" transform="translate(-303.67 -211.85)"/><path d="M791.71,1275.82c10.18,3.59,20.53,6.7,30.41,10.91,6.1,2.6,8.33,8.81,5.72,13-3.16,5.1-8.24,5.42-12.87,2.83-9.37-5.24-18.51-10.93-27.44-16.9-1.58-1-2.58-4.54-2.13-6.51C785.72,1277.82,789,1277.16,791.71,1275.82Z" transform="translate(-303.67 -211.85)"/><path d="M938.76,1318.49c-1.46,4.59-2.65,10-4.92,15-2,4.42-6.2,6.29-11.16,4.91s-6.7-4.91-6.39-9.69c.58-9.2,3.82-17.24,10.78-23.49,4-3.62,8-2.67,9.59,2.46C937.68,1310.83,938,1314.25,938.76,1318.49Z" transform="translate(-303.67 -211.85)"/><path d="M792.86,1124.18c2.1.41,4.35.33,6,1.26,8.33,4.63,16.83,9.08,24.54,14.62,2.31,1.67,3.68,7.09,2.8,10-.65,2.11-5.8,4.25-8.73,4C807,1153.09,792.69,1135.6,792.86,1124.18Z" transform="translate(-303.67 -211.85)"/><path d="M538.82,1315.41c-.1,7.72-4.6,12.1-10.28,12.17-7.65.1-19.41-11.33-19.7-19-.17-4.47,1.41-7.31,6.24-6,6.29,1.73,12.68,3.5,18.5,6.33C536.31,1310.22,537.81,1314.08,538.82,1315.41Z" transform="translate(-303.67 -211.85)"/><path d="M924.26,1074.74c-2.16,6.43-3.81,12.8-6.44,18.74-2.16,4.87-6.63,6.71-11.7,4.34-4.86-2.28-7.19-6.79-4.73-11.59a90.81,90.81,0,0,1,11.38-16.58c1.57-1.87,5.69-3.41,7.63-2.61s2.49,4.71,3.86,7.7Z" transform="translate(-303.67 -211.85)"/><path class="cls-1" d="M426.17,863.65l-24,1.91c3.66,8.43,8.28,13.76,14.6,16.81,6.78,3.27,14.21,5.18,21.33,7.76,1.33.48,2.94,1,3.74,2,12.78,16.23,30.59,24.88,49,32.45,21.28,8.72,38.88,21.86,51.91,41a103.54,103.54,0,0,0,10.79,12.64c4,4.22,8.44,3.54,12.5,0s3.59-7.3.53-11.28c-6.33-8.25-12.56-16.56-19-25.07l31-20.69c13.85,13.11,31.33,20.9,49,28.46,4.29,1.84,8.09,2.85,11.51-1.27s2.48-7.93-.32-12.19c-17.11-26-21.26-53.45-8.89-82.64a18.09,18.09,0,0,1,.94-1.87c87.3,27.32,165.77,19.76,230.4-52.55,9,15.44,17.66,32.16,23.56,50.18a5.53,5.53,0,0,1-.11,3.64c-3.25,7.35-6.67,14.62-9.85,21.53-5.45-1.59-10.19-3.32-15.09-4.25-1.93-.36-5.08.46-6,1.86-.84,1.23,0,4.53,1.19,6,3.84,4.78,8.2,9.15,12.5,13.83-2.13,7.39-4.21,15.19-6.72,22.86a7,7,0,0,1-4,4c-19.23,5.5-38.53,10.75-57.82,16a6.64,6.64,0,0,1-1.78,0c-1.18-13.31-8.78-24.17-13.57-36.08a4.23,4.23,0,0,0-3.37-2.11,4.18,4.18,0,0,0-2.94,2.69c-1.49,14.09-2.12,28.08,7.56,40.28-24.41,12.17-38.22,35-54.22,55.65-4.12,5.31-7.87,10.43-15.06,11.41-.6.08-1.24.85-1.72.73-15.13-3.76-25.06,7.42-36.45,13.36-52.91,27.56-104.87,57-161.23,77.41-8.6,3.11-17.26,6-25.46,8.89,0-11,.16-21.73,0-32.45-.48-26.43-.92-52.86-1.88-79.27-.18-5-2.72-9.84-4.18-14.76l-3.16.06c-2.82,15.72-5.63,31.44-8.42,47-2.9,0-5.7-.39-8.31.14a6.2,6.2,0,0,0-3.79,3.31c-.3.69,1.41,3.11,2.59,3.45,7.56,2.21,8.77,6.72,8,14.36-2.12,21.39-3,42.9-4.41,65.43-6.42,1.85-14.13,3.48-21.37,6.31-12.46,4.85-24.69,10.31-36.86,15.88-2.16,1-3.51,3.75-4.45,6.92,19.56-8.77,39.39-15.13,60.68-17.23,2.31,3,4.56,6.67,7.45,9.69,3.48,3.64,8.16,5.94,12.44,2,3.85-3.55,1.36-7.78-1.12-11.4-.82-1.2-1.66-2.37-2.73-3.89,79-19.21,149.47-56.8,220.4-96.49-1.29,31.48.52,61.47,20.84,87.32-71.55,53.68-146.45,101.22-224.64,144.93-.59-2.08-.58-3.79-1.43-4.71-1.63-1.76-3.67-4.14-5.69-4.29s-4.6,1.8-5.91,3.59a13.75,13.75,0,0,0-2.8,7.67c.09,6.3-3.85,8.61-8.63,10.91-14.19,6.83-27.95,14.68-42.46,20.73-29.79,12.42-54.34,4.11-71.54-23.24-11.26-17.92-17.4-37.94-22.46-58.19-4.95-19.82-8.59-40-12.74-60a49.28,49.28,0,0,1-.53-6.1c5.69-.84,10.95-1.46,16.14-2.42,4.89-.9,7.85-3.84,6.44-9s-4.89-7.13-10.3-5.34c-4.42,1.47-9,2.55-14.49,4.09-.84-12.34-2-24.32-2.41-36.32a505.86,505.86,0,0,1,11.46-122.68c.91-4.25,2.32-7.1,7.29-8,5.83-1,11.44-3.23,17.16-4.89,5.26-1.53,7.95-5.66,6-10-2.05-4.66-5.8-6-10.5-3.85s-9.53,4.67-15.07,7.4c1.34-5,2.48-9.72,3.87-14.37C354.48,887.74,376,839,408.43,795.62a181.88,181.88,0,0,1,51.89-47c1.28-.77,2.59-1.48,3.91-2.17a17.72,17.72,0,0,1,2.89-.47c-33.75,33-54.29,69.56-40.95,117.63Zm-14.7,371.93c4.06-2.85,7.71-4.44,10-7.17,8.16-9.82,10.49-22.15,13.43-34.12.3-1.23-.76-3.77-1.71-4.08-1.24-.4-3.3.46-4.48,1.43-2.79,2.27-5.24,4.95-7.87,7.42-5.57,5.25-11.38,10.27-16.7,15.77-3.52,3.63-4.69,8.66-2,13,1.94,3,5.74,4.91,9.31,7.78Zm-37.19-206.45-1.12,1.68a39.33,39.33,0,0,0,3,5.28c8.33,10.74,19.87,17.05,32,22.26,6.15,2.65,11.64-.15,13.39-5.71,1.7-5.37-.86-9.83-7.25-12.05-9.19-3.2-18.4-6.36-27.71-9.2-4-1.2-8.17-1.53-12.26-2.26ZM538,1044.83c-9.46.13-16.33,4.93-21.88,12.17-2.7,3.53-1.91,6.38,1.79,8.37,7.08,3.81,14.56,5.9,22.67,4.23,7.61-1.57,11.76-7,10.92-14C550.75,1048.92,545.7,1044.92,538,1044.83Zm54.76,113.36c5.57-.41,9-3,9.67-7.67.78-5.12-2.34-8.3-6.93-10.18-7.84-3.22-15.61-6.62-23.52-9.64-1.68-.65-3.84,0-5.78,0,.18,1.79-.17,3.87.63,5.3a50.14,50.14,0,0,0,21.75,20.91,22.25,22.25,0,0,0,4.18,1.28ZM702,898.27v-.72c-4.67,0-9.37-.24-14,.12-1.94.15-3.78,1.58-5.66,2.43,1.46,1.58,2.64,3.92,4.44,4.61,9.11,3.49,18.34,6.67,27.6,9.72,5.71,1.88,9.23-.24,10.18-5.65s-1.76-9.3-7.25-9.77c-5.09-.43-10.2-.51-15.3-.74Zm-57.34,130.26c6.23.56,10.12-4.49,6.92-8.61-5.41-7-12.06-13-18.39-19.25-.66-.64-3.39-.39-4,.36-.85,1.14-1.38,3.45-.78,4.6,3.51,6.7,7.2,13.34,11.28,19.7,1.12,1.75,3.79,2.49,4.93,3.2Z" transform="translate(-303.67 -211.85)"/><path class="cls-1" d="M648.8,638.94c3.75,3.29,7.45,6.65,11.28,9.86,2.28,1.91,4.56,4.06,7.23,5.17,1.68.7,4.08-.32,6.15-.57-.41-1.83-.29-4.11-1.36-5.41-2-2.43-4.68-4.33-7.11-6.4-3.58-3-7-6.31-10.8-9-22.43-15.9-26.44-40.53-31.05-64.92-3-16.12-3-31.58,9.6-44.22q9.28-9.27,19-18.11c16.53-15.09,33.32-29.9,49.7-45.15,7.34-6.83,16.81-9.64,25.3-14,8.82-4.51,19.28-5.93,29.12-8.28,3.66-.88,7.8.05,11.34-1,2.7-.83,6.41-3.31,6.75-5.52.42-2.65-2.2-5.81-3.63-8.69-.32-.64-1.16-1-2.33-2,16.43-7.29,28.83-18.9,41.37-30.49,4.28-3.94,10.07-6.25,16.57-10.15-5.09,15.75-10.66,29.16-25.93,36.29,8.7,1.39,19.26-2.92,28.36-10.8,10.71-9.28,21.59-18.36,33.41-28.4l-20,36.17,1.41.93c17.13-10.88,29.6-26.24,41.36-42.87Q877,394,869.39,416.55l1,1.36c4-3,8-6,11.94-9.1s7.85-6.44,12.1-9.94c0,4.11.18,8.92,0,13.71-1.88,43.27-3.45,86.56-6,129.79A318.24,318.24,0,0,1,882,591.1c-11.89,55.11-61.81,74.44-98.16,72.67-20.66-1-39.61-7.51-57.91-16.66-2.63-1.31-6.3-2.08-9-1.3-1.93.56-4.2,4.15-4.11,6.3a10.08,10.08,0,0,0,4.22,7,127,127,0,0,0,43.86,17,130.26,130.26,0,0,0,49.43.21c7.84,31,16.22,61.36,32,89a18.38,18.38,0,0,0,1.81,3.37c8.32,9.26,4.68,17.22-1.75,25.82-15.47,20.7-35.85,34.49-59.66,43.44-45.78,17.21-91.89,18.82-138.18,1.82-2-.71-3.8-1.7-6.2-2.79,10-14.18,19.61-28,29.53-41.62,24.76-33.89,25.48-69.39,7.05-106-8-15.78-16.74-31.15-25.14-46.71-.57-1.06-1.12-2.14-1.68-3.21Zm155.14-23.29a45.33,45.33,0,0,0,29.73-12.27c5.14-4.75,5.76-9.73,1.73-13.85s-7.8-3.79-13,1.31c-12.72,12.38-28.65,12.64-41.59.46-3.24-3-5.83-6.78-8.92-10-.9-.94-2.9-2-3.7-1.57a5.84,5.84,0,0,0-2.68,3.78,14,14,0,0,0,.59,5.64C769.8,603.77,786.2,615.51,803.94,615.65ZM815.13,570c12.85.21,23.15-9.11,24.5-22.16,1.32-12.85-6.49-23.6-19.28-26-1.83-.35-4,1.15-6,1.8.83,1.71,1.35,3.7,2.56,5.09,2.76,3.17,6.37,5.71,8.71,9.14,4.09,6,3.82,12.45-.11,16.49-4.71,4.85-10.36,4.7-15.89,1.86A156.86,156.86,0,0,1,796,547.91c-3.81-2.48-7-1.64-9.27,1.89s-2,7,1.49,9.62c8,5.87,16.6,10.41,26.88,10.53Zm50.15-79.68c-2.17-6.06-3.45-12-6.3-17-3.72-6.57-11.29-6.7-16.05-1.1-7.14,8.39-7.2,27-.11,35.35,4.83,5.67,11.51,6.07,15.48-.15C861.51,502.35,862.94,496.21,865.28,490.27ZM771.05,489c-2-5.86-3.11-11.89-6.08-16.78-4.43-7.31-12.32-6.73-17.1.43-5.79,8.66-5.69,24.23.22,32.79,4.86,7.06,12.75,7.35,17.06-.08,2.79-4.8,3.88-10.57,5.9-16.36Zm65.22-70.47c-6.6-.49-10.18,1.3-10.92,6.44-.78,5.46,2.25,8.3,7.42,9.19,3.35.57,6.85.73,10,1.83,10.6,3.64,21.06,7.7,31.64,11.4,1.8.63,4,.29,5.94.39-.4-2.14-.49-4.4-1.31-6.37a15.83,15.83,0,0,0-3.41-4.55c-11.17-11.75-26-15.4-39.38-18.33Z" transform="translate(-303.67 -211.85)"/><path class="cls-1" d="M814.8,972.18c46.23-1.52,92.47-3.75,138.61,1.3,1,.11,1.94.74,4.75,1.86-5.85,2.24-10.09,4.63-14.62,5.48-19.86,3.7-39.86,6.68-59.7,10.46-14,2.66-27.8,6.1-41.64,9.4-3.2.76-6.81,2.72-4.92,6.55,1,2.12,4.77,4.09,7.3,4.11,32.64.35,65.29.31,97.93.43a46.1,46.1,0,0,1,5.93.79l.42,2.2c-2.92,1.09-5.76,2.54-8.78,3.22-31.5,7.11-63.49,10.33-95.71,11.72-2.08.09-5.49,1.61-5.86,3.07-1.21,4.82,2.73,5,6,4.74,15.73-1,31.46-2.17,47.18-3.3,1.88-.13,3.75-.42,6-.68-8.41,15.36-22.73,19.88-37.89,23-4.59.93-9.21,1.72-13.84,2.46-11.68,1.87-20.1,7.71-26.19,18.25-3,5.14-8.5,10.23-14,12.19-18.38,6.58-37.07,11.95-56.85,13.8-8.58.8-11.16-3.17-14.23-8.4-8.25-14-9.75-29.81-11.43-45.5-.77-7.21-.95-14.48-1.72-21.68-.89-8.23,1.5-14.51,7.79-20.42,12.89-12.12,25.1-25,37.26-37.85,9.58-10.15,20.47-17.91,34-21.72,22.52-6.34,45.15-12.33,67.48-19.3a87.41,87.41,0,0,1,42.72-2.49c1.45.26,3.23.45,4.17,1.38,2.43,2.39,6.24,5.21,6.18,7.77s-3.8,6-6.68,7.15a45.59,45.59,0,0,1-14.93,2.92c-27.48,1-53.18,8.87-78.12,19.71-2.82,1.22-5.09,3.72-7.61,5.63l.94,1.79Z" transform="translate(-303.67 -211.85)"/><path class="cls-1" d="M1049.37,811.77c-25.07,53.85-49.85,107.12-74.6,160.3-1.53-.26-2.57-.11-3.11-.57-9.92-8.4-22.1-7.79-33.9-8.42-32.66-1.73-65.25-1.3-97.66,3.77a20.16,20.16,0,0,1-3.11,0l-.36-1.7c6.57-1.55,13.07-3.6,19.73-4.55,17.26-2.47,34.63-4.24,51.88-6.75a44.84,44.84,0,0,0,15-4.77c6.66-3.68,9.4-10,8.76-17.82-.65-8-4.77-13.49-12.33-15-7.83-1.58-16-1.81-24-2.31-3.73-.22-7.5.33-11.33.53,1.95-12,14.46-18.91,14.17-31.21l-2.06-1.55c-2.16,2.18-5,4-6.34,6.62-3,6.08-6.46,12.33-7.6,18.89-1.34,7.74-6,9.09-12.14,9.62-1.62.13-3.26,0-5.34,0,5.92-12.38,11.49-24.25,17.25-36,10.19-20.85,20.63-41.58,30.7-62.48,4.7-9.74,11-15.28,22.84-14.43,36.77,2.66,73.6,4.63,110.41,6.91a16.08,16.08,0,0,1,3.12.92Zm-109,17.05c-2.89-3.18-4.71-6.92-7.07-7.3s-5.83,2-8.11,4c-2,1.71-3.21,4.44-4.35,6.91-2.3,5-5.37,9.92-6.06,15.15-.41,3.1,2.54,7.32,5.16,9.79,1,.93,6.72-.85,7.83-2.8C932.36,846.6,936,838.09,940.4,828.82Z" transform="translate(-303.67 -211.85)"/><path class="cls-1" d="M547.13,860.68c12.09,14.65,16.14,32.33,21.78,49.61L540.85,921C535.52,899.83,537.81,879.92,547.13,860.68Z" transform="translate(-303.67 -211.85)"/><path class="cls-1" d="M965.25,983.55l-11,20.75-65.67-2.12-.12-.42c8.51-1.29,17.05-2.42,25.53-3.92s17.23-3,25.61-5.29c8.54-2.39,16.79-5.83,25.7-9Z" transform="translate(-303.67 -211.85)"/><path class="cls-1" d="M776.32,394.24c-13.82,12.62-25.12,27.93-44.52,35.27C743.73,412.88,756,398.74,776.32,394.24Z" transform="translate(-303.67 -211.85)"/><path class="cls-1" d="M901.62,1033.14c6.39-1.12,12.78-2.18,19.15-3.36s12.87-2.49,19.4-3.76c-2.69,7.34-3.1,7.7-10,7.74-9.53,0-19.07,0-28.6,0,0-.21,0-.42,0-.63Z" transform="translate(-303.67 -211.85)"/><path d="M411.47,1235.58c-3.57-2.87-7.37-4.73-9.31-7.78-2.73-4.31-1.56-9.33,2-13,5.32-5.5,11.13-10.52,16.7-15.77,2.63-2.47,5.08-5.15,7.87-7.42,1.18-1,3.24-1.83,4.48-1.43.95.31,2,2.85,1.71,4.08-2.94,12-5.27,24.3-13.43,34.12-2.27,2.73-5.92,4.33-10,7.17Z" transform="translate(-303.67 -211.85)"/><path d="M374.28,1029.13c4.09.73,8.31,1.06,12.26,2.26,9.31,2.84,18.52,6,27.71,9.2,6.39,2.22,8.95,6.68,7.25,12.05-1.75,5.56-7.24,8.36-13.39,5.71-12.12-5.21-23.66-11.52-32-22.26a39.33,39.33,0,0,1-3-5.28l1.12-1.68Z" transform="translate(-303.67 -211.85)"/><path d="M538,1044.83c7.66.09,12.71,4.09,13.5,10.77.84,7-3.31,12.43-10.92,14-8.11,1.67-15.59-.42-22.67-4.23-3.7-2-4.49-4.84-1.79-8.37C521.71,1049.76,528.58,1045,538,1044.83Z" transform="translate(-303.67 -211.85)"/><path d="M592.8,1158.19a22.25,22.25,0,0,1-4.18-1.28,50.17,50.17,0,0,1-21.75-20.9c-.8-1.44-.45-3.52-.63-5.31,1.94,0,4.1-.65,5.78,0,7.91,3,15.68,6.42,23.52,9.64,4.59,1.88,7.71,5.06,6.93,10.18-.72,4.7-4.1,7.26-9.67,7.67Z" transform="translate(-303.67 -211.85)"/><path d="M702,898.27c5.1.23,10.21.31,15.3.74,5.49.47,8.2,4.31,7.25,9.77s-4.47,7.53-10.18,5.65c-9.26-3-18.49-6.23-27.6-9.72-1.8-.69-3-3-4.44-4.61,1.88-.85,3.72-2.28,5.66-2.43,4.64-.36,9.34-.12,14-.12v.72Z" transform="translate(-303.67 -211.85)"/><path d="M644.62,1028.53c-1.14-.71-3.81-1.45-4.93-3.2-4.08-6.36-7.77-13-11.28-19.7-.6-1.15-.07-3.46.78-4.6.57-.75,3.3-1,4-.36,6.33,6.23,13,12.27,18.39,19.25,3.2,4.12-.69,9.17-6.92,8.61Z" transform="translate(-303.67 -211.85)"/><path d="M803.94,615.65c-17.74-.14-34.14-11.88-37.88-26.49a14,14,0,0,1-.59-5.64,5.84,5.84,0,0,1,2.68-3.78c.8-.4,2.8.63,3.7,1.57,3.09,3.21,5.68,6.94,8.92,10,12.94,12.18,28.87,11.92,41.59-.46,5.24-5.1,9-5.48,13-1.31s3.41,9.1-1.73,13.85A45.33,45.33,0,0,1,803.94,615.65Z" transform="translate(-303.67 -211.85)"/><path d="M815.13,570c-10.28-.12-18.87-4.66-26.88-10.53-3.53-2.59-3.71-6.19-1.49-9.62s5.46-4.37,9.27-1.89a156.86,156.86,0,0,0,13.57,8.26c5.53,2.84,11.18,3,15.89-1.86,3.93-4,4.2-10.51.11-16.49-2.34-3.43-6-6-8.71-9.14-1.21-1.39-1.73-3.38-2.56-5.09,2-.65,4.19-2.15,6-1.8,12.79,2.4,20.6,13.15,19.28,26-1.35,13.05-11.65,22.37-24.5,22.16Z" transform="translate(-303.67 -211.85)"/><path d="M865.28,490.27c-2.34,5.94-3.77,12.08-7,17.09-4,6.22-10.65,5.82-15.48.15-7.09-8.31-7-27,.11-35.35,4.76-5.6,12.33-5.47,16.05,1.1C861.83,478.29,863.11,484.21,865.28,490.27Z" transform="translate(-303.67 -211.85)"/><path d="M771.05,489c-2,5.79-3.11,11.56-5.9,16.36-4.31,7.43-12.2,7.14-17.06.08-5.91-8.56-6-24.13-.22-32.79,4.78-7.16,12.67-7.74,17.1-.43,3,4.89,4,10.92,6.08,16.78Z" transform="translate(-303.67 -211.85)"/><path d="M836.27,418.55c13.4,2.93,28.21,6.58,39.38,18.33a15.83,15.83,0,0,1,3.41,4.55c.82,2,.91,4.23,1.31,6.37-2-.1-4.14.24-5.94-.39-10.58-3.7-21-7.76-31.64-11.4-3.17-1.1-6.67-1.26-10-1.83-5.17-.89-8.2-3.73-7.42-9.19.74-5.14,4.32-6.93,10.92-6.44Z" transform="translate(-303.67 -211.85)"/><path d="M940.4,828.82c-4.42,9.27-8,17.78-12.6,25.75-1.11,1.95-6.85,3.73-7.83,2.8-2.62-2.47-5.57-6.69-5.16-9.79.69-5.23,3.76-10.19,6.06-15.15,1.14-2.47,2.38-5.2,4.35-6.91,2.28-2,5.64-4.39,8.11-4s4.18,4.12,7.07,7.3Z" transform="translate(-303.67 -211.85)"/></svg>