<svg id="a" xmlns="http://www.w3.org/2000/svg" viewBox="0 0 830.92 1234.9"><defs><style>.cls-1{fill:#fff;}</style></defs><path class="cls-1" d="M876.59,678.15c2.48-1.11,4.33-2,6.2-2.78,23.38-10,43.79-24,59.17-44.68,18.45-24.79,20.58-53.39,17.45-82.38-5.25-48.45-11.54-96.81-22.22-144.44-1.3-5.81,1.2-8.54,5.25-8.66,8.61-.27,13.69-5.6,19.46-10.58,8.88-7.68,14.38-17.1,15.36-28.77.59-7,3.76-11.87,9.57-15.59,11.68-7.48,20.89-17.4,24.28-31a48.38,48.38,0,0,0,0-21.15c-1.78-8.27-11.3-14.28-17.84-13.68-7.4.69-14.83,1-22.53,1.46,2.57-8.34,5.31-16.74,7.74-25.23,2.51-8.8,7.09-17.67.71-26.66-1.55-2.18-3.46-5.13-5.62-5.54s-5.07,1.59-7.23,3.13c-1.6,1.14-2.48,3.27-3.77,4.88s-2.67,3.08-5.1,5.87c4.25-17.72,4.8-33.71,1.25-49.75-2.21-10-13.47-13.73-21.07-6.84-1.89,1.71-3.09,4.16-5,6.75-9-16.38-17.29-17.94-31.26-9.11-12.71,8-26,15.25-39.28,22.28-20.78,11-43.31,11.06-65.94,9.38-15-1.12-28.25-7.36-40.8-15.27-17.64-11.12-36.4-12.1-55.19-4.25C689.66,190,680,196.61,670,202.32a41.14,41.14,0,0,0-4.28,3.09c-.75-3.63-.92-9.25-2.14-9.49a17.52,17.52,0,0,0-11.28,1.55c-9.09,5.22-14.18,13.9-16.32,23.89-1.78,8.32-2.3,16.91-3.45,26-17.16-2.65-31.29,5-44.85,15.45-13.3,10.22-26,20.86-33.56,34.29-4.46-1-7.88-2.46-11.07-2.07-1.45.18-2.46,4.07-4,6.9-.68-.18-2.59-.83-4.56-1.2-6.88-1.3-13.62-1.43-19.51,3.25-5.06,4-4.57,9.07,1.46,11.24,4.94,1.78,10.19,2.69,15.3,4-8.34,6.83-16.55,13.62-24.85,20.32-4.51,3.65-8.7,7.73-7.09,14,1.71,6.63,7.62,8.23,13.57,8.86,6.49.69,13,1,19.56,1.54-3.76,5.66-7.66,10.93-10.89,16.59-2.82,5-.17,9.54,5.45,10.27a48.21,48.21,0,0,0,5.44,0c-5.61,14.34-2.08,27.1,4,39.78,4.82,10,9.25,20.26,13.18,30.66,3.69,9.75,9.09,17.47,19.1,21.47,2.42,1,4.51,2.74,6.66,4.09-10.47,26.19-9.12,43.44,6.17,60.44,11.29,12.55,24.94,20.93,43.14,16.11,10.13,23.87,22.75,46.31,39.19,66.44A73.94,73.94,0,0,0,677.31,642c1.7,1.27,6.37,1.27,7.54,0,1.8-2,2.93-6.06,2.17-8.58-1.07-3.57-3.84-6.79-6.37-9.73C663.54,603.76,646.25,584,629.18,564a8,8,0,0,1-1.67-5.89c.87-4.28-.8-6.91-4.34-8.51a87.65,87.65,0,0,0-9.87-3.51c-13.84-4.32-23-13.53-25.52-27.66C585.2,504.18,592,493,603.51,485.12A20.55,20.55,0,0,1,615.45,482c4.51.23,7.2-.17,6.91-5.41h15.11c-6-12.75-17.14-13.07-29.4-12.55,1.86-12.74,3.57-24.55,5.36-36.35.14-1,.56-2.52,1.18-2.71,5.66-1.73,5.27-7,6.38-11.11,7.06-25.78,22.6-45,44.47-59.85,6.85-4.66,12.89-10.87,18.22-17.28s10.86-11.35,19.45-11.63c8-.26,16.23-1.3,24.13-.26,23.52,3.12,47,6.91,70.39,10.77,25.47,4.2,49.81,1.56,72.69-11q12.45-6.82,20.92,4.5c15.51,20.68,26.07,44,36.54,67.44a40.38,40.38,0,0,1,3.8,12.9c2.08,26.79,3.59,53.62,5.64,80.42,1.82,23.7,4.88,47.33,6,71.06,1.88,40-15.09,69.82-51.05,88.31-19.68,10.11-40.7,16.12-62.42,19.51-17.36,2.7-34.23,1.28-49.34-9.17-5.47-3.79-10.3-3-14.08,1.89-4.1,5.27-3.89,11.4,2,15,7.82,4.79,16,9.88,24.79,12,11,2.62,22.76,2.34,34.8,3.36-.32-.65,0-.3,0,.07.73,9.18-1.1,18.69,3.7,27.37.39.7-.41,2.35-1,3.3A309.62,309.62,0,0,1,775.86,784c-8.11,7-12.48,7.09-21.08.48-16.2-12.47-32.39-25-47.69-38.57-15.46-13.66-29.83-28.56-44.76-43,2.5-3.14,4.06-4.8,5.29-6.68,5.63-8.63,11.57-17.09,16.62-26,3.24-5.75,0-12.75-6-15.42a12,12,0,0,0-16,6.4,30.39,30.39,0,0,0-1.78,8.45c-.69,8.91-1.12,17.83-1.65,26.75l-2.64,2.16-6.87-11.27-2.37,1.79c3.88,7.13,7.3,14.55,11.71,21.34,23.07,35.52,53.23,64.19,87.33,88.87a41.29,41.29,0,0,0,13.32,6.3c12.43,3.29,22.37-2.73,30.83-10.65,12.52-11.71,24.91-23.68,36.2-36.55,9.37-10.68,17.22-22.71,25.44-34.36,3-4.27,4.94-9.12,1.86-14.48-3.94-6.84-7.73-13.77-11.86-21.15,7.6-2.08,13.72-3.92,19.94-5.34a7.83,7.83,0,0,1,5.19,1.05c13.3,7.9,24,18.48,30.26,32.7,2.93,6.67,4.26,14.13,5.66,21.36,1.59,8.2,5.68,12.77,11.84,10.93,3.76-1.13,5.94.12,8.13,2.4,12,12.51,25,24.27,35.82,37.78,31.76,39.74,51.21,85.58,63.23,134.71,14.29,58.4,16.34,118.2,20.06,177.83,2,32.17,4.4,64.38,8.41,96.34,3.67,29.27,10.29,58.15,14.6,87.35,4.16,28.19,6.93,56.59,10.59,84.86.47,3.67,1.8,7.78,4.11,10.54,3.1,3.73,7.88,4.2,12.53,2.11,5.28-2.37,6.68-6.86,6.75-12.18.44-34.56-5.75-68.29-13-101.83-8.64-39.81-15.82-79.85-19.06-120.48-4-50.08-7-100.25-11.46-150.28-3.87-43.55-12.11-86.39-28.54-127.13-21.19-52.56-51-98.34-103.18-125.66-1.36-.72-2.31-3-2.67-4.69-1.14-5.4-1.2-11.13-2.94-16.3-7-21-20.87-36.29-41.4-46.31ZM664.55,643c.15-.63.29-1.26.44-1.89-6.17-2.28-12.23-5-18.54-6.74-24.06-6.78-48.18-5.18-72.41-.49-23.36,4.53-40.11,16.54-48.22,39.53A64.41,64.41,0,0,1,520,685a17.59,17.59,0,0,1-15.32,9.05c-3.31.09-6.61.2-9.91.16-21.19-.22-38,8.72-51,24.93-17.44,21.72-21,47-18.31,73.83,1,9.58,4,17.81,14.21,21.6-1.62,1.89-2.88,3.5-4.29,5-31.81,33.68-58.52,71.12-82,111-23.84,40.44-36.7,84.23-40.52,130.88-2.07,25.34-4.21,50.69-6.76,76-3.74,37.12-13.29,73.08-22.34,109.15-9.23,36.71-17.87,73.59-15.34,111.88.66,9.83,2.78,19.6,4.84,29.28a16.19,16.19,0,0,0,5.15,8c3.45,3,7.61,2.4,11.47,0,5.19-3.21,5.11-8.11,4.22-13.19-5.79-33-4.33-66,2.6-98.62,5.88-27.67,12.34-55.21,18.86-82.73,10.88-45.93,12-93,16-139.65,2.86-32.95,8.91-65.2,23.27-95.21A571.91,571.91,0,0,1,458.7,816.7c32.14-33.51,68.9-61.16,109.11-84.29,9.47-5.44,9.42-5.44,17.39,2.24,18.33,17.65,36.49,35.48,55.08,52.84s38.82,32.29,63,41a55.39,55.39,0,0,0,13.19,3c5.24.51,9.52-2.15,11.09-7.15,1.5-4.77-1.46-8.39-5.41-10.75-3-1.78-6.33-2.9-9.46-4.42-10-4.86-20.66-8.74-29.78-14.9-12.64-8.51-24.17-18.68-36.07-28.27-15.6-12.57-30.81-25.64-46.78-37.7-6.22-4.7-13-10.28-21.91-8.69-4.08.73-8,2.6-11.81,4.45-2.45,1.19-4.27,3.67-6.71,4.86-29.86,14.52-58.19,31.44-83.79,52.7-8.7,7.23-17.12,14.81-25,21.67-9.1-1.34-10-7.7-10.08-14.36-.1-6.4-.21-12.83.19-19.21,1.8-28.48,19.22-60.89,58.43-60.56,20.67.17,33.4-10.41,39.69-29.27,6.14-18.41,19.25-27.78,37.55-32.07,24-5.62,48.25-6.63,72.71-5.55l15.25.69Zm91.1,527.86c-2.36.27-4.8.65-7.26.81-37.13,2.53-74.25,5.17-111.4,7.38-5.5.33-7.1,2.58-7.48,7.4a117.54,117.54,0,0,1-2,14.74c-7.59,36.47-27.06,65.93-54.8,90-12.86,11.14-21.86,23.82-25.2,40.65-2.65,13.34-6.25,26.5-9.27,39.77a128.29,128.29,0,0,0-3.21,17.62,11.88,11.88,0,0,0,8.74,12.66c5.39,1.32,10.64-1.42,13.52-7.39a38,38,0,0,0,2.84-8.16c2.56-11.69,5.52-23.34,7.25-35.16,2.81-19.2,9.74-35.62,24.23-49.46,9.57-9.15,17.07-20.74,24.35-32,12-18.49,19.37-38.88,20.35-61.08.39-9-.65-18-1-27.2H755.91a27.71,27.71,0,0,1,.52,3.26c1.59,45.08,3,90.16,4.83,135.23,1.09,26.24,3,52.45,4.64,78.66.1,1.5,1.55,2.92,2.37,4.38,1-1.47,2.74-2.88,2.88-4.44,1-10.5,1.94-21,2.37-31.55q3.78-90.86,7.33-181.7c.06-1.38.36-2.75.79-5.88,18.71,0,37.29.11,55.86-.06,8.06-.08,16.12-.64,24.17-1.2,4.26-.3,8.24-2.35,8.22-6.87,0-4.82-3.83-7-8.61-6.93-1,0-2.08,0-3.11.05-10.94.65-21.88,1.28-32.81,2-14.58.9-29.15,1.84-44.54,2.82,0-9,.1-17.44,0-25.88-1.37-98.45,1.12-197-8.46-295.23-.86-8.83-1.9-17.65-2.86-26.48l-2,0C753.86,937.57,758.37,1054.18,755.65,1170.88Zm229-297.77-2.39,0c-.44,5-1,10.06-1.32,15.1-2,32.61-3.83,65.23-5.79,97.84-1.34,22.29-3.11,44.55-4.09,66.86-2.39,54.74,6.76,108.18,17.88,161.5,7,33.33,12.42,67,17.94,100.59,2.31,14,2.7,28.37,4.62,42.47,1.38,10.14,6.36,15,13,14.39s11.33-7.12,10.92-17c-.49-11.53-.76-23.22-2.88-34.51-7.49-39.93-15.21-79.82-23.82-119.52-10.28-47.35-18.41-95-20.11-143.46-2-56.43-2.72-112.91-4-169.36-.11-5,0-9.94,0-14.91Zm-521,164.39-1.83,1c.13,2.43.22,4.86.39,7.28,1.57,22.47,4.71,45,4.39,67.4-.56,39.69-2.79,79.36-5.1,119-2.7,46.24-6.25,92.42-9.38,138.63a133.25,133.25,0,0,0-.42,14.26c.27,6.66,6.08,13.86,10.95,14.15s11.26-5.35,12.95-11.66a32.48,32.48,0,0,0,1.12-6.09q2-29.72,3.91-59.43c2.27-35.91,4.59-71.81,6.74-107.73,2-33.85,5.22-67.7,1.94-101.64-2.42-25-8.65-48.8-21.68-70.5a34.68,34.68,0,0,0-4-4.63Zm413.33,136.92-1.35.47a29.84,29.84,0,0,0,.39,4.25,71.06,71.06,0,0,0,2.18,7.74A177.4,177.4,0,0,0,928,1261.23c6.38,5.69,10.88,12.71,12,21.15,3.11,24,5.68,48,8.59,72a58,58,0,0,0,2.6,12.66c1.84,5,5,9.27,11.42,8.44,5.22-.68,9.38-5.79,9.61-12.11a80.39,80.39,0,0,0-.57-13c-2.17-17-4.84-33.95-6.75-51-2.72-24.12-10.71-44.8-31.1-60.22-21.06-15.93-38-36.12-52.19-58.46-1.4-2.19-3.1-4.19-4.65-6.28ZM716.21,432l-.09,2.08c1.18.5,2.34,1.33,3.55,1.42,7.22.54,14.45,1.3,21.66,1.26q73.23-.42,146.44-1.14c4.34,0,8.72.27,13-.22,4.51-.51,7-3.63,6.78-8.16-.25-4.34-3-6.67-7.43-6.6-5.58.09-11.17.11-16.74.44q-80.16,4.7-160.31,9.54a50.18,50.18,0,0,0-6.88,1.38Zm127.24,92.69c5.09-.77,9.65-1.09,14-2.2,7.71-2,13.42-6.59,15.35-14.58,2-8.28-1-15.41-7.59-20.25a50,50,0,0,0-14.89-7c-2.89-.87-6.47.28-9.67.88a3.45,3.45,0,0,0-2.25,2.4c-.07.84,1,2.18,1.94,2.62,2.21,1,4.81,1.35,6.9,2.57,4.22,2.44,8.8,4.71,12.13,8.12,4.36,4.45,2.69,10.12-3.17,12.37a17.88,17.88,0,0,1-8.47,1,122.2,122.2,0,0,1-16.91-3.57c-4.94-1.42-8.31.11-9.94,4.56-1.79,4.89,1,8.15,5.48,9.4C832.1,522.64,838,523.52,843.45,524.64Zm-74.38-45.51c11.42-.12,21.59-10.81,20.69-21.78-.49-6.09-4.53-10.84-9.08-10.67s-7.69,4.59-8.45,10.62c-.29,2.35-1.64,6.23-3,6.42-2.36.35-6-.82-7.42-2.66-2.84-3.66-4.4-8.3-6.79-12.34-.94-1.57-2.72-2.64-4.11-3.94-1.22,1.54-3,2.91-3.56,4.66-4.42,13.42,7.64,29.82,21.67,29.69Zm85.26,109.12c5.88-.42,11.27-.45,16.53-1.29,5.69-.91,9.49-5.83,9.16-10.78s-4.74-8.88-10.67-9.19a16.86,16.86,0,0,0-4.92.24c-11.33,2.85-22.67,5.69-33.91,8.87-1.82.52-3.17,2.74-4.74,4.17,1.74,1.47,3.29,3.86,5.25,4.26,7.84,1.6,15.82,2.58,23.3,3.72Zm14.86-144.81c-1.41,3.51-3,5.4-2.62,6.85,1.59,6.7,2.38,14.11,5.92,19.71,7.19,11.36,23.85,9.51,29-2.92,2-4.76,2.42-10.45,2.3-15.68-.06-2.95-2-7.06-4.38-8.38-2.07-1.16-7-.16-8.69,1.7-1.88,2.07-2.2,6.21-2,9.38.24,4.2,3,9.21-2.35,11.42-5.72,2.33-8.52-2.46-10.75-6.78-1.32-2.55-2.14-5.36-3.23-8-.75-1.82-1.57-3.6-3.18-7.27ZM625.5,520.58c1.64,3.15,2.93,5.94,4.51,8.55,2.68,4.42,6.62,4.78,10.61,2.26s5-6.43,1.49-9.9c-5.05-5-10.15-10.32-16.15-14-7-4.34-15.13-5-23.79-1.79,4.93,2.35,9.29,4.13,13.3,6.48a6.24,6.24,0,0,1,2.7,4.67c-.35,5.94,2.34,6.12,7.33,3.75Z" transform="translate(-267.98 -168.07)"/><path d="M876.59,678.15c20.53,10,34.35,25.31,41.4,46.31,1.74,5.17,1.8,10.9,2.94,16.3.36,1.71,1.31,4,2.68,4.69,52.15,27.32,82,73.1,103.17,125.66,16.43,40.74,24.67,83.58,28.54,127.13,4.45,50,7.47,100.2,11.46,150.28,3.24,40.63,10.42,80.66,19.06,120.48,7.29,33.54,13.48,67.27,13,101.83-.07,5.32-1.47,9.81-6.75,12.18-4.65,2.09-9.43,1.62-12.53-2.11-2.31-2.76-3.64-6.87-4.11-10.54-3.66-28.27-6.43-56.67-10.59-84.86-4.31-29.2-10.93-58.08-14.6-87.35-4-32-6.4-64.17-8.41-96.34-3.72-59.63-5.77-119.43-20.06-177.83-12-49.13-31.47-95-63.23-134.71-10.8-13.51-23.79-25.27-35.82-37.78-2.19-2.28-4.37-3.53-8.13-2.4-6.16,1.84-10.25-2.73-11.84-10.93-1.4-7.23-2.73-14.69-5.66-21.36-6.24-14.22-17-24.8-30.26-32.7a7.83,7.83,0,0,0-5.19-1.05c-6.22,1.42-12.34,3.26-19.94,5.34,4.13,7.38,7.92,14.31,11.86,21.15,3.08,5.36,1.15,10.21-1.86,14.48-8.22,11.65-16.07,23.68-25.44,34.36-11.29,12.87-23.68,24.84-36.2,36.55-8.46,7.92-18.4,13.94-30.83,10.65a41.29,41.29,0,0,1-13.32-6.3c-34.1-24.68-64.26-53.35-87.33-88.87-4.41-6.79-7.83-14.21-11.71-21.34l2.37-1.79,6.87,11.27,2.64-2.16c.53-8.92,1-17.84,1.65-26.75a30.39,30.39,0,0,1,1.78-8.45,12,12,0,0,1,16-6.4c6,2.67,9.24,9.67,6,15.42-5.06,9-11,17.42-16.62,26-1.23,1.89-2.79,3.55-5.29,6.69,14.93,14.43,29.3,29.32,44.76,43,15.3,13.54,31.49,26.1,47.69,38.57,8.6,6.61,13,6.56,21.08-.48a309.62,309.62,0,0,0,54.72-61.45c.64-1,1.44-2.6,1-3.31-4.8-8.67-3-18.18-3.7-27.36,0-.37-.34-.72,0-.07-12-1-23.76-.74-34.8-3.36-8.74-2.07-17-7.16-24.79-12-5.87-3.6-6.08-9.73-2-15,3.78-4.85,8.61-5.67,14.08-1.88,15.11,10.45,32,11.87,49.34,9.16,21.72-3.38,42.74-9.39,62.42-19.5,36-18.49,52.93-48.27,51.05-88.31-1.11-23.73-4.17-47.36-6-71.06-2-26.8-3.56-53.63-5.64-80.42a40.38,40.38,0,0,0-3.8-12.9c-10.47-23.4-21-46.76-36.54-67.44q-8.5-11.36-20.92-4.5c-22.88,12.55-47.22,15.19-72.69,11-23.42-3.86-46.87-7.65-70.39-10.77-7.9-1-16.08,0-24.13.26-8.59.28-14.14,5.25-19.45,11.63s-11.37,12.62-18.22,17.28c-21.87,14.88-37.41,34.07-44.47,59.85-1.11,4.08-.72,9.38-6.38,11.11-.62.19-1,1.74-1.18,2.71-1.79,11.8-3.5,23.61-5.36,36.35,12.26-.52,23.43-.2,29.4,12.55H622.36c.29,5.24-2.4,5.64-6.91,5.41a20.55,20.55,0,0,0-11.94,3.09C592,493,585.2,504.18,587.78,518.47c2.55,14.13,11.68,23.34,25.52,27.66a87.65,87.65,0,0,1,9.87,3.51c3.54,1.6,5.21,4.23,4.34,8.51a8,8,0,0,0,1.67,5.89c17.07,20,34.36,39.72,51.47,59.64,2.53,2.94,5.3,6.16,6.37,9.72.76,2.53-.37,6.56-2.17,8.59-1.17,1.32-5.84,1.32-7.54,0a73.94,73.94,0,0,1-12.93-12.25c-16.44-20.13-29.06-42.57-39.19-66.44-18.2,4.82-31.85-3.56-43.14-16.11-15.29-17-16.64-34.25-6.17-60.44-2.15-1.35-4.24-3.13-6.66-4.09-10-4-15.41-11.72-19.1-21.47-3.93-10.4-8.36-20.64-13.18-30.66-6.1-12.68-9.63-25.44-4-39.78a48.21,48.21,0,0,1-5.44,0c-5.62-.73-8.27-5.32-5.45-10.27,3.23-5.66,7.13-10.93,10.89-16.59-6.54-.5-13.07-.85-19.56-1.54-5.95-.63-11.86-2.23-13.57-8.86-1.61-6.28,2.58-10.36,7.09-14,8.3-6.7,16.51-13.49,24.85-20.32-5.11-1.29-10.36-2.2-15.3-4C510.4,313,509.91,308,515,304c5.89-4.68,12.63-4.55,19.51-3.25,2,.37,3.88,1,4.56,1.2,1.55-2.83,2.56-6.72,4-6.9,3.19-.39,6.61,1.1,11.07,2.07,7.6-13.43,20.26-24.07,33.56-34.29,13.56-10.42,27.69-18.1,44.85-15.45,1.15-9.07,1.67-17.66,3.45-26,2.14-10,7.23-18.67,16.32-23.89a17.52,17.52,0,0,1,11.28-1.55c1.22.24,1.39,5.86,2.14,9.49a41.14,41.14,0,0,1,4.28-3.09c10-5.72,19.66-12.36,30.22-16.78,18.79-7.85,37.55-6.87,55.19,4.25,12.55,7.91,25.8,14.15,40.8,15.27,22.63,1.68,45.16,1.6,65.94-9.38,13.31-7,26.57-14.24,39.28-22.28,14-8.83,22.29-7.27,31.26,9.11,1.87-2.59,3.07-5,5-6.75,7.6-6.89,18.86-3.17,21.07,6.84,3.55,16,3,32-1.25,49.75,2.43-2.79,3.83-4.28,5.1-5.87s2.17-3.74,3.77-4.88c2.16-1.54,5.06-3.54,7.23-3.13s4.07,3.36,5.62,5.54c6.38,9,1.8,17.86-.71,26.66-2.43,8.49-5.17,16.89-7.74,25.23,7.7-.48,15.13-.77,22.53-1.46,6.54-.6,16.06,5.41,17.84,13.68a48.38,48.38,0,0,1,0,21.15c-3.39,13.6-12.6,23.52-24.28,31-5.81,3.72-9,8.55-9.57,15.59-1,11.67-6.48,21.09-15.36,28.77-5.77,5-10.85,10.31-19.46,10.58-4.05.12-6.55,2.85-5.25,8.66,10.68,47.62,17,96,22.22,144.44,3.13,29,1,57.59-17.45,82.38-15.38,20.67-35.79,34.63-59.17,44.68-1.87.81-3.72,1.67-6.2,2.78Zm-242.37-407c-10.83-4.6-26-1.58-33.32,6.38Zm264.87,36.38,4,4.51c6.3-5.73,12.11-11,15.68-18.05l-1.51-1.26-18.18,14.8Z" transform="translate(-267.98 -168.07)"/><path d="M664.55,643l-15.25-.69c-24.46-1.08-48.7-.07-72.71,5.55-18.3,4.29-31.41,13.65-37.55,32.07-6.29,18.86-19,29.44-39.69,29.27-39.21-.33-56.63,32.08-58.43,60.56-.4,6.38-.29,12.81-.19,19.21.11,6.66,1,13,10.08,14.36,7.9-6.86,16.32-14.44,25-21.67,25.6-21.26,53.93-38.19,83.79-52.7,2.44-1.19,4.26-3.67,6.71-4.87,3.77-1.84,7.73-3.71,11.81-4.44,8.86-1.6,15.69,4,21.91,8.69,16,12.06,31.18,25.13,46.78,37.7,11.9,9.59,23.43,19.76,36.07,28.27,9.12,6.16,19.78,10,29.78,14.9,3.13,1.52,6.49,2.63,9.46,4.42,4,2.36,6.91,6,5.41,10.75-1.57,5-5.85,7.66-11.09,7.15a55.39,55.39,0,0,1-13.19-3c-24.17-8.75-44.43-23.7-63-41s-36.75-35.19-55.08-52.84c-8-7.68-7.92-7.68-17.39-2.24-40.21,23.13-77,50.78-109.11,84.29A571.91,571.91,0,0,0,354.87,966.39c-14.36,30-20.41,62.26-23.27,95.2-4.06,46.7-5.16,93.73-16,139.66-6.52,27.52-13,55.06-18.86,82.73-6.93,32.65-8.39,65.57-2.6,98.62.89,5.08,1,10-4.22,13.19-3.86,2.38-8,3-11.47,0a16.18,16.18,0,0,1-5.15-8.06c-2.06-9.67-4.18-19.44-4.84-29.27-2.53-38.29,6.11-75.17,15.34-111.88,9.05-36.07,18.6-72,22.34-109.15,2.55-25.3,4.69-50.65,6.76-76,3.82-46.65,16.68-90.44,40.52-130.88,23.48-39.84,50.19-77.28,82-111,1.41-1.48,2.67-3.09,4.29-5-10.24-3.79-13.24-12-14.21-21.6-2.72-26.81.87-52.12,18.31-73.83,13-16.21,29.84-25.15,51-24.93,3.3,0,6.6-.07,9.91-.16A17.59,17.59,0,0,0,520,685a64.41,64.41,0,0,0,5.79-11.6c8.11-23,24.86-35,48.22-39.53,24.23-4.69,48.35-6.29,72.41.49,6.31,1.77,12.37,4.46,18.54,6.74-.15.63-.29,1.26-.44,1.89Z" transform="translate(-267.98 -168.07)"/><path d="M755.65,1170.88c2.72-116.7-1.79-233.31,11.81-349.25l2,0c1,8.83,2,17.65,2.86,26.48,9.58,98.22,7.09,196.78,8.46,295.23.12,8.44,0,16.89,0,25.88,15.39-1,30-1.92,44.54-2.82,10.93-.68,21.87-1.31,32.81-2,1-.06,2.07,0,3.11-.05,4.78,0,8.6,2.11,8.61,6.93,0,4.52-4,6.57-8.22,6.87-8,.56-16.11,1.13-24.17,1.2-18.57.17-37.15.06-55.86.06-.43,3.13-.73,4.5-.79,5.88q-3.66,90.84-7.33,181.7c-.43,10.53-1.37,21-2.37,31.55-.14,1.56-1.88,3-2.88,4.44-.82-1.46-2.27-2.88-2.37-4.38-1.67-26.21-3.55-52.42-4.64-78.66-1.88-45.07-3.24-90.15-4.83-135.23a27.71,27.71,0,0,0-.52-3.26H635.3c.39,9.2,1.43,18.23,1,27.2-1,22.2-8.37,42.59-20.35,61.08-7.28,11.24-14.78,22.83-24.35,32-14.49,13.84-21.42,30.26-24.23,49.46-1.73,11.82-4.69,23.47-7.25,35.16a38,38,0,0,1-2.84,8.16c-2.88,6-8.13,8.71-13.52,7.39a11.88,11.88,0,0,1-8.74-12.66,128.29,128.29,0,0,1,3.21-17.62c3-13.27,6.62-26.43,9.27-39.77,3.34-16.83,12.34-29.51,25.2-40.65,27.74-24,47.21-53.49,54.8-90a117.54,117.54,0,0,0,2-14.74c.38-4.82,2-7.07,7.48-7.4,37.15-2.21,74.27-4.85,111.4-7.38,2.46-.16,4.9-.54,7.26-.81Z" transform="translate(-267.98 -168.07)"/><path d="M984.65,873.11c0,5-.1,9.94,0,14.91,1.26,56.45,2,112.93,4,169.36,1.7,48.45,9.83,96.11,20.11,143.46,8.61,39.7,16.33,79.59,23.82,119.52,2.12,11.29,2.39,23,2.88,34.51.41,9.85-4.21,16.37-10.92,17s-11.65-4.25-13-14.39c-1.92-14.1-2.31-28.44-4.62-42.47-5.52-33.6-11-67.26-17.94-100.59-11.12-53.32-20.27-106.76-17.88-161.5,1-22.31,2.75-44.57,4.09-66.86,2-32.61,3.83-65.23,5.79-97.84.31-5,.88-10.07,1.32-15.1l2.39,0Z" transform="translate(-267.98 -168.07)"/><path d="M463.61,1037.5a34.68,34.68,0,0,1,4,4.63c13,21.7,19.26,45.54,21.68,70.5,3.28,33.94.09,67.79-1.94,101.64-2.15,35.92-4.47,71.82-6.74,107.73q-1.89,29.73-3.91,59.43a32.48,32.48,0,0,1-1.12,6.09c-1.69,6.31-8,12-12.95,11.66s-10.68-7.49-10.95-14.15a133.25,133.25,0,0,1,.42-14.26c3.13-46.21,6.68-92.39,9.38-138.63,2.31-39.64,4.54-79.31,5.1-119,.32-22.44-2.82-44.93-4.39-67.4-.17-2.42-.26-4.85-.39-7.28l1.83-1Z" transform="translate(-267.98 -168.07)"/><path d="M876.94,1174.42c1.55,2.09,3.25,4.09,4.65,6.28,14.21,22.34,31.13,42.53,52.19,58.46,20.39,15.42,28.38,36.1,31.1,60.22,1.91,17,4.58,34,6.75,51a80.39,80.39,0,0,1,.57,13c-.23,6.32-4.39,11.43-9.61,12.11-6.38.83-9.58-3.39-11.42-8.44a58,58,0,0,1-2.6-12.66c-2.91-24-5.48-48-8.59-72-1.1-8.43-5.6-15.46-12-21.15a177.4,177.4,0,0,1-49.84-74.35,71.06,71.06,0,0,1-2.18-7.74,29.84,29.84,0,0,1-.39-4.25l1.35-.47Z" transform="translate(-267.98 -168.07)"/><path d="M716.21,432a50.18,50.18,0,0,1,6.88-1.38q80.16-4.85,160.31-9.54c5.57-.33,11.16-.35,16.74-.44,4.45-.07,7.18,2.26,7.43,6.6.26,4.53-2.27,7.65-6.78,8.16-4.3.49-8.68.19-13,.22q-73.21.6-146.44,1.14c-7.21,0-14.44-.72-21.66-1.26-1.21-.08-2.37-.92-3.55-1.42l.09-2.08Z" transform="translate(-267.98 -168.07)"/><path d="M843.45,524.64c-5.42-1.12-11.35-2-17.07-3.61-4.44-1.25-7.27-4.5-5.48-9.4,1.63-4.45,5-6,9.94-4.56a122.2,122.2,0,0,0,16.91,3.57,17.88,17.88,0,0,0,8.47-1c5.86-2.25,7.53-7.92,3.17-12.37-3.33-3.41-7.91-5.68-12.13-8.12-2.09-1.22-4.69-1.53-6.9-2.57-.91-.44-2-1.78-1.94-2.62a3.45,3.45,0,0,1,2.25-2.4c3.2-.6,6.78-1.75,9.67-.88a50,50,0,0,1,14.89,7c6.62,4.84,9.59,12,7.59,20.25-1.93,8-7.64,12.62-15.35,14.58C853.1,523.55,848.54,523.87,843.45,524.64Z" transform="translate(-267.98 -168.07)"/><path d="M769.07,479.13c-14,.13-26.09-16.27-21.67-29.69.58-1.75,2.34-3.12,3.56-4.66,1.39,1.3,3.17,2.37,4.11,3.94,2.39,4,3.95,8.68,6.79,12.34,1.42,1.84,5.06,3,7.42,2.66,1.31-.19,2.66-4.07,3-6.42.76-6,4-10.45,8.45-10.62s8.59,4.58,9.08,10.67c.9,11-9.27,21.66-20.69,21.78Z" transform="translate(-267.98 -168.07)"/><path d="M854.33,588.25c-7.48-1.14-15.46-2.12-23.3-3.72-2-.4-3.51-2.79-5.25-4.26,1.57-1.43,2.92-3.65,4.74-4.17,11.24-3.18,22.58-6,33.91-8.87a16.86,16.86,0,0,1,4.92-.24c5.94.31,10.32,4.15,10.67,9.19s-3.47,9.87-9.16,10.78c-5.26.84-10.65.87-16.53,1.29Z" transform="translate(-267.98 -168.07)"/><path d="M869.19,443.44c1.61,3.67,2.43,5.45,3.18,7.27,1.09,2.67,1.91,5.48,3.23,8,2.23,4.32,5,9.11,10.75,6.78,5.4-2.21,2.59-7.22,2.35-11.42-.19-3.17.13-7.31,2-9.38,1.69-1.86,6.61-2.86,8.69-1.7,2.37,1.32,4.32,5.43,4.38,8.38.12,5.23-.33,10.92-2.3,15.68-5.14,12.43-21.8,14.28-29,2.92-3.54-5.6-4.33-13-5.92-19.71-.34-1.45,1.21-3.34,2.62-6.85Z" transform="translate(-267.98 -168.07)"/><path d="M625.5,520.58c-5,2.37-7.68,2.19-7.33-3.75a6.24,6.24,0,0,0-2.7-4.67c-4-2.35-8.37-4.13-13.3-6.48,8.66-3.17,16.77-2.55,23.79,1.79,6,3.7,11.1,9,16.15,14,3.48,3.47,2.48,7.39-1.49,9.9s-7.93,2.16-10.61-2.26c-1.58-2.61-2.87-5.4-4.51-8.55Z" transform="translate(-267.98 -168.07)"/><path class="cls-1" d="M634.22,271.17l-33.32,6.38C608.23,269.59,623.39,266.57,634.22,271.17Z" transform="translate(-267.98 -168.07)"/><path class="cls-1" d="M899.09,307.55l18.18-14.8,1.51,1.26c-3.57,7-9.38,12.32-15.68,18.05Z" transform="translate(-267.98 -168.07)"/></svg>