<?xml version="1.0" encoding="UTF-8"?>
<svg id="Layer_1" data-name="Layer 1" xmlns="http://www.w3.org/2000/svg" viewBox="0 0 725.76 1025.86">
  <defs>
    <style>
      .cls-1 {
        fill: #fff;
      }

      .cls-1, .cls-2, .cls-3 {
        stroke-width: 0px;
      }

      .cls-1, .cls-3 {
        fill-rule: evenodd;
      }

      .cls-2, .cls-3 {
        fill: #000;
      }
    </style>
  </defs>
  <path class="cls-2" d="M616.67,635.19h-212.04v261.11h212.04v-261.11Z"/>
  <path class="cls-1" d="M342.78,379.79c22.86-17.4,80.24-25.23,104.63-8.47,24.09,16.83,26.72,44.04,37.95,69.08,10.59-4.99,28.09,2.16,31.16,11.99,3.81,4.64,3.98,17.66,6.61,23.89,114.3,18.19,131.65,107.3,145.41,208.47,18.2,102.66,59.52,205.09,41.58,310.72,2.34,3.38,4.18,6.67,5.88,10.57,4.08,6.95-1.18,16.78-9.41,16.4-10.66-.94-21.21-2.21-31.92-2.61-29.68-1.03-59.4-.91-89.09-.53l-4.05.05c-149.66,1.86-299.31,5.53-448.98,6.51-5.43.01-8.09-4.86-7.36-9.67,1.46-9.67,2.81-19.35,4.23-29.02-35.4,9.35-73.03,11.7-108.33.98-2.47-2.51,5.75-1.15,7.06-1.53-32.49-22.2-22.79-68.96-19.91-102.65,17.89-115.42,24.2-243.12,93.34-341.61,29.91-40.19,73.76-72.01,124.15-79.17l1.4-.19c14.73-1.96,31.15-2.6,44.03-10.61,14.49-11.57,20.66-32.94,35.9-33.14,5.03-.07,11.88,6.3,19.25,10.62.55-9.51,5.67-17.54,6.81-24.91l.09-.63c1.18-8.6-.44-16.33,9.57-24.54ZM588.42,687.79c-32.12-22.31-115.1-11.1-116.99-9.85-4.18,2.75-5.98,2.99-8.24,6.57-2.23.3-4.46.6-6.7.92-4.47,1.46-1.16,6.96,4.01,5-3.11,13.4,6.04,22.93,9.68,36.18,1.18,4.3.04,12.04,0,16.43.35,5.6,6.55,12.22,5.52,17.85-3.67,19.99-23.6,39.49-15.2,58.88,5.57,10.95,22.3,16.53,33.43,20.25,23.06,8.85,63.23-.33,76.62-20.25,7.14-10.63,15.42-37.43,19.68-45.74l.95-13.19c2.33-32.78,4.4-68.08-2.75-73.04Z"/>
  <path class="cls-3" d="M301.47,417.31c2.22-1.96,5.5.5,4.09,3.16-3.17,5.96-6.42,11.61-10.67,16.88-2.58,3.19-5.34,6.22-8.13,9.21,7.18,6.21,13.33,13.92,19.15,21.15,7.43,9.24,14.46,18.88,22.81,27.33,8.23,8.34,17.33,14.17,28.33,18.06l2.22.77c11.05,3.88,22.87,9.12,29.1,19.59,1.23,2.06-1.25,4.61-3.33,3.33-10.83-6.7-23.55-8.05-35.33-12.48-11.39-4.28-21.31-10.86-30.08-19.27-8.75-8.39-16.1-17.94-23.77-27.28-7.58-9.24-15.74-17.13-24.71-24.95-13.84,9.31-29.63,13.36-45.7,17.34l-1.75.43c-16.08,3.98-32.08,8.61-47.16,15.54-13.3,6.11-26.38,13.41-37.22,23.36-11.5,10.55-20.45,24.04-28.65,37.22-18.33,29.5-31.21,61.81-42.56,94.52-11.8,34.02-21.67,68.72-29.63,103.84-4.05,17.86-7.34,35.85-10.05,53.96-1.3,8.72-2.46,17.47-3.47,26.23-1.08,9.36-1.33,18.98-4.2,27.98-1.23,3.86-4.14,5.46-7.04,5.32l-.59,7.39c-.78,9.85-1.51,19.7-1.76,29.61-.41,16.48-.22,32.91.96,49.36l.17,2.24c.93,12,3.01,25.49,12.04,34.28,9.35,9.1,23.72,11.96,36.32,12.13,29.34.38,57.58-13.48,83.55-25.64,26.74-12.52,52.75-26.43,78.13-41.51,12.93-7.68,25.71-15.61,38.34-23.78,6.2-4.01,12.35-8.08,18.45-12.23,3.5-2.37,6.81-4.97,10.37-7.08-1.74-1.62-2.52-4.18-1.06-6.41-10.29-8.93-14.58-24.88-15.08-37.77-.4-10.41,1.13-20.79,2.34-31.11.61-5.2,1.36-10.39,2.15-15.57.31-2.04.55-4.23.91-6.39-27.79,15.27-56.36,28.87-85.68,40.95-15.03,6.19-30.26,11.76-45.69,16.86l-3.13,1.03c-14.62,4.79-29.6,9.31-44.72,12.04-.81.15-1.46-1.05-.6-1.43,14.73-6.5,29.98-11.98,44.93-17.97l2.46-1c-.28-.02-.57-.05-.88-.13-8.77-2.12-17.47-5.38-26.07-8.12-7.98-2.55-16.95-4.15-24.41-8-.57-.3-.25-1.09.31-1.13,8.39-.58,17.49,1.86,25.72,3.3l3.09.54c5.17.91,10.47,1.89,15.61,3.17.19-1.72,1.15-3.46,2.52-4.47,15.09-11.17,13.56-33.75,15.17-50.39l1.2-12.36c2.1-21.62,4.33-43.25,7.71-64.71.18-1.15,1.95-.82,1.96.27.18,26.61-1.83,53.09-2.84,79.65l-.16,4.36c-.56,16.39-.99,33.41-11.32,46.02,1.44-.84,3.4-.84,4.57.55,1.44,1.71,2.27,3.63,2.24,5.52,9.33-3.91,18.62-7.92,27.86-12.02,29.72-13.16,58.81-27.9,87.13-43.84,3.05-1.72,5.95-.37,7.45,1.89l.22-.03s.07,0,.11-.01h.22s.02,0,.02,0c3.99-2.19,9.42-.63,12.84,2.57.1.1.19.2.28.3,4.33-1.95,8.38-4.57,12.05-7.9,7.51-6.81,13.87-15.22,19.42-23.66,10.21-15.55,18.89-32.84,32.69-45.63,11.21-10.4,25.11-16.87,39.69-20.93-.06-.43.1-.88.4-1.18.75-.77,1.28-1.03,2.25-.57.08.04.12.09.16.15l1.42-2.43c.78-1.32,1.57-2.65,1.85-3,1.66-2.08,3.36-4.15,5.09-6.18,2.93-3.43,6.27-6.81,10.14-9.19,8.47-5.2,17.38-2.26,26.09.59,5.26,1.72,10.51,3.49,15.76,5.24l.54.18c3.92,1.26,8.5,2.36,10.25,6.51.69,1.64.8,3.35.48,5,37.21-9.46,78.53-5.11,114.84,5.99,1.39.43,2.79,1.57,3.08,3.08,4.16,21.33,6.01,43.21,4.13,64.91-1.62,18.73-5.77,37.09-13.59,54.23l-.45.97c-7.35,15.89-19,35.48-36.79,40.46-10.74,3.01-22.62,1.23-33.58.68-10.65-.54-21.53-.61-32.08-2.29-9.39-1.49-17.62-5.7-23.43-13.34-5.01-6.59-7.64-14.55-9.8-22.47-.99.31-1.97.65-2.94,1.03-4.08,1.59-7.54,4.17-10.66,7.19-6.6,6.39-11.72,14.16-18.63,20.26-6.25,5.52-13.38,9.82-21.02,13.12-15.83,6.84-32.82,9.58-49.57,13.2l-1.17.25c-12.61,2.77-25.48,6.16-36.61,12.73-.22,1.93-1.1,3.75-2.51,4.94,1.96,1.84,2.79,4.76,1.07,7.5-4.82,7.65-13.12,12-20.57,16.89l-.48.32c-7.33,4.86-14.72,9.62-22.18,14.29-15.15,9.49-30.62,18.45-46.31,27.02-25.23,13.78-51.01,26.79-77.25,38.58,1.57,7.75,1,15.74,2.18,23.54l.18,1.12c.51,2.89-.18,5.31-2.17,7.2l-.21.2v-.03s-.18.17-.18.17l-.06.06.02-.02c-.23.21-.47.41-.71.57l-.31.2c-1.92,1.17-4.39,1.15-6.36.12l-.22-.12-.38-.22c-2.6-1.49-4.39-5.19-3.31-8.13,2.65-7.23,3.65-14.95,6.1-22.23l-1.94.87-2.56,1.11c-27.67,11.97-58.4,22.04-88.54,13.89-13.32-3.61-25.77-11.23-32.43-23.66-6.56-12.23-7.48-26.43-7.83-40.03-.43-16.79.47-33.83,2.68-50.48,1.49-11.17,3.28-22.56,6.06-33.61-1.43-1.26-2.47-3.06-2.75-5.3-1.31-10.56.98-21.54,2.38-32.04,1.37-10.26,2.88-20.49,4.59-30.7,3.45-20.61,7.47-41.18,12.14-61.55,8.32-36.25,19.3-71.86,32.52-106.61l1.16-3.03c12.22-31.77,26.36-62.86,46.06-90.77,9.42-13.35,19.38-25.46,32.7-35.08,12.47-9.02,26.54-15.51,41.07-20.47,14.54-4.96,29.48-8.29,44.68-10.36,15.44-2.1,31.74-3.39,46.15-9.72-1.82-3.27-.26-7.68,2.81-9.7,10.32-6.82,19.86-15.69,29.11-23.89ZM631.84,713.81c.43-.66,1.46-.24,1.27.53-5.02,20.56-9.73,41.17-12.81,62.13-5.55,37.82-4.53,76.14-4.08,114.24l.02,1.97c.23,20.52.56,41.05,1.24,61.57.34,10.37,1.02,20.84.65,31.21-.2,5.63-1.7,10.95-2.23,16.51-.47,4.86-.05,9.8.18,14.67.16,3.24-4.62,3.1-4.95,0l-.41-4.01c-.54-5.07-1.21-10.11-2.87-14.97-2-5.84-2.96-11.58-3.65-17.71-1.06-9.4-1.53-18.89-1.94-28.35l-.28-6.54c-1.71-39.54-1.65-79.27,1.12-118.77l.2-2.82c2.75-37.34,7.51-77.68,28.55-109.67ZM524.85,478.49c-1.31-.54-.85-2.52.6-2.18l2.64.63c19.35,4.63,38.34,9.65,56.4,18.28,18.07,8.63,33.37,21.51,45.52,37.35,23.63,30.79,33.45,68.2,41.2,105.59,8.62,41.54,16.46,83.23,25.15,124.75l1.61,7.73c8.04,38.67,15.63,77.37,21.23,116.51l.4,2.84c5.64,40.24,9.03,81.88,2.88,122.23-1.22,7.98-14.5,5.99-13.98-1.9,1.5-22.79,2.57-45.48,1.54-68.33-1.04-22.85-3.18-45.61-6.38-68.26-2.69-19.07-6.7-37.89-10.24-56.81l-.56-2.99c-2.97-16.09-6.03-32.16-9.09-48.23l-4.57-24.06c-6.84-36.03-13.82-72.09-21.71-107.9l-.47-2.11c-7.72-34.45-19.09-70.53-42.23-97.88-23.49-27.76-57.11-41.74-89.95-55.27ZM439.51,843.86c.57-1.26,2.54-1.12,3.15,0,2.38,4.39,2.64,10,3.09,14.95l.05.51c.57,6.05,1.08,12.12,1.39,18.19.59,11.52.87,23.02.83,34.55-.04,11.82-.27,23.62-.91,35.42l-.17,3.16c-.58,10.26-1.56,21.69-6.43,30.66-1.77,3.26-6.59,2.3-7.61-.99-3.36-10.79-1.64-23.59-.77-34.64l.67-8.62c.66-8.63,1.29-17.25,1.8-25.89.69-11.82,1.25-23.64,1.8-35.46.18-3.84.37-7.68.57-11.52l.31-5.76c.27-4.82.24-10.1,2.24-14.55ZM61.59,859.16l1.49-1.44c4.57-4.47,10.34-11.35,17.09-10.93,2.69.17,4.41,2.4,3.85,5.05-1.19,5.66-6.97,8.6-11.13,12.06-4.56,3.79-8.85,7.83-13.13,11.92-3.8,3.62-7.46,7.35-11.03,11.19l-1.33,1.45c-1.28,1.4-10.39,9.64-9.4,11.77l.05.1c.27.41-.18.97-.64.83-3.93-1.24-3.69-4.61-2.2-8.03,2.86-6.56,7.86-12.63,12.23-18.24,4.36-5.59,9.07-10.8,14.15-15.74ZM453.76,694.57c-3.04-7.19-14.25-7.04-20.61-6.61-16.02,1.08-33.35,5.14-47.6,12.62-14.78,7.76-24.73,20.2-33.64,33.95l-.42.65c-8.68,13.49-17.04,29.47-30.63,38.74-6.92,4.73-15.01,9.04-23.41,10.91-.58,1.01-1.51,1.82-2.74,2.11l-.57.13c-2.39.53-6.11,1.11-9.32.76.02,1.57,0,3.13.04,4.62.11,4.26.16,8.55.16,12.81,0,8.94-.48,17.9-.11,26.84.33,7.91,1.45,16.17,5.24,23.23,2.78,5.18,6.46,8.62,10.9,11.89,10.91-6.65,23.25-10.7,35.78-13.75,15.15-3.69,30.65-6.15,45.46-11.15,7.12-2.41,13.97-5.55,20.18-9.83,6.59-4.54,11.62-10.69,16.79-16.7l.81-.93c5.28-6.06,11.05-11.85,18.51-15.14,6.43-2.83,14.9-3.33,20.52-7.71,2.94-2.29,3.18-5.61,3.49-9.02-3.6.51-7.41-.31-11-.73l-1.86-.22c-3.39-.4-6.71-.85-10.05-1.71-.62-.16-.62-1.09,0-1.26,3.95-1.02,7.86-1.45,11.91-1.93l.95-.12c3.66-.48,7.51-1.2,11.1-.4.65-2.45,1.58-4.79,2.88-7.14,1.83-3.29,5.3-7.03,5.77-10.88.14-1.15-.13-2.5-.67-3.52l-.19-.35c-.23-.41-.5-.82-.89-1.08-.04.05-.14.11-.34.17-2.76.87-5.18-.48-6.46-2.57-5.43.67-11.36.45-16.45.67l-5.15.25c-5.5.25-11.26.36-16.43-.75-.72-.15-.94-1.36-.22-1.66,6.36-2.72,14.07-3.59,20.88-4.63,3.8-.58,7.63-1.03,11.44-1.54,2.54-.34,5.23-.91,7.86-1.04,6.59-8.21,3.04-21.16-6.14-24.7-3.34,1.47-6.35.62-10,.3-3.65-.31-7.3-.53-10.96-.51-7.34.03-15.11,1.96-22.38,1.13-1.18-.14-2.28-1.71-1.1-2.67,5.56-4.54,13.53-6.02,20.59-6.99l1.46-.2c2.37-.31,5.25-.76,8.23-1.03.68-1.32,1.89-2.31,3.71-2.56.54-.07,1.08-.12,1.63-.16v-.05c4.43-.21,4.24-7.71,3.02-10.58ZM149.99,834.78c-.08.12-.16.24-.25.35l-.14.16.73-.3-.33-.21ZM531.19,678.51c-18.67-2.01-37.38-1.58-56.11-1.04-1.5,4.9-6.71,9.08-11.77,9.23,3.96,6.02,4.37,14.17,1.59,20.56,5.89,2.35,10.97,6.56,14.05,12.56,4.27,8.32,3.71,17.57-.51,25.26,3.61,3.26,5.73,8.56,5.52,13.56-.24,5.57-3.56,10.33-6.32,14.94-2.98,4.99-3.08,9.38-4,14.96-1.34,8.17-6.85,13.13-13.95,16.23l.38,1.48c1.83,7.12,4.11,14.63,9.33,19.84,6.72,6.7,17.15,6.63,26.04,7.06l.43.02c8.14.41,16.27.88,24.4,1.34l6.1.34c9.36.52,18.36.58,26-5.61,12.48-10.1,21.03-26.82,26.45-41.63,11.36-31.07,11.5-65.17,6.28-97.53-17.49-5.64-35.65-9.61-53.92-11.57ZM375.88,730.05h.14c3.85.45,6.49,3.56,7.43,7.26,1.37,5.37.7,10.22,3.98,15.07,3.38,4.98,5.46,8.97,5.95,15.13.2,2.53.11,5.06.67,7.54l.41,1.74c.43,1.85.79,3.64.57,5.62-.2,1.81-1.08,3.23-2.9,3.81-5.93,1.9-10.51-2.47-12.04-8-1.32-4.77.44-10.46-1.42-14.94-1.03-2.49-2.94-4.56-4.02-7.06-1.07-2.48-1.6-5.07-1.78-7.76-.32-5.1,4.18-11.22,1.67-15.84-.54-.98.07-2.59,1.33-2.57ZM297.12,677.46c4.01-.82,8.57-2.68,12.53-1.13,2.04.8,3.04,3.28,1.32,5.01-2.98,2.99-7.32,3.16-11.34,3.86l-.35.06c-4.75.88-9.52,1.71-14.29,2.51-8.97,1.49-17.97,2.8-26.99,3.92-9.27,1.15-18.57,2.17-27.88,2.94l-3.6.3c-7.86.63-16.05,1.1-23.76-.1-1.12-.17-.94-1.81,0-2.09,8.45-2.56,17.72-3.24,26.46-4.33,9.29-1.15,18.57-2.37,27.82-3.81,9.24-1.44,18.46-2.99,27.65-4.7,4.15-.77,8.3-1.58,12.44-2.42ZM441.99,669.25c-3.52-1.25-7.4-3.09-11.22-2.48-6.58,1.07-12.44,7.48-17.65,11.71l2.62-.51c13.39-2.57,31.12-5.34,42.36,3.17.03-.05.05-.1.08-.15.91-1.38,1.96-2.45,3.1-3.63.11-.1.22-.21.32-.32l.62-.66-1.42-.49c-3.03-1.07-6.62-2.46-7.19-2.66h-.04c-3.87-1.32-7.74-2.62-11.58-3.98ZM331.99,388.63c-.55-7.09,10.48-7.03,11.02,0,1.19,15.34-2.26,30.54-9.69,43.99-.05.1-.11.19-.17.28,4.65,2.42,9.35,4.74,14.15,6.81,6.15,2.65,12.41,5.07,18.79,7.12,5.77,1.86,12.87,2.59,17.72,6.45,10.22,8.14,6.38,25.04,4.42,35.99l-.31,1.73c-.98,5.64-1.69,11.42.69,16.82,2.54,5.78,7.67,10.06,12.24,14.2l.92.84c4.05,3.69,8.69,8.18,11.66,13.19,2.71-5.61,6.42-10.2,10.33-15.36,2.79-3.68.81-4.9-1.2-8.5-1.93-3.47-2.87-7.16-2.27-11.11,1.11-7.3,6.95-12.57,12.76-16.54,6.86-4.68,14.51-8.14,21.6-12.49,14.57-8.94,28.76-19.16,41.54-30.51.35-.31.96.1.68.53-10.1,15.36-21.94,28.63-36.49,39.89-5.9,4.57-12.1,8.36-18.34,12.34l-1.79,1.15c-2.51,1.62-5.63,3.79-6.76,6.55-1.14,2.78,1.29,4.88,2.6,7.18,4.15,7.31,2.15,14.13-2.77,20.33l-.23.29c-4.89,6.03-8.6,11.64-10.38,19.35-3.81,16.55,1.5,33.79,7.05,49.33l.22.61c3.01,8.38,6.2,16.69,8.81,25.2l.72,2.35c2.37,7.83,4.31,15.55,1.65,23.6-.9,2.74-4.64,3.39-6.19.81-5.47-9.09-6.83-20.02-10.26-30.01-3.34-9.74-7.18-19.3-10.41-29.08-4.16-12.59-6.94-26.14-5.43-39.34-.04-.08-.09-.15-.13-.23l-1.06-2.32c-2.88-6.27-5.67-11.74-10.92-16.74-5.47-5.21-11.42-9.82-15.72-16.14-9.36-13.7-3.57-28.95-2.44-43.93l.13-1.84c.2-3.11.32-7.34-1.72-9.49-2.29-2.42-7.65-3.04-10.68-4.12-7.84-2.77-15.56-6.01-22.92-9.89-7-3.69-13.79-7.78-20.11-12.56l-3.2-2.41c-5.05-3.81-10.29-7.97-13.67-13.16-.39-.6.27-1.56.98-1.27,5.65,2.29,10.82,5.94,16.1,9.12.08-.19.18-.39.29-.58,6.54-11.84,9.23-24.96,8.19-38.43ZM512.53,469.75c2.25-6.18,12.52-5.7,12.11,1.64-.31,5.64-2.71,10.72-4.9,15.84l-.23.55c-2.26,5.33-4.87,10.34-7.99,15.23-5.96,9.34-12.95,18.01-20.42,26.2-6.77,7.42-15.65,11.95-25.88,11.2-4.31-.32-8.67-1.42-12.44-3.57-4.49-2.56-9.36-10.24-15.09-8.38-.55.18-1.07-.63-.59-1.02,6.61-5.32,14.11,2.93,20.44,4.92,9.54,2.99,19.32-.32,25.46-8.03,6.41-8.05,12.31-17.06,17.69-25.83,2.74-4.45,5.23-9.07,7.39-13.83,2.17-4.8,2.67-10.03,4.46-14.92ZM497.15,431.75c-.28-.85.78-1.66,1.53-1.18,4.34,2.83,8.11,6.56,12.11,9.84,4.45,3.63,8.92,7.19,13.47,10.7,6.63,5.11-1.06,14.52-6.89,8.93-7.98-7.64-16.73-17.62-20.22-28.29ZM473.31,401.86c1.76-6.8,12.2-4,10.68,2.73l-.05.2c-2.88,11.11,1.22,22.42,9.98,29.62l.32.26c5.54,4.43-2.31,12.19-7.8,7.8-11.98-9.58-16.96-25.87-13.14-40.61Z"/>
  <path class="cls-1" d="M451.67,423.58c-20.51.12-37.94-5.71-51.24-15.36-16.6-5.93-36.62-15.08-48.77-24.68-4.74,1.21-10.42-3.84-14.05-6.5-22.57-16.89-40.28-41.61-45.53-66.37-8.1,10.25-19.63,10.68-30.68,5.58-23.15-13.16-22.29-40.87-13.95-61.57-17.52-39.4-29.67-143.43-2.92-185.41,5.47-6.28,13.5-10.04,19.28-16.48,5.14-5.63,10.04-11.38,16.02-15.83,18.26-13.93,49.72-21.35,69.41-24.83,82.22-17.81,145.39,14.2,219.86,41.21-4.29,10.74-10.22,20.54-17.01,29.67,18.49,6.92,10,22.46-4.35,30.35l-8.54-4.16c13.31,47.73,43.95,166.41,30.73,204.53-10.54,59.46-56.8,110.29-118.27,109.86Z"/>
  <path class="cls-3" d="M568.8,53.76c-4.29,10.74-10.22,20.54-17.01,29.67,18.49,6.92,10,22.47-4.35,30.35l-6.17-3.01c-2.7-17.46-7.9-26.57-15.61-27.34-12.63-1.26-40.58,22.42-52.75,22.42s-74-26.48-107.96-26.48-62.88,28.11-74.36,48.49c-7.66,13.58-1.96,28.81,17.1,45.68-11.4,14.64-17.1,25.16-17.1,31.57s1.33,19.64,3.99,39.7c-12.27-4.04-21.92-6.05-28.94-6.05s-13.11,3.9-18.28,11.69h-2.17c-16.44-42.4-26.73-140.32-.98-180.73,5.47-6.28,13.5-10.04,19.28-16.48,5.14-5.63,10.04-11.38,16.02-15.83,18.26-13.93,49.72-21.35,69.41-24.83,82.22-17.81,145.39,14.2,219.86,41.21Z"/>
  <path class="cls-3" d="M463.55,428.7c-26.63,2.74-58.26-3.57-76.02-25.25-.53-.65-.76-1.38-.78-2.09-.01-.79.25-1.55.71-2.14.48-.62,1.16-1.06,1.95-1.2.66-.12,1.41-.04,2.19.39l1.63.91c12.12,6.71,24.71,12.43,38.45,14.88,14.15,2.52,28.55,2.24,42.57-.96,25.54-5.83,46.21-20.71,61.42-40.32,16.98-21.89,27.17-49.67,29.77-77.46,3.15-33.68-4.16-67.14-11.71-99.75-7.94-34.26-16.62-68.35-26.7-102.04-.3-1.01-.39-1.96-.3-2.84-2.97-1.17-6.14-.84-9.29.22-5.76,1.95-11.49,6.34-16.27,9.96-1.73,1.31-3.34,2.53-4.79,3.53-5.93,4.07-12.41,6.99-19.66,7.45-7.54.48-14.93-1.87-21.78-4.81-3.48-1.49-6.9-3.04-10.31-4.58-9.71-4.39-19.3-8.74-29.78-11.57-14.05-3.79-28.55-5.65-43.09-5.52-25.96.24-52,6.93-67.91,28.94-6.44,8.91-10.65,19.16-7.37,30.16,1.78,5.98,5.15,11.42,8.82,16.41l1.26,1.7c2.01,2.74,3.76,5.47,4.29,8.38.44,2.44.1,5.01-1.64,7.84-1.09,1.78-2.48,3.37-3.88,4.96-1.01,1.15-2.02,2.29-2.89,3.52-1.75,2.48-3.31,5.16-4.52,7.95-2.38,5.46-3.4,11.34-3.61,17.26-.26,7.15.75,14.14,1.74,21.15.7,4.97,1.41,9.94,1.69,14.97.05.88-.22,1.53-.59,2.02-.46.59-1.13.97-1.89,1.07-.23.03-.47.04-.71.01.12.48.22.97.31,1.46-.48-.62-.99-1.22-1.54-1.81-.04-.02-.07-.04-.1-.05-.56-.31-1.03-.77-1.33-1.38-.77-.71-1.58-1.39-2.43-2.03-4.43-3.31-9.6-5.27-14.79-5.34-5-.06-10.02,1.64-13.87,5.25-7.66,7.16-9.91,18.86-9.99,28.9-.08,10.25,2.29,22.55,11.2,28.92,3.58,2.55,7.95,4.09,12.35,4.13,3.65.04,7.14-1.26,10.58-2.49,1.06-.38,2.12-.76,3.17-1.1,1.2-.39,2.29-.37,3.24-.08,1.07.32,1.98.99,2.66,1.87.68.88,1.12,1.99,1.26,3.14.13,1.12-.02,2.28-.49,3.33-.12.26-.24.52-.37.77l1.96,3.23c7.51,12.34,15.15,24.46,25.17,35.07,5.75,6.09,11.85,11.84,18.54,16.87l.96.72c.58.43,1.22.95,1.9,1.51,1.95,1.6,4.29,3.74,6.47,3.83.65.03,1.21-.06,1.73-.12,1.24-.16,2.29-.21,3.31.21.82.34,1.68.97,2.56,2.26.59.88.9,1.98.9,3.1s-.31,2.25-.86,3.14c-1.14,1.84-2.51,2.98-4,3.63-1.66.72-3.5.83-5.41.48-4.71-.88-9.91-4.79-13.23-7.33l-.64-.49c-7.34-5.61-14.31-11.83-20.42-18.77-10.42-11.83-19.78-25.77-24.59-41-3.39,2.23-7.57,3.29-11.95,3.46-6.38.24-13.13-1.4-18.1-3.77-10.96-5.21-17.62-15.06-20.74-26.39-3.62-13.15-2.45-28.28,2.14-40.1.13-.34.27-.69.41-1.03-14.12-35.85-18.46-75.66-17.25-113.92.57-17.91,1.78-36.7,6-54.16,1.89-7.83,5.17-15.28,10.41-21.45,2.99-3.51,6.66-6.25,10.34-8.98,3.19-2.36,6.39-4.72,9.09-7.67l1.27-1.4c.28-.3.55-.61.83-.91,4.65-5.14,9.18-10.13,14.83-14.34,6.55-4.89,13.78-8.71,21.29-11.89,16.18-6.84,33.59-10.95,50.82-14.12,37.27-6.87,75.53-7.2,112.34,2.45,17.12,4.49,33.73,10.63,50.31,16.76,1.54.57,3.08,1.14,4.62,1.71,12.89,4.75,25.78,9.49,38.67,14.22,5.99,2.2,11.98,4.4,17.98,6.6,1.3.48,2.57,1.51,3.3,2.79.71,1.25.92,2.7.35,4.15-3.68,9.33-8.31,18.09-13.96,26.27,1.96,1.34,3.63,3.12,4.9,5.2,1.6,2.63,2.54,5.75,2.61,9.06.21,11.08-9.84,18.58-18.19,24.01-.78.51-1.55.81-2.29.94,8.09,30.98,15.82,62.06,22.4,93.39l.45,2.17c6.77,32.79,11.14,66.25,4.74,99.47-5.52,28.61-18.33,56.22-38.36,77.54-19.63,20.89-45.96,34.04-74.45,36.97ZM288.21,240.08c-3.49-11.09-5.33-23.15-4-34.39.84-7.07,2.96-13.87,6.41-20.1,1.98-3.57,4.39-6.87,7.02-9.98l.91-1.04c.46-.53.92-1.02,1.06-1.64.08-.36,0-.75-.22-1.22-.48-1.03-1.37-2.03-2.21-3-.53-.62-1.05-1.22-1.48-1.82-7.64-10.37-13.34-22.71-11.49-35.85,1.81-12.83,10.2-24.78,19.12-33.79,19.66-19.84,50.15-24.4,76.85-23.3,15.55.64,31.07,3.38,45.87,8.18,7.3,2.37,14.44,5.25,21.38,8.55l1.54.74c.83.4,1.66.81,2.49,1.22,5.42,2.66,10.86,5.36,16.75,6.8,11.49,2.83,19.29-3.13,27.49-9.14,2.81-2.06,5.66-4.15,8.69-5.98l.62-.37c5.47-3.18,12.01-5.31,18.29-5.22,5.46.08,10.72,1.83,15.01,5.96.88.85,1.39,1.77,1.62,2.69.47.67.86,1.46,1.11,2.4,1.54,5.77,3.06,11.55,4.59,17.33l1.25-.81c3.69-2.4,7.7-5.15,9.51-9.17.7-1.55.6-4.12-.28-6.02-.31-.66-.71-1.25-1.28-1.62-.41-.27-.9-.39-1.47-.35-1.39.18-2.67-.02-3.75-.48-1.25-.53-2.24-1.4-2.89-2.45-.66-1.07-.96-2.34-.8-3.65.14-1.13.62-2.3,1.58-3.41,6.3-7.27,11.6-15.29,15.63-24l-26.65-9.88c-9.5-3.52-19.01-7.04-28.52-10.54l-5.21-1.92c-17.29-6.36-34.68-12.57-52.67-16.66-35.74-8.13-73-6.22-108.64,1.43l-2.15.47c-14.95,3.27-30.11,7.22-43.84,14.09-6.74,3.37-13.14,7.47-18.64,12.66-2.43,2.29-4.62,4.79-6.82,7.3-3.08,3.51-6.16,7-9.82,9.96l-3.4,2.73c-5.05,4.08-9.61,8.06-12.46,14.39-2.98,6.62-4.41,13.93-5.57,21.05-2.93,17.94-4.09,36.17-3.98,54.35.19,30.52,4.81,60.41,10.66,90.2,4.69-6.73,11.28-11.94,19.73-13.05,5.51-.73,10.98.3,15.72,2.75,2.74,1.41,5.24,3.3,7.36,5.58ZM279.35,276.32c-6.17-2.4-12.66-3.18-19.19-2.04-.68.12-1.34-.02-1.89-.34-.56-.32-.99-.84-1.23-1.4-.27-.65-.29-1.36-.05-1.99.21-.55.61-1.07,1.35-1.43,7.07-3.38,14.93-4.88,22.74-3.81l.77.11c3.99.59,9.6,1.84,13.8,4.3,3.3,1.93,5.72,4.59,6.33,8.07.31,1.81-.13,3.7-1.18,5.07-1.01,1.33-2.55,2.21-4.54,2.15-3.51-.1-5.6-1.59-8.1-3.52-.3-.23-.62-.47-.94-.72-2.42-1.81-5.06-3.35-7.88-4.45Z"/>
  <path class="cls-3" d="M450.14,305.83c5.18-8.52,16.22,12.35,17.39,15.94,1.04,3.18,1.73,6.44,2.07,9.73,4.02.9,8.19.9,12.3.11,6.12-1.17,9.85-4.46,15.17-7.28,3.67-1.95,8.3.34,10.21,3.57,2.25,3.81.82,7.76-2.14,10.6-5.6,5.38-16.62,6.62-23.93,5.19-4.19-.82-8.03-2.39-11.42-4.67-.02.43-.04.85-.07,1.28l-.07.74c-.56,5.97-2.2,13.48-6.84,17.36-7.61,6.37-16.99-5.88-9.6-12.25l.23-.19c4.59-3.71,5.6-13.67,5.35-19.15-.16-3.58-.81-7.21-1.94-10.62l-.23-.68c-.34-.96-4.05-10.1-5.39-8.94l-.06.07c-.55.66-1.45-.11-1.02-.81ZM491.49,257.75c6.99,4.25,17.65,14.16,10.12,24.7-8.85,9.29-21.6-1.36-27.88-6.18-5.83-3.73-12.37,5.87-6.96,10.23,45.39,33.61,63.81-27.63,28.26-33.74-3.92-.67-5.37,3.68-3.54,5ZM416.83,218.46c6.83-1.21,13.83.49,19.49,4.49l.43.31c5.45,3.98,11.54,10.98,8.42,17.85-1.25,2.76-5.01,3.19-7.4,1.94-3.97-2.08-4.69-7.2-8.23-10.04-2.9-2.32-6.82-3.73-10.56-3.39-8.79.8-14.19,9.47-16.92,16.94-.35.96-1.75,1.33-2.3.3-6.44-12.03,4.96-26.24,17.07-28.39ZM526.28,213.92c13.09-1.08,28.41,12.49,24.97,26.31-1.65,6.63-11.49,6.44-13.23,0-.96-3.54-.87-6.68-3.42-9.62-2.11-2.43-5.1-3.84-8.31-3.62-3.54.24-6.81,2.01-9.3,4.5-2.24,2.25-3.59,5.54-5.91,7.53-.57.49-1.34.52-1.9,0-4-3.69-1.6-11.37.94-15.22,3.63-5.51,9.54-9.33,16.17-9.88ZM391.9,193.96c8.4-7.43,23.66-14.61,34.98-10.95,6.51,2.1,9.35,12.59,2.08,15.92-8.42,3.85-18.12,2.28-26.68,6.27-3.6,1.68-6.98,3.77-9.48,6.85-1.97,2.42-3.98,5.61-6.83,7.01-.75.37-1.77.38-2.37-.31-6.26-7.08,2.85-19.95,8.31-24.78ZM511.85,182.64c5.19-1.46,10.95-1.43,16.22-.51,5.27.92,10.62,3.1,14.92,6.29l.5.37c4.7,3.54,10.3,8.69,10,14.96-.25,5.24-5.76,8.78-10.51,6.03-3.88-2.24-5.7-6.72-8.98-9.71-2.71-2.46-5.89-4.41-9.28-5.77-3.77-1.51-7.55-2.22-11.59-2.29-3.11-.05-6.25.97-9.31,1.3.25.52-2.17.28-3.55-.18-1.03-.44-1.03-1.74-.68-2.58,1.76-4.17,8.18-6.77,12.26-7.92Z"/>
  <path class="cls-1" d="M572.47,262.11c-8.5,10.62-41.77,22.41-59.48,9.61-17.71-12.8-24.71-21.71-27.07-37.7-.25-1.71-3.33-2.84-4.64-1.63-7.3,6.78-12.02,15.41-16.7,24.07-5.28,9.76-10.48,19.58-20.07,26.19-16.99,9.11-47.72,10.4-56.81,6.39-17.39-7.7-31.15-24.15-34.28-46.8-2.12-6.7-4.11-10.75-5.97-12.16-2.64-2-17.23-3.79-18.83-4.09-28.8-5.34-65.21-8.75-90.86,10.05-3.47,2.1-15.35,9.98-15.53,8.04-.12-7.59,8.48-24.77,28.05-32.95,24.2-10.11,60.16-10.7,81-8.47,1.05.11,4.62-.76,4.87-.87,31.57-13.67,67.89-10.04,101.67-4.29,4.84.94,48.17,11.67,65.41,5.17,28.5-11.63,58.88-20.06,89.65-16.74.26.03,4.14,23.61,1.12,25.22-2.41,1.28-6.51,4.56-7.96,6.36-1.3,1.61-2.12,3.6-2.05,6.36.59,15.99-3.98,28.86-11.51,38.26ZM455.3,247.84c3.61-5.23,4.75-16.97,3.24-25.53-.77-4.34-2.25-7.79-4.12-9.51-1.24-1.14-2.66-1.68-4.2-1.6-.85.04-1.76.28-2.73.81-13.14-7.11-29.06-9.67-44.15-8.93-12.01,0-20.58,2.83-26.4,7.25-6.99,5.31-10.14,12.95-10.33,21.23-.22,9.83,3.82,20.57,10.44,29.08,6.34,8.14,15.01,14.18,24.41,15.57,10.68,2.12,21.56.07,31.02-4.95,9.7-5.14,17.9-13.41,22.82-23.41ZM560.66,253.39c6.09-7.2,10.14-16.56,10.75-25.83.56-8.44-1.7-16.8-7.95-23.71-5.67-4.86-15.68-4.94-26.21-2.24-13.62,3.5-27.71,11.33-32.4,16.38-1.11.58-2.13,1.59-3.03,3.76v.77c-1.43,6.56-.58,13.22,1.88,19.36,2.67,6.67,7.26,12.73,12.85,17.35,7.43,6.12,15.18,7.99,22.44,7,8.22-1.12,15.86-5.98,21.67-12.85Z"/>
  <path class="cls-3" d="M502.24,200.06c28.86-11.78,59.7-20.27,90.93-16.91,2.58-.98,5.79-.15,6.93,3.5,11.12,33.88-13.68,24.46-13.35,37.13,2.6,71.02-92.86,83.15-103.59,10.65l-.2.12c-15.44,14.41-18.7,37.86-36.89,50.39-36.7,26.84-88.72,5.57-95.4-42.2l-.15-.65c-2.24-9.75-4.92-12.17-15.99-12.12l-1.75-.35c-28.74-5.66-67.01-10.75-93.48,8.72-5.76,3.35-6.03,11.96-10.89,15.7-5.33,1.04-8.61-5.38-8.97-9.81-.84-44.23,78.29-47.41,113.74-43.61.68-.7,2.12-.61,2.61.26,32.05-13.88,68.17-11.96,102.49-6.12,21.26,4.12,42.26,13.49,63.96,5.31ZM590.3,191.32c-17.32-.87-33.33.08-50.33,4.24-8.96,2.16-15.83,4.89-24.41,8.18-53.48,23.69-59.65-18.42-179.53-1.91,1.55,6.64,1.84,13.22,1.92,19.46,24.48-.99,18.71,22.39,27.88,38.8l.28.49c13.37,23.95,44.9,35.12,70.34,19.24,21.22-12.37,23.29-43.74,44.43-56.2,18.32-.72,11,24,20.97,34.16,14.03,18.72,43.86,21.34,61.45,3.73,8.26-8.47,12.64-19.23,12.89-30.79.46-7.38-.81-14.89,4.78-20.08,3.91-3.98,10.87-2.65,11.67-8.66.51-3.55-.97-7.41-2.34-10.66ZM402.11,200.99c17.2-.85,35.4,2.14,50.17,10.58,10.93-8.7,13.61,25.88,6.35,35.88-10.45,21.39-34.79,35.46-58.23,30.78-36.56-5.3-62.04-77.3,1.71-77.24ZM451.23,213.89l-.93-.14c-15.85-2.42-58.99-13.62-75.63,4.06-16.15,29.32,24.82,78.58,67.45,39.35,11.87-12.08,16.47-26.73,9.11-43.27ZM501.45,217.64c8.2-9.72,50.02-29.4,64.6-16.77,26.6,29.82-15.59,90.12-50.93,60.74-11.77-9.82-19.51-25.47-16.12-40.62v-.64c.01-.23.06-.18.3-.46.44-1.15,1.22-1.88,2.15-2.25ZM565.67,235.71c8.97-48.66-28.53-30.16-59.32-17.17,1.65,1.51,1.65,3.57,1.17,5.27-3.25,36.11,40.64,56.57,58.15,11.91ZM332.57,202.98c-12.85,4.35-97.81-3.43-105.66,36.4,8.29-13.42,25.44-18.75,40.87-21.64,20.98-3.93,41.85-1.65,62.54,2.48l.43-4.28c.46-4.54.94-8.79,1.82-12.96Z"/>
</svg>