<?xml version="1.0" encoding="utf-8"?>
<!-- Generator: Adobe Illustrator 24.2.1, SVG Export Plug-In . SVG Version: 6.00 Build 0)  -->
<svg version="1.1" id="Layer_1" xmlns="http://www.w3.org/2000/svg" xmlns:xlink="http://www.w3.org/1999/xlink" x="0px" y="0px"
	 viewBox="0 0 454.5 407" style="enable-background:new 0 0 454.5 407;" xml:space="preserve">
<style type="text/css">
	.st0{fill:#231F20;}
	.st1{fill:#ED2224;}
</style>
<g>
	<path id="path280" class="st0" d="M22.7,363.3h30.7v-11.1H22.7v-13.7h34.6v-11.1H9.8v64.1h48.3v-11.1H22.7"/>
	<path id="path282" class="st0" d="M21.9,269.1l13.5,47.7H48l13.5-47.7v47.7h12.1v-64.1H55.1l-13.4,45l-13.4-45H9.8v64.1h12.1"/>
	<path id="path284" class="st0" d="M304,316.7H317v-64.1H304V316.7z"/>
	<path id="path286" class="st0" d="M314.5,391.6h12.9v-64.1h-12.9V391.6z"/>
	<path id="path288" class="st0" d="M431.8,316.7h12.9v-64.1h-12.9V316.7z"/>
	<path id="path290" class="st0" d="M78.8,316.7h12.9v-64.1H78.8V316.7z"/>
	<path id="path292" class="st0" d="M413.8,277.6h-25.7v-25h-12.8v64.1h12.8v-28h25.7v28h12.5v-64.1h-12.5"/>
	<path id="path294" class="st0" d="M110.9,316.7H124v-53h15.6v-11.1H95.1v11.1h15.7"/>
	<path id="path296" class="st0" d="M228.6,391.6h13.1v-53h15.7v-11.1H213v11.1h15.6"/>
	<path id="path298" class="st0" d="M219.9,318.6c16.4,0,25.5-7.5,25.5-21.8v-44.1h-12.9v45.2c0,5.5-4.7,10.1-12.5,10.1
		c-9.9,0-12.8-5.5-12.8-10.1v-45.2h-12.5v44.1C194.6,312.1,204.1,318.6,219.9,318.6"/>
	<path id="path300" class="st0" d="M122.2,363.3h30.5v-11.1h-30.5v-13.7h34.3v-11.1h-47.3v64.1h48.3v-11.1h-35.3"/>
	<path id="path302" class="st0" d="M279,262.9c3.4,0,7.5,3.3,7.5,7.6c0.1,4.4-3.5,8-7.9,8.1c-0.1,0-0.3,0-0.4,0h-15.4v-15.7H279z
		 M277.9,307h-15.1v-18.6h15c5.5,0,9.9,3.1,9.9,9.3C287.7,303.1,283.6,307,277.9,307 M263.2,316.7h18.6c12.1,0,19.2-7.2,19.2-17.3
		c0-8.2-5.9-15.1-12.3-16.8c5.6-1.4,10.1-7.2,10.1-14.3c0-9.4-6.9-15.7-19.8-15.7H250v64.1l0,0"/>
	<path id="path304" class="st0" d="M273.7,355.9v-17.4h15.6c5.3,0,8.7,3.7,8.7,8.8c0,3.6-3,8.7-8.3,8.7L273.7,355.9L273.7,355.9z
		 M299.4,360.8c6.9-2,11.5-8.3,11.4-15.5c0-11.4-7.7-17.9-20.9-17.9h-29.3v64.1h13.1v-25.3h10.9c6.7,0,10.3,3.4,11.4,8
		c1.2,5,1,12.5,2.2,17.2h13.1c-1.2-5.5-2.1-11.2-2.5-16.8C308.4,365.9,303.8,362.5,299.4,360.8"/>
	<path id="path306" class="st0" d="M75.4,327.5H62.4v64.1h43.1v-11.1H75.4"/>
	<path id="path308" class="st0" d="M161.5,289.6c10.3,1.8,16.2,3.8,16.2,9.9c0,4.2-4,8.2-12.8,8.2s-13.1-4.9-13.1-10.7h-12.3
		c0,11.2,7.3,21.3,26,21.3c17.8,0,25.7-9.5,25.7-20.3c0-10.1-6.7-16.5-18.4-18.8c-11.5-2.2-19.2-2.7-19.2-9.9
		c0-4.9,4.5-7.9,11.5-7.9c7.3,0,11.5,3.7,11.5,9.8h12.4c0-10.1-7.7-20.5-24.6-20.5c-11.7,0-23.8,6.8-23.8,19.4
		C140.6,280.8,148.3,287.4,161.5,289.6"/>
	<path id="path310" class="st0" d="M342,289.6c10.5,1.8,16.4,3.8,16.4,9.9c0,4.2-4.2,8.2-12.8,8.2c-8.7,0-13.1-4.9-13.1-10.7h-12.3
		c0,11.2,7,21.3,26,21.3c17.8,0,25.7-9.5,25.7-20.3c0-10.1-6.7-16.5-18.6-18.8c-11.4-2.2-19.2-2.7-19.2-9.9c0-4.9,4.7-7.9,11.5-7.9
		c7.5,0,11.7,3.7,11.7,9.8h12.5c0-10.1-7.7-20.5-24.6-20.5c-11.7,0-24,6.8-24,19.4C321.2,280.8,329.1,287.4,342,289.6"/>
	<path id="path312" class="st0" d="M186.7,381.6c-10.3,0-16.4-10.2-16.4-22.4c0-12.2,5.9-22.4,16.4-22.4c8.1,0,12.1,4.9,13.7,11H214
		c-2.2-12.6-12-21.8-27.5-21.8c-19.6,0-29.7,15-29.7,33.5s10.5,33.5,29.7,33.5c15.4,0,25.7-9,27.5-22.6h-13.5
		C198.9,376.7,194.6,381.6,186.7,381.6"/>
	<path id="path314" class="st0" d="M360.6,381.6c-10.6,0-16.5-10.2-16.5-22.4c0-12.2,5.9-22.4,16.5-22.4c7.9,0,12,4.9,13.7,11h13.4
		c-2.2-12.6-12-21.8-27.5-21.8c-19.6,0-29.6,15-29.6,33.5s10.3,33.5,29.6,33.5c15.4,0,25.7-9,27.7-22.6h-13.5
		C372.6,376.7,368.3,381.6,360.6,381.6"/>
</g>
<g>
	<path id="path274" class="st1" d="M182.6,240H92.8l44.7-77.6h89.8"/>
	<path id="path276" class="st1" d="M272.2,240h89.6L317,162.4h-89.6"/>
	<path id="path278" class="st1" d="M272.2,84.6L227.3,7l-44.7,77.6l44.7,77.6"/>
</g>
</svg>
