<?xml version="1.0" encoding="UTF-8"?>
<svg id="svg2811" xmlns="http://www.w3.org/2000/svg" version="1.1" viewBox="0 0 779.5 227.6">
  <defs>
    <style>
      .cls-1 {
        fill: #000;
      }

      .cls-1, .cls-2 {
        stroke-width: 0px;
      }

      .cls-2 {
        fill: #ed2224;
      }
    </style>
  </defs>
  <path id="path274" class="cls-2" d="M87.1,226H0l43.4-75.3h87.1"/>
  <path id="path276" class="cls-2" d="M174,226h86.9l-43.4-75.3h-86.9"/>
  <path id="path278" class="cls-2" d="M174,75.3L130.5,0l-43.4,75.3,43.4,75.3"/>
  <path id="path280" class="cls-1" d="M299.9,193.9h34.9v-12.6h-34.9v-15.6h39.3v-12.6h-54v72.9h54.9v-12.6h-40.2"/>
  <path id="path282" class="cls-1" d="M299,86.8l15.4,54.2h14.2l15.4-54.2v54.2h13.8v-72.9h-21.1l-15.2,51.1-15.2-51.1h-21.1v72.9h13.8"/>
  <path id="path284" class="cls-1" d="M619.6,140.9h14.7v-72.8h-14.7v72.8Z"/>
  <path id="path286" class="cls-1" d="M631.5,226h14.7v-72.9h-14.7v72.9Z"/>
  <path id="path288" class="cls-1" d="M764.8,140.9h14.7v-72.8h-14.7v72.8Z"/>
  <path id="path290" class="cls-1" d="M363.6,140.9h14.7v-72.8h-14.7v72.8Z"/>
  <path id="path292" class="cls-1" d="M744.4,96.5h-29.2v-28.4h-14.5v72.9h14.5v-31.8h29.2v31.8h14.2v-72.9h-14.2"/>
  <path id="path294" class="cls-1" d="M400.1,140.9h14.9v-60.2h17.7v-12.6h-50.6v12.6h17.9"/>
  <path id="path296" class="cls-1" d="M533.9,226h14.9v-60.2h17.9v-12.6h-50.6v12.6h17.7"/>
  <path id="path298" class="cls-1" d="M524,143c18.6,0,29-8.5,29-24.8v-50.1h-14.7v51.4c0,6.3-5.3,11.5-14.2,11.5-11.3,0-14.5-6.2-14.5-11.5v-51.4h-14.2v50.1c-.2,17.5,10.6,24.8,28.6,24.8"/>
  <path id="path300" class="cls-1" d="M413,193.9h34.7v-12.6h-34.7v-15.6h39v-12.6h-53.8v72.9h54.9v-12.6h-40.1"/>
  <path id="path302" class="cls-1" d="M591.1,79.7c3.9,0,8.5,3.7,8.5,8.6.1,5-3.9,9.1-9,9.2h-17.9v-17.8h18.4ZM589.9,129.9h-17.2v-21.1h17c6.2,0,11.3,3.5,11.3,10.6,0,6-4.6,10.5-11.1,10.5M573.2,140.9h21.1c13.8,0,21.8-8.2,21.8-19.7,0-9.3-6.7-17.2-14-19.1,6.4-1.6,11.5-8.2,11.5-16.2,0-10.7-7.8-17.9-22.5-17.9h-32.9v72.9h0"/>
  <path id="path304" class="cls-1" d="M585.1,185.4v-19.8h17.7c6,0,9.9,4.2,9.9,10,0,4.1-3.4,9.9-9.4,9.9l-18.2-.1h0ZM614.3,191c7.8-2.2,13.1-9.5,12.9-17.6,0-13-8.7-20.4-23.7-20.4h-33.3v72.8h14.9v-28.7h12.4c7.6,0,11.7,3.9,12.9,9.1,1.4,5.7,1.1,14.2,2.5,19.6h14.9c-1.4-6.3-2.3-12.7-2.8-19.1-.4-9.9-5.7-13.8-10.7-15.7"/>
  <path id="path306" class="cls-1" d="M359.7,153.1h-14.7v72.9h49v-12.6h-34.2"/>
  <path id="path308" class="cls-1" d="M457.6,110.1c11.7,2,18.4,4.3,18.4,11.3,0,4.8-4.6,9.3-14.5,9.3s-14.9-5.6-14.9-12.2h-14c0,12.7,8.3,24.2,29.6,24.2,20.2,0,29.2-10.8,29.2-23.1,0-11.5-7.6-18.8-20.9-21.4-13.1-2.5-21.8-3.1-21.8-11.3,0-5.6,5.1-9,13.1-9s13.1,4.2,13.1,11.1h14.1c0-11.5-8.7-23.3-28-23.3-13.3,0-27.1,7.7-27.1,22.1,0,12.3,8.7,19.8,23.7,22.3"/>
  <path id="path310" class="cls-1" d="M662.8,110.1c11.9,2,18.6,4.3,18.6,11.3,0,4.8-4.8,9.3-14.5,9.3s-14.9-5.6-14.9-12.2h-14c0,12.7,8,24.2,29.6,24.2,20.2,0,29.2-10.8,29.2-23.1,0-11.5-7.6-18.8-21.1-21.4-12.9-2.5-21.8-3.1-21.8-11.3,0-5.6,5.3-9,13.1-9,8.5,0,13.3,4.2,13.3,11.1h14.2c0-11.5-8.7-23.3-28-23.3-13.3,0-27.3,7.7-27.3,22.1-.1,12.3,8.9,19.8,23.6,22.3"/>
  <path id="path312" class="cls-1" d="M486.3,214.7c-11.7,0-18.6-11.6-18.6-25.5s6.7-25.5,18.6-25.5c9.2,0,13.8,5.6,15.6,12.5h15.4c-2.5-14.3-13.6-24.8-31.3-24.8-22.3,0-33.8,17.1-33.8,38.1s11.9,38.1,33.8,38.1c17.5,0,29.2-10.2,31.3-25.7h-15.4c-1.8,7.2-6.7,12.8-15.6,12.8"/>
  <path id="path314" class="cls-1" d="M683.9,214.7c-12,0-18.8-11.6-18.8-25.5s6.7-25.5,18.8-25.5c9,0,13.6,5.6,15.6,12.5h15.2c-2.5-14.3-13.6-24.8-31.3-24.8-22.3,0-33.6,17.1-33.6,38.1s11.7,38.1,33.6,38.1c17.5,0,29.2-10.2,31.5-25.7h-15.4c-2,7.2-6.8,12.8-15.6,12.8"/>
</svg>