<?xml version="1.0" encoding="UTF-8"?>
<svg id="Layer_1" data-name="Layer 1" xmlns="http://www.w3.org/2000/svg" version="1.1" viewBox="0 0 1080 1080">
  <defs>
    <style>
      .cls-1 {
        fill: #000;
      }

      .cls-1, .cls-2 {
        stroke-width: 0px;
      }

      .cls-2 {
        fill: #fff;
      }
    </style>
  </defs>
  <g id="NZ_Logo" data-name="NZ Logo">
    <g>
      <path class="cls-2" d="M309.95,1739.18h-22v-124.43c0-33.57-17.75-55.75-53.25-66.56-7.33-2.32-14.28-3.47-20.84-3.47-6.95,0-14.28,1.15-22,3.47-35.5,10.81-53.25,32.99-53.25,66.56v124.43h-21.99v-124.77c0-44.09,22.57-73.11,67.72-87.05,10.03-3.09,19.67-4.64,28.93-4.64s18.9,1.55,28.94,4.64c45.15,14.32,67.72,43.33,67.72,87.05v124.77Z"/>
      <path class="cls-2" d="M594.12,1629.8c0,31.26-10.9,57.79-32.7,79.58-21.8,21.81-48.14,32.7-79,32.7s-57.29-10.89-79.29-32.7c-22-21.79-32.99-48.32-32.99-79.58s10.99-57.2,32.99-79c22-21.79,48.41-32.7,79.29-32.7s57.2,10.91,79,32.7c21.8,21.8,32.7,48.14,32.7,79ZM572.14,1629.8c0-24.69-8.79-45.81-26.34-63.37-17.56-17.55-38.68-26.33-63.37-26.33s-46.4,8.78-63.95,26.33c-17.56,17.56-26.33,38.68-26.33,63.37s8.77,46.4,26.33,63.95c17.55,17.56,38.87,26.33,63.95,26.33s45.81-8.77,63.37-26.33,26.34-38.87,26.34-63.95Z"/>
      <path class="cls-2" d="M696.56,1746.13h-24.31c-7.73-10.41-11.58-25.47-11.58-45.14v-182.89h21.99v182.89c0,15.43,4.63,30.48,13.9,45.14Z"/>
      <path class="cls-2" d="M968,1733.4h-209.51l-.33-22.34,180.06-170.39h-179.73v-21.99h209.51v21.42l-177.68,171.31h177.68v22Z"/>
    </g>
    <g>
      <path class="cls-2" d="M262.2,1950.19c0,54.27-44.95,81.4-134.85,81.4H27.22v-21.99h115.18c23.53,0,44.36-4.23,62.51-12.69,23.53-11.16,35.31-26.93,35.31-47.31,0-38.07-18.52-68.45-55.57-91.14-31.25-19.22-67.33-28.85-108.22-28.85H27.22c1.15-103.4,1.15-178.64,0-225.72h21.99c.77,54.03.77,121.94,0,203.73h27.21c47.07,0,88.35,11.74,123.86,35.21,41.28,26.94,61.92,62.74,61.92,107.37Z"/>
      <path class="cls-2" d="M540,1919.89c0,31.26-10.9,57.79-32.7,79.58-21.8,21.81-48.14,32.7-79,32.7s-57.29-10.89-79.29-32.7c-22-21.79-32.99-48.32-32.99-79.58s10.99-57.2,32.99-79c22-21.79,48.41-32.7,79.29-32.7s57.2,10.91,79,32.7c21.8,21.8,32.7,48.14,32.7,79ZM518.02,1919.89c0-24.69-8.79-45.81-26.34-63.37-17.56-17.55-38.68-26.33-63.37-26.33s-46.4,8.78-63.95,26.33c-17.56,17.56-26.33,38.68-26.33,63.37s8.77,46.4,26.33,63.95c17.55,17.56,38.87,26.33,63.95,26.33s45.81-8.77,63.37-26.33c17.55-17.55,26.34-38.87,26.34-63.95Z"/>
      <path class="cls-2" d="M761.09,1826.81c-11.58,0-19.87.77-24.88,2.32-8.11,2.73-16.21,5.44-24.31,8.15-35.51,10.85-53.25,33.16-53.25,66.9v125.09h-22v-125.09c0-24.81,5.59-43.82,16.79-57.01,10.03-12.02,27.2-22.1,51.51-30.26,17.75-5.81,26.81-8.91,27.2-9.31,5.4-1.15,15.05-1.74,28.94-1.74v20.94Z"/>
      <path class="cls-2" d="M1052.78,2025.22c-11.58,5.78-36.08,8.68-73.5,8.68-31.26,0-58.46-5.19-81.61-15.58-32.8-14.24-49.2-36.95-49.2-68.13,0-45.01,15.19-79.26,45.58-102.74,27.31-21.17,64.03-31.75,110.19-31.75,7.3,0,16.15-.19,26.54-.58v-206.62h21.99v228.61h-48.03c-42.45,0-75.24,9.26-98.39,27.78-23.92,19.67-35.89,48.03-35.89,85.07,0,22.38,10.61,38.98,31.84,49.78,17.74,9.26,39.73,13.7,65.98,13.31,8.1,0,21.6-.19,40.51-.58,10.03-.77,24.69-3.08,43.99-6.95v19.68Z"/>
    </g>
  </g>
  <g id="NZ_Logo-2" data-name="NZ Logo">
    <g>
      <path class="cls-1" d="M309.95,503.18h-22v-124.43c0-33.57-17.75-55.75-53.25-66.56-7.33-2.32-14.28-3.47-20.84-3.47-6.95,0-14.28,1.15-22,3.47-35.5,10.81-53.25,32.99-53.25,66.56v124.43h-21.99v-124.77c0-44.09,22.57-73.11,67.72-87.05,10.03-3.09,19.67-4.64,28.93-4.64s18.9,1.55,28.94,4.64c45.15,14.32,67.72,43.33,67.72,87.05v124.77Z"/>
      <path class="cls-1" d="M594.12,393.8c0,31.26-10.9,57.79-32.7,79.58-21.8,21.81-48.14,32.7-79,32.7s-57.29-10.89-79.29-32.7c-22-21.79-32.99-48.32-32.99-79.58s10.99-57.2,32.99-79c22-21.79,48.41-32.7,79.29-32.7s57.2,10.91,79,32.7c21.8,21.8,32.7,48.14,32.7,79ZM572.14,393.8c0-24.69-8.79-45.81-26.34-63.37-17.56-17.55-38.68-26.33-63.37-26.33s-46.4,8.78-63.95,26.33c-17.56,17.56-26.33,38.68-26.33,63.37s8.77,46.4,26.33,63.95c17.55,17.56,38.87,26.33,63.95,26.33s45.81-8.77,63.37-26.33,26.34-38.87,26.34-63.95Z"/>
      <path class="cls-1" d="M696.56,510.13h-24.31c-7.73-10.41-11.58-25.47-11.58-45.14v-182.89h21.99v182.89c0,15.43,4.63,30.48,13.9,45.14Z"/>
      <path class="cls-1" d="M968,497.4h-209.51l-.33-22.34,180.06-170.39h-179.73v-21.99h209.51v21.42l-177.68,171.31h177.68v22Z"/>
    </g>
    <g>
      <path class="cls-1" d="M262.2,714.19c0,54.27-44.95,81.4-134.85,81.4H27.22v-21.99h115.18c23.53,0,44.36-4.23,62.51-12.69,23.53-11.16,35.31-26.93,35.31-47.31,0-38.07-18.52-68.45-55.57-91.14-31.25-19.22-67.33-28.85-108.22-28.85H27.22c1.15-103.4,1.15-178.64,0-225.72h21.99c.77,54.03.77,121.94,0,203.73h27.21c47.07,0,88.35,11.74,123.86,35.21,41.28,26.94,61.92,62.74,61.92,107.37Z"/>
      <path class="cls-1" d="M540,683.89c0,31.26-10.9,57.79-32.7,79.58-21.8,21.81-48.14,32.7-79,32.7s-57.29-10.89-79.29-32.7c-22-21.79-32.99-48.32-32.99-79.58s10.99-57.2,32.99-79c22-21.79,48.41-32.7,79.29-32.7s57.2,10.91,79,32.7c21.8,21.8,32.7,48.14,32.7,79ZM518.02,683.89c0-24.69-8.79-45.81-26.34-63.37-17.56-17.55-38.68-26.33-63.37-26.33s-46.4,8.78-63.95,26.33c-17.56,17.56-26.33,38.68-26.33,63.37s8.77,46.4,26.33,63.95c17.55,17.56,38.87,26.33,63.95,26.33s45.81-8.77,63.37-26.33c17.55-17.55,26.34-38.87,26.34-63.95Z"/>
      <path class="cls-1" d="M761.09,590.81c-11.58,0-19.87.77-24.88,2.32-8.11,2.73-16.21,5.44-24.31,8.15-35.51,10.85-53.25,33.16-53.25,66.9v125.09h-22v-125.09c0-24.81,5.59-43.82,16.79-57.01,10.03-12.02,27.2-22.1,51.51-30.26,17.75-5.81,26.81-8.91,27.2-9.31,5.4-1.15,15.05-1.74,28.94-1.74v20.94Z"/>
      <path class="cls-1" d="M1052.78,789.22c-11.58,5.78-36.08,8.68-73.5,8.68-31.26,0-58.46-5.19-81.61-15.58-32.8-14.24-49.2-36.95-49.2-68.13,0-45.01,15.19-79.26,45.58-102.74,27.31-21.17,64.03-31.75,110.19-31.75,7.3,0,16.15-.19,26.54-.58v-206.62h21.99v228.61h-48.03c-42.45,0-75.24,9.26-98.39,27.78-23.92,19.67-35.89,48.03-35.89,85.07,0,22.38,10.61,38.98,31.84,49.78,17.74,9.26,39.73,13.7,65.98,13.31,8.1,0,21.6-.19,40.51-.58,10.03-.77,24.69-3.08,43.99-6.95v19.68Z"/>
    </g>
  </g>
</svg>