<?xml version="1.0" encoding="utf-8"?>
<!-- Generator: Adobe Illustrator 24.2.1, SVG Export Plug-In . SVG Version: 6.00 Build 0)  -->
<svg version="1.1" id="Layer_1" xmlns="http://www.w3.org/2000/svg" xmlns:xlink="http://www.w3.org/1999/xlink" x="0px" y="0px"
	 viewBox="0 0 500 300" style="enable-background:new 0 0 500 300;" xml:space="preserve">
<style type="text/css">
	.st0{fill:#0A5099;}
	.st1{fill:#0EA3E3;}
	.st2{fill:#F4FAFC;}
	.st3{fill:#EFF8FC;}
</style>
<path class="st0" d="M11.3,57.9c-3.4,3.8-6.2,71-3.5,86c1.4,7.7,1.4,7.7,14.8,7.9l13.3,0.3l-1.8-10.2c-2.4-13.4-2.4-20.8-0.3-20.9
	c3.2,1.1,6.3,3.1,8.6,6c7.7,6.9,8.2,7.1,17.5,2.7c18.3-7.8,35.8-34.6,32.7-49.4C90.5,71.2,80,60.4,69.3,57.1
	c-10.6-2-21.2-3.1-32.2-3.1C18.7,54,13.7,54.6,11.3,57.9z M65.6,76.9c7.5,7.4,7.5,15.8-0.1,24.7c-6.9,8.6-16.9,13.3-25.6,11.7
	c-6.5-0.8-6.5-0.8-6.6-18.4c0.1-14.6,0.5-18.3,4.5-21C46.8,68.7,57.9,70,65.6,76.9L65.6,76.9z"/>
<path class="st0" d="M315.1,60.2c-4.7,5.8-12.2,8.5-19.8,7.2c-9.6-1.6-27.1,5-31.7,12s-4.3,21.4,0.9,28.6c5.9,7.7,5.8,10.4-0.5,13.8
	c-12.2,6.7-14.2,17.3-5.8,25.6c6.3,5.8,14.6,6.7,34.2,2.6c10.7-2.4,15.1-2.4,21.1,0.1s7.8,2.5,11.8-2.1c12.4-15.5-5-23.5-34.1-15.4
	c-13.7,3.5-16.9,3.2-17-2.5c0.1-3.5,11.9-8.3,21.1-8.3c9.4-0.5,18.5-4.4,25.4-11.2c5.8-7.2,7.9-20.4,2.8-27.3
	c-5.5-7.9-4.9-13.9,1.7-14c8,0.2,8.9-2.5,3.5-7.4C323.3,56.3,319.1,55.7,315.1,60.2z M303.7,82.3c5.4,4,6.5,11.8,2.5,17.3
	c-0.2,0.5-0.9,0.9-1.1,1.4c-4,4.5-19.6,4.9-23.3,1c-3.6-4-3.4-18.2,1.5-20.9C289.6,77.6,297.7,78.1,303.7,82.3z"/>
<path class="st0" d="M141.5,72c-5.2,3.8-14.8,4.9-14.8,1.3c0.2-1.4-4.6-2.2-10.4-2.5L105.8,71v35.1c-0.2,46.7,0,46.1,14,46.1
	c11.5,0.2,11.5,0.2,10.1-6.5c-1.6-8.9-2.5-18.2-2.8-27.2c-1-19.7-1.2-21,4.8-26.9c7.4-7.5,11.7-7.8,17.6-0.9l4.7,5.2l5.6-5.7
	c6.9-6.8,7.3-10.5,1.2-16.8C155.8,67.9,147.1,67.2,141.5,72z"/>
<path class="st0" d="M182.4,73.2c-8.6,5.9-10.2,15.4-3.2,19.1c3.2,2,5.3,1,8.9-3.4c5.3-6.5,12.4-7.2,22.4-3.6
	c4.4,1.9,5.8,3.8,5.4,7.6c-0.4,3.7-3.3,6-13.1,8.4c-32.3,8.8-42.4,34.7-17.8,46.7c7.2,3.2,15,4.7,32,4.5l22.9,0.1l-1-30.7
	c-0.1-12.2-1.6-24.7-3.9-36.8C228.8,70.9,197,64.1,182.4,73.2z M217.6,125c-0.2,10.6-0.4,12.1-5.4,12.7c-13.5,2-23.8-6.7-18.5-16.7
	c4-6.3,10.8-9.5,18.3-8.7C217.2,112.9,217.7,114,217.6,125z"/>
<path class="st0" d="M341.5,79.7c1.9,14.1,8.3,26.8,18.6,36.4c11.7,9.8,9.8,15.1-4.7,15c-10.1,0-14.8,4-14.8,13.2
	c-0.2,8,0,8.3,8.9,8.5c28.6,0,62.1-36.6,63.3-69.2l0.4-12.9l-10.4-0.8l-10.5-0.7l1,11.4c1.3,14.8-4,29.6-10.7,29.2
	c-8-0.2-18.6-17.9-18.4-30.4V69.3l-11.9-0.1l-11.9-0.1L341.5,79.7z"/>
<path class="st0" d="M436,73.4c-9.5,5-11.6,11.7-5.9,18.2c4.5,4.9,4.5,4.9,10.3-1.4c6.2-7.3,16.8-8,24.4-2.4
	c6.8,5.1,6.5,10.1-1.3,12c-28.7,6.2-45.2,22.4-38.2,37.9c4.9,11.3,13,14.5,41.6,15.4l26.3,0.7l-1.3-30.6c-1.7-33-4-40.7-14.3-47.7
	C468.8,69.3,445.4,68.1,436,73.4z M470.9,116.2c1,3.9,1.3,8.2,1.4,12.1c0,6.6-0.9,8.3-6,9.5c-12.5,3.3-25.4-6.4-20.1-15.5
	S468.4,109,470.9,116.2z"/>
<path class="st1" d="M110,215.1c-3.5,0-6.9,0-10.4,0c-4.8-6.8-9.4-13.8-14.4-20.4c-1.9-2.5-4.5-5-8.1-4c-4,1.1-4.7,4.8-5,8.3
	c-0.4,5.4-0.5,10.8-0.7,16.2c-3,0-5.9,0-8.9,0c0-17.3,0-34.5,0-51.8c11.8-0.1,23.7-0.2,35.5-0.2c5.9,2.3,11.3,5.1,11.9,12.5
	c0.6,7.3-3.2,11.4-9.6,13.8c-4.2,1.6-3,3.9-1.2,6.8C102.9,202.4,108.6,207.6,110,215.1z M86.7,184.4c1.2,0,1.9,0,2.7,0
	c5.4,0.4,8.9-0.6,9-7.5c0-6.6-3.3-8-8.7-8c-1.7,0-3.5,0-5.2,0c-7.3,0.1-9,2.2-8.4,9.3C76.7,186.2,82.6,183.9,86.7,184.4z"/>
<path class="st1" d="M447.7,215.1c-3,0-5.9,0-8.9,0c0.8-17.8,0.6-35.6,0-53.3c3,0,5.9,0,8.9,0c3.5,3.1,6.3,6.8,8.7,10.8
	c4.2,7,8.6,13.8,13,20.6c1,1.5,1.6,4.2,4.1,3.3c2-0.7,1.3-3,1.3-4.6c0-9.4-0.1-18.7-0.2-28.1c3.8-0.5,8.9-3.5,9,4
	c0.1,14.2,0,28.4,0.1,42.7c0,1.9-0.9,3.2-1.9,4.6c-3.5,0-6.9,0-10.4,0c-7.8-11.1-12.7-24.2-23.7-35.8
	C447.7,192.8,447.7,204,447.7,215.1z"/>
<path class="st1" d="M287.7,215.1c-1.9-4.3-8.1-5.7-7.4-11.8c0.3-3-0.3-6,4.2-6.2c3.9-0.2,5.4,1.3,5.1,5.1c-0.3,4.6,2.4,6,6.5,5.9
	c2.9-0.1,5.9,0,8.9,0c9.2,0,10.1-1.1,9.7-10.2c-0.2-4.3-2-6.4-6.2-6.5c-3.7-0.1-7.4,0-11.1,0c-9-0.1-15.1-3.9-16.8-10.4
	c-2-8,0.9-13.3,10-18c7.7,0,15.3-0.1,23,0c7.1,0.2,12.3,4.3,12.7,10c0.2,2.1,0.7,4.9-2.6,5.1c-2.4,0.1-6,1.5-6.4-2.7
	c-0.5-4.8-3.5-5.3-7.3-5.3c-3,0-5.9,0.2-8.9,0c-5.8-0.4-9.2,0.8-9.2,8c0.1,7.2,3.8,8.1,9.4,8c4.7,0,9.4,0,14,0.5
	c5.8,0.7,10.2,3.5,11.4,9.9c1.1,6.5-0.7,11.6-6.5,15.2c-1.6,1-4,1.1-4.4,3.5C306.5,215.1,297.1,215.1,287.7,215.1z"/>
<path class="st1" d="M127.8,215.1c-3.5,0-6.9,0-10.4,0c-1.1-1.9-1.8-3.5-0.8-6c6.3-15.4,10.7-31.4,15.6-47.3c4.4,0,8.9,0,13.3,0
	c9.9,15.3,14,33.1,21,49.7c0.4,1-0.1,2.4-0.2,3.6c-3.5,0-6.9,0-10.4,0c-2.2-2.7-3.3-6-4-9.3c-1.6-8-7.1-8.6-13.7-8.4
	c-6.9,0.2-6.9,5.4-7.3,9.7C130.6,210.4,127.7,212.1,127.8,215.1z M140.4,191.8c2.4-1,7.4,1.8,6.8-3.6c-0.6-5.3-2.9-13.3-7-13.3
	c-5.4,0-5.8,8.1-6.7,13C132.6,193.3,137.6,191,140.4,191.8z"/>
<path class="st1" d="M222.6,215.1c1.2-10.6,6-20.1,8.8-30.2c2.2-7.8,5-15.4,7.5-23.1c4.4,0,8.9,0,13.3,0c4.6,5,5.8,11.6,8.2,17.6
	c3.7,9.3,7.5,18.6,11.3,27.8c1.1,2.7,2.7,5.4-0.3,7.9c-3.5,0-6.9,0-10.4,0c-1.3-4-2.7-8-3.9-12c-2.1-6.9-7.8-5.5-12.8-5.6
	c-5-0.1-6.1,3.3-6.8,7.2c-0.7,3.8-1,7.9-4.6,10.4C229.5,215.1,226,215.1,222.6,215.1z M247.2,192c1.9-1.6,7.2,1.8,6.4-4.1
	c-0.8-5.3-2.9-13.2-7.4-13c-5.1,0.1-5.8,8.4-6.5,13.4C238.9,193.7,244.2,190.8,247.2,192z"/>
<path class="st1" d="M430,215.1c-3.5,0-6.9,0-10.4,0c-1.5-4.2-3.1-8.3-4.5-12.5c-2.2-6.4-7.6-4.9-12.4-5.1c-4.9-0.2-6.3,2.9-7,6.9
	c-0.7,3.8-1.3,7.7-4.2,10.7c-3.5,0-6.9,0-10.4,0c0.1-1.7-0.2-3.5,0.3-5c4.4-14.2,9-28.4,13.3-42.7c0.8-2.5,2.6-3.9,4.2-5.7
	c3.5,0,6.9,0,10.4,0c2.1,2.3,4.8,4,5.8,7.3c4,13.2,9.7,25.9,15,38.6C431,210.1,432.5,212.7,430,215.1z M405,191.9
	c2.5-1.1,7.7,1.8,6.8-3.8c-0.8-5.1-2.8-13.1-7.6-12.9c-5.1,0.1-5.9,8.3-6.4,13.3C397.2,193.7,402.4,190.7,405,191.9z"/>
<path class="st1" d="M213.7,161.8c0.2,5-4.4,6.2-7.2,8.6c-10.4,9.2-10.6,9.1-3.8,21.3c3.1,5.6,6.6,10.9,10,16.4
	c1.4,2.2,3.5,4.4,1,7.1c-3,0-5.9,0-8.9,0c-4.5-6.4-8.4-13.2-11.9-20.3c-3.2-6.4-6-6.4-10.1-0.3c-1.7,2.5-1.3,5.1-1.5,7.8
	c-0.3,4.3,1.3,8.9-1.7,12.8c-2,0-4,0-5.9,0c-0.3-0.9-0.9-1.8-0.9-2.8c-0.1-15.2-0.1-30.5-0.3-45.7c0-2.4,2-3.2,2.8-4.9
	c2,0,4,0,5.9,0c3.4,4.9,1.3,10.4,1.6,15.6c0.3,3.8,1.7,4.6,4.4,2.2c6.4-5.9,13.9-10.6,19.2-17.7
	C208.7,161.8,211.2,161.8,213.7,161.8z"/>
<path class="st1" d="M332.2,215.1c-0.1-13.1-0.1-26.1-0.2-39.2c0-2.8-0.1-5.5,4.1-5.3c4.2,0.1,4.6,2.1,4.3,5.7
	c-0.8,9.3-0.6,9.3,8.7,9.3c18.6,0,15.5,1.2,15.8-15.8c0-2.7,0-5.4,0-8.1c2.5,0,4.9,0,7.4,0c1,1.7,2,3.2,2,5.4c-0.2,16-0.4,32-0.5,48
	c-3,0-5.9,0-8.9,0c0.1-5.9-0.1-11.7,0.3-17.6c0.4-5.7-2.2-7.6-7.4-7.2c-2.7,0.2-5.3,0.7-8,0.7c-5.5-0.1-6.8,2.6-6.8,7.8
	c0,5.4,1.9,11.3-1.9,16.3C338.1,215.1,335.2,215.1,332.2,215.1z"/>
<path class="st1" d="M48.6,165.3c-0.9-0.5-2-0.7-3-1.1c-0.4,0-0.9-0.1-1.3-0.2c-2.4-0.7-5.5-0.5-8.4-0.9c-0.1,0-0.2,0-0.3-0.1
	c-5.1,0.4-10.2-0.5-15.3-0.1c-3.2,0.2-5.8,0.2-5.7,4.6c0.4,15.9-0.7,31.8,0.6,47.7h10.4c-0.1-5.4-0.1-10.8-0.3-16.2
	c-0.1-4.4,1.9-6.3,6.3-6.1c3.7,0.1,7.4,0.2,11.1-0.1c6.6-0.5,12.1-3,13.8-10C58.3,175,55.3,169.1,48.6,165.3z M44.7,184.2
	c-0.7,3.7-4.6,2.8-7.4,3c-1.2,0.1-2.4,0-3.7,0c-10.1,0-14.2-5.7-10.7-15.1c0.2-0.7,0.6-1.4,1.1-1.8c2-1.9,18.5-1.8,19.8,0.4
	C46.3,174.9,45.5,179.8,44.7,184.2z"/>
<path class="st2" d="M175.2,161.8c-0.8,1.7-2.8,2.4-2.8,4.9c0.2,15.2,0.2,30.5,0.3,45.7c0,0.9,0.6,1.8,0.9,2.8c-2.5,0-4.9,0-7.4,0
	c0.1-1.2,0.6-2.6,0.2-3.6c-7-16.6-11-34.4-21-49.7C155.4,161.8,165.3,161.8,175.2,161.8z"/>
<path class="st3" d="M33.7,161.8c-5.4,0-10.9,0.1-16.3-0.1c-3.2-0.1-3.8,0.6-3.8,3.8c0.2,15.8,0.1,31.6,0.1,47.4
	c0,0.9-0.9,2.7,1.4,2.2c-1.3-15.9-0.2-31.8-0.6-47.7c-0.1-4.4,2.5-4.4,5.7-4.6c5.1-0.3,10.2,0.5,15.3,0.1
	C34.8,162.8,34.2,162.4,33.7,161.8z"/>
<path class="st3" d="M98.1,161.8c0,0.4,0,0.9,0,1.3c-11.8,0.1-23.7,0.2-35.5,0.2c0-0.5,0-1,0-1.5C74.4,161.8,86.3,161.8,98.1,161.8z
	"/>
</svg>
