<?xml version="1.0" encoding="UTF-8"?>
<svg id="Layer_1" data-name="Layer 1" xmlns="http://www.w3.org/2000/svg" version="1.1" viewBox="0 0 1080 1080">
  <defs>
    <style>
      .cls-1 {
        fill: #000;
      }

      .cls-1, .cls-2, .cls-3, .cls-4 {
        stroke-width: 0px;
      }

      .cls-2 {
        fill: #666;
      }

      .cls-3 {
        fill: #edeced;
      }

      .cls-4 {
        fill: #cccbcb;
      }
    </style>
  </defs>
  <path class="cls-2" d="M272.39,454.7l-12.64,20.46s4.81,3.61,9.03-1.21c2.41-3.61,13.24-24.08,13.24-24.08l-9.63,4.82Z"/>
  <path class="cls-2" d="M282.62,449.89l-8.42,12.64-4.82,14.45s3.61,3.01,6.62-.6c3.01-3.61,4.21-12.64,4.21-12.64l13.84-17.46-11.44,3.61Z"/>
  <path class="cls-2" d="M775.85,106.82c1.36,0,16.7-.45,16.7-.45l10.38,10.84s-5.41,2.26-7.22.45c-1.8-1.81-8.12-5.42-8.12-5.42l-13.54.91,1.8-6.32Z"/>
  <path class="cls-2" d="M782.17,101.41c1.8,0,26.18.9,26.18.9,0,0-1.81,4.51-4.52,5.42-2.7.9-11.28-1.36-11.28-1.36l-16.7.45,6.32-5.41Z"/>
  <path class="cls-4" d="M789.99,94.18l-40.93,22.87s-22.87,45.14-27.68,53.57c-4.82,8.43-19.86,38.52-23.47,45.74-3.61,7.22-19.86,42.74-22.87,48.15-3.01,5.41-14.45,10.23-17.46,15.04-3.01,4.82-15.05,19.87-20.46,27.69-5.41,7.83-15.65,8.12-15.65,8.12,0,0-18.96-31.82-20.32-35.88,1.13-1.58,4.51-7.9.45-16.93,0,1.36,4.96-10.38-7.22-25.28-12.19-14.89-28.89-17.6-40.18-15.8-11.28,1.81-22.57,9.03-27.08,10.84-4.51,1.81-12.18,8.58-12.18,11.74s7.22,8.12,7.22,8.12c0,0-.45,22.12,0,24.83.45,2.71,5.41,3.16,6.32,5.41.9,2.26-.9,6.78.9,9.48,1.81,2.71,5.42,12.19,7.22,14.9,1.81,2.7,7.22,10.83,9.03,13.54,1.8,2.71,6.77,4.07,10.38,3.16,3.61-.9,9.03-4.96,13.54-6.32,4.51-1.36,13.55-1.81,16.25,1.36,2.71,3.16-.9,7.22,3.16,13.08,1.09,1.59,2.05,3.03,2.87,4.31l-10.7,7.43s-9.63-1.2-15.05.6c-5.41,1.81-10.83,7.22-14.44,9.03-3.61,1.81-12.64,1.81-21.07,6.02-8.42,4.21-27.08,15.65-31.9,19.86-4.82,4.21-9.64,6.02-9.64,6.02,0,0-13.84.6-27.08,4.21-13.24,3.61-32.51,4.81-45.14,9.63-12.64,4.81-23.47,6.62-31.29,9.63-7.83,3.01-39.13,7.83-46.35,10.23-7.22,2.41-21.66,4.81-27.08,8.42-5.42,3.61-31.9,18.06-31.9,18.06l-27.08,19.26s.6,2.41,6.02,1.21c5.42-1.21,15.05-9.03,15.05-9.03l25.88-10.83s5.42,0,3.61,4.21c-1.8,4.21-9.03,9.03-12.03,12.64-3.01,3.61-2.41,8.42-2.41,8.42,0,0,9.63-7.83,12.64-9.03,3.01-1.21,9.03-6.02,13.24-9.63,4.21-3.61,12.64-13.24,12.64-13.24,0,0,56.57,3.61,72.22,1.2,15.65-2.41,52.96-14.44,52.96-14.44,0,0,43.94-3.61,55.98-4.82,12.03-1.21,27.68-6.62,33.1-5.41,5.41,1.2,31.9,32.5,33.1,39.72,1.2,7.22.6,16.85.6,16.85,0,0-4.21.6-5.41,3.61-1.21,3.01-3.01,12.64-3.01,12.64,0,0-7.22,1.8-12.64,4.81-5.42,3.02-18.06,3.02-18.06,3.02,0,0-18.65-11.44-47.55-12.04-28.89-.6-67.4,4.82-78.24,7.22-10.84,2.41-27.08,14.45-30.09,19.26-3.01,4.82-1.21,25.88-1.21,25.88,0,0,15.05,19.86,19.27,26.48,4.21,6.63,35.51,51.16,46.34,66.21,10.83,15.04,15.04,18.65,19.26,25.88,4.21,7.22,12.03,28.89,19.86,39.72,7.83,10.84,22.27,24.08,22.27,24.08,0,0,19.26,14.44,21.67,14.44-3.61.6-12.64,38.52-19.86,54.77-7.22,16.25-3.01,39.12-3.01,48.75s-10.84,57.18-13.84,62.6c-3.01,5.41-12.04,7.82-15.05,13.84-3.01,6.02.6,15.05,3.01,19.27,2.41,4.21,13.24,22.87,13.24,22.87,0,0,.6,16.85,1.81,22.87,1.2,6.02,4.81,7.22,6.62,8.42,1.8,1.21,23.47,3.02,28.28,1.21,4.82-1.8,6.62-7.22,3.61-10.84-3.01-3.61-14.44-9.63-14.44-9.63,0,0,0-42.13,1.2-46.34,1.21-4.21,6.02-14.45,6.62-20.46.6-6.02,24.68-72.82,30.09-84.86,5.42-12.04,6.02-40.33,6.02-40.33,0,0,22.88-34.91,27.69-45.74,4.82-10.84,28.89-31.9,40.93-55.38,12.03-23.47,28.28-78.84,30.7-86.06,2.41-7.22,17.45-33.7,21.06-42.73,3.61-9.03,3.61-17.46,3.61-17.46,0,0,5.42-4.82,5.42-9.63s-4.21-11.44-4.21-11.44c0,0,18.05-29.49,19.86-63.2,1.8-33.7-3.61-60.19-8.43-75.83-4.81-15.65-7.82-26.48-8.42-33.7-.6-7.22,3.01-22.87,10.84-32.5,7.82-9.63,16.85-53.57,20.46-62,3.61-8.42,22.27-39.12,24.67-49.35,2.41-10.23,8.43-52.96,8.43-52.96,0,0,10.83-1.21,13.84-2.41,3.01-1.21,6.62-6.02,9.03-6.02s15.65-.6,15.65-.6c0,0,1.21-6.02-5.41-6.02-9.63-.6-16.85-1.81-16.85-1.81l9.03-15.04,13.84-6.02s11.66-3.85,11.44-6.32c-.45-4.97-15.65.9-15.65.9M567.3,628.04c-9.03,16.85-16.85,30.7-19.86,46.34-3.01,15.65-12.03,34.91-12.03,34.91,0,0-14.45-13.24-18.06-18.06-3.61-4.81,0-16.25,1.8-19.86,1.81-3.61,3.61-18.65-.6-22.27-4.21-3.61-18.06-4.21-18.06-4.21,0,0-18.06-19.86-22.27-32.5-4.21-12.64-9.63-42.13-15.65-51.76,11.44,8.43,43.33,16.25,63.8,20.46,20.46,4.21,55.38,7.22,55.38,7.22,0,0-5.42,22.87-14.45,39.72"/>
  <path class="cls-3" d="M789.99,94.18l-40.93,22.87s-18.68,36.87-25.83,50.19c-.54,2.62-1.06,5.25-1.57,7.88-.11.31-.23.61-.34.91-8.79,23.96-16.25,48.21-27.02,71.4-10.6,22.83-23.25,44.7-37.77,65.25-4.08,5.78-7.56,11.06-14.53,13.52-4.88,1.72-9.66,2.72-14.03,5.66-7.22,4.87-12.29,12.11-18.29,18.29-3.26,3.36-6.85,6.51-11.13,8.5-4.87,2.28-10.3,2.66-15.53,3.58-8.17,1.43-15.96,5.19-17.46,14.16-1.5,8.93,3.13,18.11,6.89,25.9,5.39,11.14,9.41,22.8,11.84,34.93,4.85,24.25,3.49,49.77-4.21,73.29-2.3,7.01-4.75,14.08-12.35,16.72-6.49,2.25-14.04,1.87-20.81,2.03-15.08.37-30.18.06-45.24-.91-15.4-.99-30.68-2.81-45.94-5.06-11.79-1.74-24.03-3.06-34.96,2.68-.67.36-.64,1.39,0,1.76,22.18,12.65,37.39,36.34,38.98,61.93.43,6.88-.09,13.8.92,20.64.91,6.17,3.24,11.91,6.38,17.28,7.51,12.86,17.6,24.49,26.53,36.38,0,0,25.89,30.11,23.76,27.25-3.61-4.82,0-16.25,1.8-19.86,1.81-3.61,3.61-18.65-.6-22.27-4.21-3.61-18.05-4.21-18.05-4.21,0,0-18.06-19.86-22.27-32.5-4.21-12.64-9.63-42.13-15.65-51.76,11.44,8.43,43.33,16.25,63.8,20.46,20.46,4.21,55.37,7.22,55.37,7.22,0,0-1.67,7.06-4.7,16.23,1.31.17,2.61.39,3.85.75,6.24,1.8,8.12,7.48,8.78,13.33,1.01,8.79-1.47,17.49-5.15,25.4-6.82,14.64-17.29,27.28-25.41,41.18-8.22,14.09-15.13,28.94-20.63,44.3-5.66,15.78-9.81,32.1-12.36,48.67-2.62,17.01-3.11,34.18-4.26,51.32-2.33,34.78-10.49,76.42-45.41,93.02-.79.38-.57,1.67.24,1.86,7.61,1.82,8.76,9.88,7.88,17.12,3.79,6.54,8.09,13.95,8.09,13.95,0,0,.6,16.85,1.81,22.87,1.2,6.02,4.81,7.22,6.62,8.42,1.8,1.21,23.47,3.01,28.28,1.21,4.82-1.8,6.62-7.22,3.61-10.84-3.01-3.61-14.45-9.63-14.45-9.63,0,0,0-42.13,1.21-46.34,1.21-4.21,6.02-14.45,6.62-20.46.6-6.02,24.68-72.82,30.09-84.86,5.41-12.04,6.02-40.33,6.02-40.33,0,0,22.87-34.91,27.69-45.75,4.81-10.83,28.89-31.9,40.93-55.37,12.03-23.47,28.28-78.84,30.69-86.06,2.41-7.22,17.46-33.7,21.07-42.73,3.61-9.03,3.61-17.46,3.61-17.46,0,0,5.41-4.82,5.41-9.63s-4.21-11.44-4.21-11.44c0,0,18.05-29.49,19.86-63.2,1.8-33.7-3.61-60.19-8.43-75.83-4.81-15.65-7.82-26.48-8.42-33.7-.6-7.22,3.01-22.87,10.84-32.5,7.82-9.63,16.85-53.57,20.46-62,3.61-8.42,22.27-39.12,24.68-49.35,2.41-10.23,8.42-52.96,8.42-52.96,0,0,10.84-1.21,13.84-2.41,3.01-1.21,6.62-6.02,9.03-6.02s15.65-.6,15.65-.6c0,0,1.21-6.02-5.42-6.02-9.63-.6-16.85-1.81-16.85-1.81l9.03-15.04,13.84-6.02s11.66-3.85,11.43-6.32c-.45-4.97-15.65.9-15.65.9"/>
  <path class="cls-2" d="M517.94,648.66c-3.81-2.56-12.6-3.43-16.03-3.68.63.71.99,1.11.99,1.11,0,0,9.37.41,15.04,2.57"/>
  <path class="cls-2" d="M549.85,675.58c3.01-15.65,10.84-29.49,19.86-46.34,9.03-16.85,14.45-39.72,14.45-39.72,0,0-.97-.09-2.65-.24-1.14,4.51-6.27,23.95-14.21,38.76-9.03,16.85-16.85,30.7-19.86,46.34-2.68,13.91-10.08,30.63-11.71,34.19,1.26,1.18,2.08,1.93,2.08,1.93,0,0,9.03-19.27,12.03-34.91"/>
  <path class="cls-2" d="M570.31,475.76c-1.21,3.01-3.01,12.64-3.01,12.64,0,0-7.22,1.81-12.64,4.82-5.03,2.79-16.25,2.99-17.85,3.01,1.43.73,2.2,1.2,2.2,1.2,0,0,12.64,0,18.06-3.01,5.41-3.01,12.64-4.81,12.64-4.81,0,0,1.81-9.63,3.01-12.64,1.21-3.01,5.42-3.61,5.42-3.61,0,0,.6-9.63-.6-16.85-1.21-7.22-27.69-38.52-33.1-39.72-.08-.02-.18-.02-.26-.04,8.2,5.92,29.87,32.04,30.96,38.55,1.2,7.22.6,16.85.6,16.85,0,0-4.21.6-5.41,3.61"/>
  <path class="cls-2" d="M792.37,123.87c-.82-.81-2.12-1.39-4.19-1.39-5.97-.38-11.01-.98-13.98-1.38l-.47.78s7.22,1.2,16.85,1.8c.68,0,1.26.08,1.78.19"/>
  <path class="cls-2" d="M464.99,561.83c.11.18.23.38.34.58,1.28.76,2.72,1.5,4.28,2.24-1.77-.93-3.33-1.87-4.62-2.82"/>
  <path class="cls-2" d="M496.89,979.52c-1.21-6.02-1.8-22.87-1.8-22.87,0,0-10.84-18.66-13.24-22.87-2.41-4.21-6.02-13.24-3.02-19.26,3.02-6.02,12.04-8.43,15.05-13.84,3.01-5.42,13.84-52.96,13.84-62.6s-4.21-32.5,3.01-48.75c7.22-16.25,16.25-54.17,19.86-54.77-.41,0-1.33-.44-2.55-1.14-3.7,1.5-12.59,38.66-19.72,54.7-7.22,16.26-3.02,39.13-3.02,48.76s-10.83,57.18-13.84,62.59c-3.01,5.41-12.04,7.83-15.05,13.84-3.01,6.02.6,15.04,3.01,19.26,2.41,4.21,13.24,22.87,13.24,22.87,0,0,.6,16.85,1.81,22.87,1.2,6.02,4.81,7.22,6.62,8.43.16.11.5.23.98.35-1.87-1.12-4.26-2.88-5.19-7.57"/>
  <path class="cls-2" d="M294.06,463.73c3.01-3.61,10.23-8.42,12.03-12.64,1.27-2.95-1.01-3.83-2.49-4.1.5.62.67,1.54.09,2.9-1.8,4.21-9.03,9.03-12.03,12.64-3.01,3.61-2.41,8.43-2.41,8.43,0,0,1.05-.85,2.55-2.03.26-1.6.87-3.52,2.26-5.19"/>
  <path class="cls-2" d="M506.52,718.92s17.51,13.13,21.2,14.33c-6.05-3.56-18.8-13.12-18.8-13.12,0,0-14.44-13.24-22.27-24.08-7.83-10.84-15.65-32.5-19.86-39.72-4.21-7.22-8.43-10.84-19.26-25.88-10.84-15.05-42.13-59.59-46.34-66.21-4.21-6.62-19.27-26.48-19.27-26.48,0,0-1.8-21.06,1.21-25.88,3.01-4.81,19.26-16.85,30.09-19.26,10.84-2.41,49.35-7.83,78.25-7.22,20.95.44,36.48,6.56,43.45,9.9-5.15-2.73-22-10.61-45.87-11.1-28.89-.6-67.41,4.82-78.24,7.22-10.84,2.41-27.08,14.45-30.09,19.26-3.01,4.82-1.21,25.89-1.21,25.89,0,0,15.05,19.86,19.26,26.48,4.21,6.62,35.51,51.15,46.34,66.2,10.84,15.04,15.05,18.65,19.27,25.88,4.21,7.22,12.03,28.89,19.86,39.72,7.82,10.84,22.27,24.08,22.27,24.08"/>
  <path class="cls-2" d="M522.16,252.17s-.45,22.12,0,24.83c.45,2.7,5.41,3.16,6.32,5.41.9,2.26-.91,6.77.9,9.48,1.8,2.71,5.41,12.19,7.22,14.89,1.8,2.71,7.22,10.84,9.03,13.55.82,1.23,2.3,2.16,3.99,2.75-.64-.45-1.2-.96-1.59-1.55-1.8-2.7-7.22-10.83-9.03-13.54-1.81-2.71-5.41-12.19-7.22-14.89-1.8-2.71,0-7.22-.9-9.48-.9-2.26-5.87-2.71-6.32-5.42-.45-2.7,0-24.82,0-24.82,0,0-7.22-4.97-7.22-8.12s7.68-9.93,12.19-11.74c4.51-1.81,15.8-9.03,27.08-10.84,6.85-1.1,15.72-.5,24.35,3.45-9.37-5.03-19.26-5.85-26.75-4.65-11.29,1.81-22.57,9.03-27.08,10.84-4.51,1.8-12.19,8.58-12.19,11.74s7.22,8.12,7.22,8.12"/>
  <path class="cls-2" d="M623.88,316.57s10.23-.3,15.65-8.12c5.42-7.83,17.46-22.87,20.46-27.69,3.01-4.81,14.45-9.63,17.46-15.04,3.01-5.42,19.26-40.93,22.87-48.15,3.61-7.22,18.65-37.32,23.47-45.74,4.82-8.43,27.69-53.57,27.69-53.57l40.92-22.87s8.54-3.3,13.01-2.86c-1.94-3.55-15.42,1.65-15.42,1.65l-40.93,22.87s-22.87,45.14-27.68,53.57c-4.82,8.43-19.86,38.52-23.47,45.75-3.61,7.22-19.86,42.73-22.87,48.14-3.01,5.41-14.45,10.23-17.46,15.05-3.01,4.81-15.05,19.86-20.46,27.68-4.1,5.93-10.96,7.54-14.05,7.97.52.87.81,1.36.81,1.36"/>
  <path class="cls-2" d="M255.54,465.53l27.08-19.26s26.48-14.45,31.9-18.06c5.42-3.61,19.86-6.02,27.08-8.42,7.22-2.41,38.52-7.22,46.34-10.23,7.83-3.01,18.66-4.82,31.3-9.63,12.64-4.82,31.9-6.02,45.14-9.63,13.24-3.61,27.08-4.21,27.08-4.21,0,0,4.82-1.81,9.63-6.02,4.82-4.21,23.47-15.65,31.9-19.86,8.42-4.21,17.46-4.21,21.07-6.02,3.6-1.8,9.03-7.22,14.44-9.03,5.42-1.8,15.05-.6,15.05-.6l10.7-7.43c-.82-1.28-1.78-2.72-2.88-4.31-4.06-5.87-.45-9.93-3.16-13.09-.65-.76-1.68-1.31-2.92-1.69.19.16.37.31.52.49,2.7,3.16-.91,7.22,3.16,13.09,1.1,1.59,2.06,3.02,2.88,4.31l-10.71,7.43s-9.63-1.21-15.04.6c-5.42,1.81-10.84,7.22-14.45,9.03-3.61,1.8-12.64,1.8-21.06,6.02-8.43,4.21-27.08,15.65-31.9,19.86-4.81,4.21-9.63,6.02-9.63,6.02,0,0-13.84.6-27.08,4.21-13.24,3.61-32.5,4.82-45.14,9.63-12.64,4.82-23.47,6.62-31.3,9.63-7.83,3.01-39.12,7.83-46.34,10.23-7.22,2.41-21.67,4.82-27.08,8.43-5.41,3.6-31.9,18.05-31.9,18.05l-27.08,19.26s.34,1.23,2.54,1.48c-.09-.16-.13-.28-.13-.28"/>
  <path class="cls-3" d="M399.99,440.25c15.65-2.41,52.96-14.45,52.96-14.45,0,0,43.94-3.61,55.97-4.81,12.04-1.21,27.69-6.62,33.1-5.42,3.91.87,18.75,17.36,27.18,29.21,1.94-3.13,2.31-7.12.79-11.24-2.75-7.46-7.52-14.33-13.4-19.67-3.04-2.75-6.39-5.31-10.2-6.86-4.33-1.77-8.87-1.63-13.41-.98-9.35,1.33-18.63,3.25-27.94,4.81-9.59,1.61-19.17,3.15-28.77,4.63-19.01,2.92-38.05,5.61-57.14,8.03-18.95,2.41-37.92,4.56-56.92,6.48-4.83.48-9.66.95-14.5,1.41-4.01.38-8.34.41-12.17,1.76-3.24,1.14-5.74,3.11-7.42,5.93,4.62.28,56.91,3.48,71.86,1.18"/>
  <path class="cls-3" d="M554.21,221.48c-8.05,1.29-16.1,5.33-21.69,8.2.06,1.57.33,3.12.91,4.61.87,2.2,2.43,4.13,4.7,4.96,2.99,1.09,5.46-.04,8.32-.8,10.15-2.68,18.51,7.04,23.82,14.18,1.48,1.99,3.41,3.8,2.53,6.39-.92,2.71-2.46,5.08-2.89,7.96-.93,6.16,2.4,11.4,3.12,17.33,1.43,11.78-7.42,22.57-14.45,31.02-1.84,2.21-1.18,5.48,1.23,6.56,3.09-1.58,6.63-3.8,9.74-4.73.99-.3,2.21-.55,3.52-.72.72-.77,1.4-1.57,2.05-2.39,3.75-4.75,7.37-8.71,12.64-11.83,2.63-1.56,5.36-2.94,8.1-4.3,2.92-1.44,5.97-3.07,9.24-3.49,1.46-.18,2.94-.01,4.34.4-4.06-7.07-7.72-13.65-8.29-15.36,1.13-1.58,4.51-7.9.45-16.92,0,1.36,4.96-10.38-7.22-25.28-12.19-14.9-28.89-17.6-40.18-15.8"/>
  <path class="cls-2" d="M531.09,271.51c-4.63.19-9.06,1.99-12.53,5.07-.65.58-.09,1.82.73,1.75-.27.33-.38.75-.13,1.16.26.43.96.7,1.4.37,3.4-2.6,7.11-4.77,11.05-6.44.95-.4.45-1.94-.51-1.9"/>
  <path class="cls-2" d="M540.94,291.67c-1.2-.17-2.62-.33-3.58-1.13-1.14-.94-.99-2.72-1.06-4.06-.18-3.61-.36-7.23-.54-10.84-.06-1.07-5.19.81-6.36,1.45-1.66.65-3.27,1.41-4.8,2.31-.44.25-.62.82-.42,1.27.18.42.72.79,1.2.59.09-.03.16-.08.24-.11h0s.09-.04.13-.07c.57-.23,1.11-.54,1.67-.79,0,0-.01,0-.02.01-.31.31-.34.7-.22,1.04-.09.07-.18.13-.27.21t-.01,0c-.06.06-.14.1-.21.16-.03.03-.04.06-.06.09-.31.21-.62.42-.94.62-.46.31-.65.9-.37,1.39.27.45.94.67,1.4.37.77-.52,1.55-1.03,2.32-1.55.64-.38,1.29-.75,1.91-1.17h0c1.14-.36,2.13-1.01,2.93-1.84.12,2.8.24,5.61.44,8.41.11,1.56.48,3.08,1.75,4.1,1.22.98,2.79,1.29,4.31,1.5,1.28.18,1.84-1.78.54-1.97"/>
  <path class="cls-2" d="M545.69,287.7c-.89-.45-1.86-.57-2.82-.39-.43-.05-.85-.09-1.27-.14-.25-.03-.56.13-.72.3-.18.18-.31.47-.3.72.01.26.1.53.3.72.21.19.44.27.72.3l3.58.4c.21.02.45-.1.62-.22.16-.13.31-.32.36-.53.1-.42-.06-.94-.47-1.15"/>
  <path class="cls-2" d="M558.62,266.56c-2.05,1.01-4.39,1.14-6.58.52,1.43-1.01,2.92-1.94,4.46-2.79,1.15-.64.12-2.4-1.03-1.76-3.67,2.02-7.08,4.5-10.17,7.34-.62.57-.21,1.43.45,1.7,4.7,1.91,10.44.6,13.91-3.09.11-.11.18-.23.22-.35.73-.7-.2-2.1-1.27-1.58"/>
  <path class="cls-2" d="M538.64,266.62l2.71,1.58s7.22-5.87,11.06-7.45c3.84-1.58,7.9-1.58,7.9-1.58,0,0-4.96-2.26-8.8-.67-3.84,1.58-12.86,8.12-12.86,8.12"/>
  <path class="cls-2" d="M539.32,306.79s2.71-4.29,3.61-4.97c.9-.67,3.38-.67,3.38-.67,0,0,.9-2.26,2.03-2.71,1.13-.45,12.42-2.03,12.42-2.03,0,0-7,4.06-8.81,4.74-1.8.67-2.7,2.03-4.29,2.71-1.58.67-8.35,2.93-8.35,2.93"/>
  <path class="cls-2" d="M595.59,267.16c-.62-.88-1.53-1.53-2.64-1.59-1.01-.06-2.08.47-2.56,1.38-.26.49-.12,1.11.37,1.4.46.26,1.14.12,1.39-.37.01-.02.14-.23.08-.13-.06.08.06-.06.07-.08t.02-.02s.01,0,.04-.01c.06-.03.11-.06.17-.09-.19.09.36-.06.13-.04.06,0,.13,0,.2,0,.03,0,.04,0,.05,0,0,0,0,0,.01,0,.08.01.16.04.23.06.02,0,.06.02.07.03.08.04.16.09.23.13t.04.02s0,0,.02.02c.29.24.38.37.55.7.09.17.09.16.14.32.06.16.09.33.13.49,0,.03.03.17.01.06.01.09.02.18.02.28,0,.11,0,.21,0,.31-.96-.49-2.09-.26-2.83.5-.72.73-1.09,1.87-.85,2.87.25,1.06,1.26,1.98,2.38,1.63.53-.16.86-.72.71-1.26-.12-.45-.59-.77-1.06-.72,0-.02-.02-.04-.03-.05s0-.02-.01-.05c-.01-.05-.04-.31-.04-.11,0-.06,0-.12,0-.18,0-.02,0-.03.01-.06.03-.1.05-.2.09-.3-.05.14.08-.14.1-.18.03-.04.06-.09.09-.13-.05.07-.04.06.04-.03.04-.05.05-.06.05-.06,0,0,.02-.01.05-.03.06-.04.11-.07.18-.1-.09.04-.08.04.04,0-.16,0-.01,0,.06,0-.04,0-.03,0,.04.01t.04.02s.02,0,.04,0c0,0,0,.01.06.06.03.04.04.05.05.06.01.02.03.05.04.07,0,.04-.02.09-.04.13-.18.46.17,1.03.59,1.2.51.21.97,0,1.28-.41,1.21-1.62,1.32-4.11.13-5.78"/>
  <path class="cls-2" d="M596.66,275.56c-.55-.13-1.09.16-1.26.71-.03.11-.06.21-.1.31-.02.04-.04.08-.06.12-.09.19-.2.37-.32.55-.02.03-.04.06-.07.09-.07.09-.14.17-.22.26-.14.15-.3.28-.45.42-.04.03-.07.05-.11.08-.09.06-.18.11-.27.17-.09.05-.18.1-.28.15-.04.02-.09.04-.13.06-.18.06-.37.14-.56.18-.11.03-.22.05-.33.07-.04,0-.09.01-.13.01-.53.04-1.04.44-1.01,1.02.02.51.45,1.06,1.01,1.01,2.3-.18,4.32-1.75,5.01-3.96.16-.51-.18-1.14-.71-1.26"/>
  <path class="cls-2" d="M577.54,265.11s-3.61-3.01-4.51-7.83c.6-2.41,4.81-4.51,4.81-4.51l-6.02-2.41-2.7-6.32,5.11,4.51,10.84,5.72s-12.64,0-7.52,10.84"/>
  <path class="cls-2" d="M529.99,244.95s9.93-5.12,16.85-6.62c6.92-1.5,15.65,0,15.65,0,0,0-7.22-4.21-16.55-2.41-9.33,1.8-15.95,9.03-15.95,9.03"/>
  <path class="cls-2" d="M562.49,320.18s8.12,2.41,11.13,8.42c3.01,6.02,3.91,15.05,3.91,15.05,0,0,11.74,3.61,17.76-2.11,3.91-5.41-1.21-24.37-9.03-28.28-7.82-3.92-23.77,6.92-23.77,6.92"/>
  <path class="cls-2" d="M598.3,299.72s7.83,15.05,9.63,20.16c1.81,5.12-3.01,10.84-5.72,10.84s-2.11-9.63-1.8-12.94c.3-3.31-2.11-18.06-2.11-18.06"/>
  <path class="cls-2" d="M549.85,283.17s2.41,3.31-1.5,5.12c4.82,0,4.51-3.91,1.5-5.12"/>
  <path class="cls-2" d="M548.35,311.76s4.51-2.71,7.22-1.8c-.9-2.26-6.77-2.71-7.22,1.8"/>
  <path class="cls-2" d="M418.04,538.36s39.12,17.46,44.54,22.27c-6.62-21.06-44.54-22.27-44.54-22.27"/>
  <path class="cls-2" d="M543.37,510.37s26.34,37.61,31.76,47.85c-4.21-18.05-31.76-47.85-31.76-47.85"/>
  <path class="cls-2" d="M661.64,566.34s-38.82-8.12-61.83,5.12c23.91-19.56,61.83-5.12,61.83-5.12"/>
  <path class="cls-2" d="M501.1,650.3s1.8,13.84-4.82,18.06c12.04-2.41,4.82-18.06,4.82-18.06"/>
  <path class="cls-2" d="M418.64,523.91s13.24,6.02,17.46,12.64c-1.81-10.84-17.46-12.64-17.46-12.64"/>
  <path class="cls-2" d="M557.81,502.25s1.8,25.28,22.13,39.12c8.7,5.93,14.44,6.02,14.44,6.02,0,0-27.55-8.42-36.57-45.14"/>
  <path class="cls-2" d="M566.7,513.68s25.42,9.33,39.86,10.23c-10.84,6.02-39.86-10.23-39.86-10.23"/>
  <path class="cls-2" d="M576.33,491.41s51.76,34.31,96.3,32.5c-49.35,6.62-96.3-32.5-96.3-32.5"/>
  <path class="cls-2" d="M593.79,487.2s47.55,22.27,81.85,18.06c-10.83,13.84-81.85-18.06-81.85-18.06"/>
  <path class="cls-2" d="M493.88,388.49s30.09,19.86,24.68,27.69c12.03-6.02-15.05-27.08-24.68-27.69"/>
  <path class="cls-2" d="M522.16,379.47s11.44,3.01,18.65,9.63c0-10.84-18.65-9.63-18.65-9.63"/>
  <path class="cls-2" d="M673.23,288.59s-2.41,35.51,13.84,48.15c-18.66-13.84-17.46-39.13-13.84-48.15"/>
  <path class="cls-2" d="M533.9,734.26s9.03-5.41,6.32-16.25c7.22,6.32.9,17.15-6.32,16.25"/>
  <path class="cls-4" d="M685.87,401.74s-16.85,39.72-43.33,49.35c25.28,7.22,40.93-38.52,43.33-49.35"/>
  <path class="cls-4" d="M695.5,457.11s-30.09,7.22-43.33,3.61c20.46,14.45,43.33-3.61,43.33-3.61"/>
  <path class="cls-4" d="M687.08,487.2s-24.08-4.82-32.5-10.84c9.63,15.65,32.5,10.84,32.5,10.84"/>
  <path class="cls-1" d="M126.15,260.43l-6.2,16.63h-56.14c-2.77,0-4.32,1.39-4.66,4.16-.33,2.77.89,4.16,3.66,4.16h41.58c13.86,0,19.93,6.93,18.21,20.79-1.69,13.86-9.47,20.79-23.33,20.79h-60.29l-2.12-16.63h64.45c2.77,0,4.32-1.39,4.66-4.16.36-2.77-.85-4.16-3.62-4.16h-41.58c-13.86,0-19.95-6.93-18.25-20.79,1.69-13.86,9.47-20.79,23.33-20.79h60.29Z"/>
  <path class="cls-1" d="M198.92,260.43c13.86,0,19.94,6.93,18.25,20.79l-.75,6.24c-1.72,13.86-9.51,20.79-23.37,20.79h-45.74l-2.04,16.63-17.13,4.16,8.4-68.61h62.37ZM200.54,281.22c.33-2.77-.89-4.16-3.66-4.16h-45.74l-1.79,14.55h45.74c2.77,0,4.34-1.39,4.7-4.16l.75-6.24Z"/>
  <path class="cls-1" d="M290.4,260.43c13.86,0,19.94,6.93,18.25,20.79-1.69,13.86-9.47,20.79-23.33,20.79h-9.9l32.72,24.95h-29.07l-38.92-29.69-3.41,27.61-17.13,4.16,8.4-68.61h62.37ZM292.02,281.22c.33-2.77-.89-4.16-3.66-4.16h-45.74l-1,8.32h45.74c2.77,0,4.32-1.39,4.66-4.16Z"/>
  <polygon class="cls-1" points="330.03 310.33 396.56 310.33 394.52 326.97 311.36 326.97 319.51 260.43 404.75 260.43 398.56 277.07 334.1 277.07 333.11 285.38 399.64 285.38 380.97 302.02 331.07 302.02 330.03 310.33"/>
  <polygon class="cls-1" points="421.51 310.33 488.04 310.33 486 326.97 402.84 326.97 410.99 260.43 496.23 260.43 490.04 277.07 425.58 277.07 424.59 285.38 491.12 285.38 472.45 302.02 422.55 302.02 421.51 310.33"/>
  <polygon class="cls-1" points="744.58 506.4 741.75 529.27 724.62 533.43 733.02 464.82 818.26 464.82 812.07 481.45 747.62 481.45 746.62 489.77 813.15 489.77 794.48 506.4 744.58 506.4"/>
  <polygon class="cls-1" points="816.1 533.43 824.5 464.82 841.13 464.82 833.23 529.27 816.1 533.43"/>
  <path class="cls-1" d="M911.82,464.82c13.86,0,19.94,6.93,18.25,20.79-1.69,13.86-9.47,20.79-23.33,20.79h-9.9l32.72,24.95h-29.07l-38.92-29.69-3.41,27.61-17.13,4.16,8.4-68.61h62.37ZM913.45,485.61c.33-2.77-.89-4.16-3.66-4.16h-45.74l-1,8.32h45.74c2.77,0,4.32-1.39,4.66-4.16Z"/>
  <polygon class="cls-1" points="932.53 533.43 940.93 464.82 957.56 464.82 949.66 529.27 932.53 533.43"/>
  <polygon class="cls-1" points="1013.74 481.45 1007.88 529.27 990.75 533.43 997.11 481.45 963.84 481.45 965.88 464.82 1051.12 464.82 1044.93 481.45 1013.74 481.45"/>
</svg>