<?xml version="1.0" encoding="UTF-8"?>
<svg id="Layer_1" data-name="Layer 1" xmlns="http://www.w3.org/2000/svg" version="1.1" viewBox="0 0 1035.19 613.61">
  <defs>
    <style>
      .cls-1 {
        fill: #000;
      }

      .cls-1, .cls-2 {
        stroke-width: 0px;
      }

      .cls-3, .cls-4 {
        fill: #e9c500;
      }

      .cls-3, .cls-4, .cls-5 {
        stroke: #e9c500;
      }

      .cls-3, .cls-4, .cls-5, .cls-6 {
        stroke-miterlimit: 10;
      }

      .cls-4 {
        stroke-width: 1px;
      }

      .cls-5 {
        fill: none;
        stroke-width: 25.97px;
      }

      .cls-6 {
        stroke: #000;
        stroke-width: 26.74px;
      }

      .cls-6, .cls-2 {
        fill: #fff;
      }
    </style>
  </defs>
  <path class="cls-2" d="M966.99,176.69l.05.18c-6.74.13-13.48.26-20.21.37l.21-.56h19.94Z"/>
  <path class="cls-6" d="M464.06,431.63"/>
  <path class="cls-2" d="M619.69,304.28"/>
  <g>
    <path class="cls-1" d="M552.81,267.35l-11.38,29.45h55.64l11.76-30.5c-18.68.35-37.35.7-56.01,1.05ZM476.49,166.67c-11.38,0-21.38,1.88-30.04,5.63-8.64,3.75-15.59,8.48-20.83,14.19-5.25,5.71-8.72,11.82-10.42,18.35-1.7,6.54-1.29,12.66,1.22,18.36,2.51,5.7,7.24,10.43,14.19,14.19.94.51,1.94.98,2.97,1.42,34.13.63,68.25,1.27,102.37,1.9-.04-.14-.11-.27-.16-.41-2.44-5.7-7.14-10.43-14.08-14.19-6.95-3.74-16.34-5.63-28.16-5.63h-13.96c-3.54,0-6.2-.52-7.98-1.57-1.78-1.05-2.74-2.21-2.88-3.49-.15-1.27.56-2.44,2.11-3.5,1.55-1.05,3.95-1.57,7.2-1.57l124.35.22-31.03,8.78-8.44,21.84c18.4.34,36.8.68,55.2,1.03l12.21-31.65h41.89l17.06-43.9h-212.79ZM403.39,270.15l-10.46,26.66h82.9c11.37,0,21.38-1.88,30.03-5.63,8.64-3.75,15.6-8.48,20.84-14.19,2.74-2.97,4.99-6.07,6.72-9.27-43.35.81-86.68,1.62-130.02,2.43Z"/>
    <path class="cls-1" d="M813.57,262.49c-54.27,1.02-108.54,2.02-162.8,3.04l-27.33,31.28h65.61l19.95-23.19-26.16-8.11h75.36l3.99,31.3h55.64l-4.27-34.32ZM801.65,166.67h-64.5l-66.87,76.53c47.08.88,94.14,1.75,141.21,2.64l-9.84-79.17ZM735.38,242.99l17.73-20.49,2.44,20.49h-20.17Z"/>
    <path class="cls-1" d="M831.41,262.15h-.01l-13.56,35.1h55.41l13.97-36.15c-18.6.35-37.21.7-55.81,1.05ZM962.6,259.7c-18.39.34-36.78.68-55.17,1.03l10.14,36.52h55.41l-10.39-37.55ZM993.93,204.04c-.96-6.76-3.18-12.87-6.64-18.35-3.48-5.48-8.17-9.95-14.08-13.4-5.91-3.44-12.86-5.18-20.84-5.18h-84.22l-30.62,79.21c45.64.86,91.25,1.7,136.88,2.56h.01c2.74-1.94,5.18-4.09,7.33-6.45,5.09-5.63,8.64-11.75,10.63-18.35,2-6.6,2.51-13.29,1.55-20.04ZM940.19,222.84c-.45,3.83-2.44,7.32-5.99,10.47-3.54,3.15-8.79,4.73-15.74,4.73h-22.17l11.76-30.39h17.5c5.18,0,9.02,1.57,11.53,4.73,2.51,3.15,3.54,6.63,3.1,10.46Z"/>
  </g>
  <path class="cls-5" d="M325.23,254.6l-54.32-167.19-54.32,167.19H40.79l142.22,103.33-54.32,167.19,142.22-103.33,142.22,103.33c-11.85-36.46-23.69-72.92-35.54-109.38"/>
  <path class="cls-4" d="M968.66,254.06c-220.28-4.16-440.57-8.33-660.85-12.49,2.26,8.29,4.52,16.57,6.78,24.86,218.02-4.12,436.05-8.25,654.07-12.37Z"/>
  <path class="cls-3" d="M389.68,418.14c11.35,33.11,22.7,66.22,34.05,99.33l-27.46,8.73c-2.2-36.02-4.39-72.04-6.59-108.05Z"/>
  <g>
    <path class="cls-1" d="M439.68,310.94h156.24l-12.53,31.74h-30.76l-24.41,62.33h-40.85l21.97-55.99,22.79-6.35-91.3-.16c-2.39,0-4.15.38-5.29,1.14-1.14.76-1.66,1.6-1.55,2.52.11.92.81,1.76,2.12,2.52,1.3.76,3.25,1.14,5.86,1.14h10.25c8.68,0,15.57,1.36,20.67,4.07,5.1,2.71,8.54,6.13,10.33,10.25,1.79,4.12,2.09,8.54.9,13.26-1.2,4.72-3.72,9.14-7.57,13.26-3.85,4.12-8.95,7.54-15.3,10.25-6.35,2.71-13.7,4.07-22.05,4.07h-60.87l11.23-28.16h47.69c2.39,0,4.18-.57,5.37-1.71,1.19-1.14,1.79-2.36,1.79-3.66s-.6-2.52-1.79-3.66c-1.2-1.14-3.09-1.71-5.7-1.71h-10.25c-8.68,0-15.57-1.36-20.67-4.07-5.1-2.71-8.57-6.13-10.42-10.25-1.85-4.12-2.14-8.54-.9-13.26,1.25-4.72,3.8-9.14,7.65-13.26,3.85-4.12,8.95-7.54,15.3-10.25,6.35-2.71,13.7-4.07,22.05-4.07Z"/>
    <path class="cls-1" d="M572.49,378.81l26.69-67.54h40.69l-20.83,53.22c-.87,2.17-.65,4.23.65,6.18,1.3,1.95,3.15,2.93,5.53,2.93h12.86c1.84,0,3.5-.49,4.96-1.46,1.46-.98,2.52-2.33,3.17-4.07l22.46-56.8h40.85l-29.46,74.7c-2.28,5.86-6.02,10.55-11.23,14.08-5.21,3.53-10.96,5.29-17.25,5.29h-61.03c-3.36,0-6.46-.79-9.28-2.36-2.82-1.57-5.07-3.63-6.75-6.18-1.68-2.55-2.77-5.4-3.25-8.54-.49-3.15-.08-6.29,1.22-9.44Z"/>
    <path class="cls-1" d="M799.69,311.27c3.47,0,6.59.79,9.36,2.36,2.77,1.57,4.99,3.61,6.67,6.1,1.68,2.5,2.77,5.35,3.25,8.54.49,3.2.08,6.38-1.22,9.52l-18.88,48.17c-2.39,5.86-6.16,10.55-11.31,14.08-5.15,3.53-10.88,5.29-17.17,5.29h-89.51l36.94-94.07h81.86ZM771.37,352.28c.43-1.19.57-2.33.41-3.42-.16-1.08-.54-2.06-1.14-2.93-.6-.87-1.38-1.57-2.36-2.12-.98-.54-2.06-.81-3.25-.81h-18.88l-12.04,30.6h22.79c1.84,0,3.5-.49,4.96-1.46,1.46-.98,2.52-2.33,3.17-4.07l6.35-15.79Z"/>
    <path class="cls-1" d="M876.67,311.27l-37.11,94.07h-40.69l36.94-94.07h40.85Z"/>
    <path class="cls-1" d="M966.01,311.27c3.47,0,6.59.79,9.36,2.36,2.77,1.57,4.99,3.61,6.67,6.1,1.68,2.5,2.77,5.35,3.25,8.54.49,3.2.08,6.38-1.22,9.52l-18.88,48.17c-2.28,5.86-6.02,10.55-11.23,14.08-5.21,3.53-10.96,5.29-17.25,5.29h-61.03c-3.36,0-6.46-.79-9.28-2.36-2.82-1.57-5.07-3.63-6.75-6.18-1.68-2.55-2.77-5.4-3.26-8.54-.49-3.15-.08-6.29,1.22-9.44l18.88-48.17c2.38-5.86,6.16-10.55,11.31-14.08,5.15-3.52,10.88-5.29,17.17-5.29h61.03ZM937.7,352.28c.43-1.19.57-2.33.41-3.42-.16-1.08-.54-2.06-1.14-2.93-.6-.87-1.38-1.57-2.36-2.12-.98-.54-2.06-.81-3.25-.81h-12.86c-1.85,0-3.5.52-4.96,1.55-1.46,1.03-2.52,2.36-3.17,3.99l-6.18,15.95c-.87,2.17-.65,4.23.65,6.18,1.3,1.95,3.15,2.93,5.53,2.93h12.86c1.84,0,3.5-.49,4.96-1.46,1.46-.98,2.52-2.33,3.17-4.07l6.35-15.79Z"/>
  </g>
  <path class="cls-2" d="M389.25,410.28c2.03,28.86,4.06,57.73,6.09,86.59-5.5-4.26-11.01-8.52-16.51-12.79-5.05-21.64-10.11-43.27-15.16-64.91,8.53-2.96,17.05-5.93,25.58-8.89Z"/>
</svg>